<?xml version="1.0" encoding="UTF-8" standalone="no"?>
<!-- Created with Inkscape (http://www.inkscape.org/) -->

<svg
   xmlns:ns1="http://www.iki.fi/pav/software/textext/"
   xmlns:dc="http://purl.org/dc/elements/1.1/"
   xmlns:cc="http://creativecommons.org/ns#"
   xmlns:rdf="http://www.w3.org/1999/02/22-rdf-syntax-ns#"
   xmlns:svg="http://www.w3.org/2000/svg"
   xmlns="http://www.w3.org/2000/svg"
   xmlns:sodipodi="http://sodipodi.sourceforge.net/DTD/sodipodi-0.dtd"
   xmlns:inkscape="http://www.inkscape.org/namespaces/inkscape"
   width="34.577095mm"
   height="18.173424mm"
   viewBox="0 0 34.577095 18.173424"
   version="1.1"
   id="svg3838"
   inkscape:version="0.92.4 (5da689c313, 2019-01-14)"
   sodipodi:docname="cl_1 A to D.svg">
  <defs
     id="defs3832">
    <inkscape:path-effect
       is_visible="true"
       id="path-effect8492"
       effect="spiro" />
    <inkscape:path-effect
       effect="spiro"
       id="path-effect8488"
       is_visible="true" />
    <inkscape:path-effect
       effect="bspline"
       id="path-effect8460"
       is_visible="true"
       weight="33.333333"
       steps="2"
       helper_size="0"
       apply_no_weight="true"
       apply_with_weight="true"
       only_selected="false" />
    <inkscape:path-effect
       effect="bspline"
       id="path-effect8456"
       is_visible="true"
       weight="33.333333"
       steps="2"
       helper_size="0"
       apply_no_weight="true"
       apply_with_weight="true"
       only_selected="false" />
    <inkscape:path-effect
       effect="bspline"
       id="path-effect8440"
       is_visible="true"
       weight="33.333333"
       steps="2"
       helper_size="0"
       apply_no_weight="true"
       apply_with_weight="true"
       only_selected="false" />
  </defs>
  <sodipodi:namedview
     id="base"
     pagecolor="#ffffff"
     bordercolor="#666666"
     borderopacity="1.0"
     inkscape:pageopacity="0.0"
     inkscape:pageshadow="2"
     inkscape:zoom="5.6"
     inkscape:cx="125.41816"
     inkscape:cy="29.956209"
     inkscape:document-units="mm"
     inkscape:current-layer="layer1"
     showgrid="false"
     inkscape:window-width="1920"
     inkscape:window-height="1017"
     inkscape:window-x="-8"
     inkscape:window-y="-8"
     inkscape:window-maximized="1"
     fit-margin-top="0"
     fit-margin-left="0"
     fit-margin-right="0"
     fit-margin-bottom="0" />
  <metadata
     id="metadata3835">
    <rdf:RDF>
      <cc:Work
         rdf:about="">
        <dc:format>image/svg+xml</dc:format>
        <dc:type
           rdf:resource="http://purl.org/dc/dcmitype/StillImage" />
        <dc:title></dc:title>
      </cc:Work>
    </rdf:RDF>
  </metadata>
  <g
     inkscape:label="Layer 1"
     inkscape:groupmode="layer"
     id="layer1"
     transform="translate(-7.9517181,-259.04818)">
    <ellipse
       style="fill:#ffffff;fill-opacity:1;stroke:#000000;stroke-width:0.40000001;stroke-miterlimit:4;stroke-dasharray:none;stroke-opacity:1"
       id="path8444"
       cx="25.240265"
       cy="268.13489"
       rx="17.088547"
       ry="8.8867121" />
    <path
       style="fill:none;stroke:#000000;stroke-width:0.40000001;stroke-linecap:butt;stroke-linejoin:miter;stroke-miterlimit:4;stroke-dasharray:none;stroke-opacity:1"
       d="m 18.608641,267.66717 c 1.302995,0.89093 2.605935,1.78183 4.48802,2.09362 1.882085,0.31178 4.3433,0.0445 6.019259,-0.38429 1.675959,-0.42879 2.566963,-1.01908 3.457553,-1.6091"
       id="path8454"
       inkscape:connector-curvature="0"
       inkscape:path-effect="#path-effect8456"
       inkscape:original-d="m 18.608641,267.66717 c 1.303203,0.89063 2.606142,1.78153 3.908816,2.67269 2.461264,-0.26752 4.922478,-0.5348 7.383322,-0.8018 0.891056,-0.59042 1.782061,-1.18071 2.672694,-1.77066" />
    <path
       style="fill:none;stroke:#000000;stroke-width:0.40000001;stroke-linecap:butt;stroke-linejoin:miter;stroke-miterlimit:4;stroke-dasharray:none;stroke-opacity:1"
       d="m 19.878171,268.43557 c 1.18076,-0.59038 2.3612,-1.1806 3.830913,-1.43666 1.469713,-0.25606 3.22971,-0.17808 4.565913,0.10588 1.336204,0.28395 2.249505,0.77402 3.16258,1.26396"
       id="path8458"
       inkscape:connector-curvature="0"
       inkscape:path-effect="#path-effect8460"
       inkscape:original-d="m 19.878171,268.43557 c 1.180705,-0.59049 2.361145,-1.18071 3.541321,-1.77066 1.759316,0.0777 3.519314,0.15564 5.278573,0.23386 0.913305,0.48966 1.826607,0.97972 2.739512,1.46998" />
    <path
       style="fill:none;stroke:#000000;stroke-width:0.26499999;stroke-linecap:butt;stroke-linejoin:miter;stroke-miterlimit:4;stroke-dasharray:none;stroke-opacity:1"
       d="m 20.546345,268.9367 c -1.629326,0.50232 -3.03632,1.68716 -3.808591,3.20723 -0.536139,1.05529 -0.770422,2.26185 -0.668174,3.4411"
       id="path8486"
       inkscape:connector-curvature="0"
       inkscape:path-effect="#path-effect8488"
       inkscape:original-d="m 20.546345,268.9367 c -1.269266,1.06881 -2.538796,2.13789 -3.808591,3.20723 -1.269795,1.06935 -0.445185,2.2938 -0.668174,3.4411" />
    <path
       inkscape:original-d="m 20.546345,268.9367 c -1.269266,1.06881 -2.538796,2.13789 -3.808591,3.20723 -1.269795,1.06935 -0.445185,2.2938 -0.668174,3.4411"
       inkscape:path-effect="#path-effect8492"
       inkscape:connector-curvature="0"
       id="path8490"
       d="m 20.546345,268.9367 c -1.629326,0.50232 -3.03632,1.68716 -3.808591,3.20723 -0.536139,1.05529 -0.770422,2.26185 -0.668174,3.4411"
       style="fill:none;stroke:#000000;stroke-width:0.26458332px;stroke-linecap:butt;stroke-linejoin:miter;stroke-opacity:1"
       transform="matrix(-1,0,0,1,50.99932,0)" />
    <ellipse
       ry="5.6740408"
       rx="10.910803"
       cy="267.04303"
       cx="25.504925"
       id="ellipse8501"
       style="fill:none;fill-opacity:1;stroke:#000000;stroke-width:0.15;stroke-miterlimit:4;stroke-dasharray:none;stroke-opacity:1" />
    <path
       inkscape:transform-center-y="-0.04025201"
       inkscape:transform-center-x="0.13844495"
       transform="rotate(162.40039,-6.9690956,141.72711)"
       d="M 8.6194391,11.071282 C 8.359108,11.232867 8.3884718,11.239739 8.226887,10.979408 8.0653022,10.719077 8.0584298,10.748441 8.3187609,10.586856 8.579092,10.425271 8.5497282,10.418399 8.711313,10.67873 c 0.1615848,0.260331 0.1684572,0.230967 -0.091874,0.392552 z"
       inkscape:randomized="0"
       inkscape:rounded="0.76"
       inkscape:flatsided="true"
       sodipodi:arg2="1.8007008"
       sodipodi:arg1="1.0153026"
       sodipodi:r2="0.20158"
       sodipodi:r1="0.28507715"
       sodipodi:cy="10.829069"
       sodipodi:cx="8.4691"
       sodipodi:sides="4"
       id="path7799"
       style="display:inline;fill:#ffffff;fill-opacity:1;stroke:none;stroke-width:0.14999999;stroke-miterlimit:4;stroke-dasharray:none;stroke-opacity:1"
       sodipodi:type="star" />
    <path
       sodipodi:type="star"
       style="display:inline;fill:#ffffff;fill-opacity:1;stroke:none;stroke-width:0.14999999;stroke-miterlimit:4;stroke-dasharray:none;stroke-opacity:1"
       id="path8518"
       sodipodi:sides="4"
       sodipodi:cx="8.4691"
       sodipodi:cy="10.829069"
       sodipodi:r1="0.28507715"
       sodipodi:r2="0.20158"
       sodipodi:arg1="1.0153026"
       sodipodi:arg2="1.8007008"
       inkscape:flatsided="true"
       inkscape:rounded="0.76"
       inkscape:randomized="0"
       d="M 8.6194391,11.071282 C 8.359108,11.232867 8.3884718,11.239739 8.226887,10.979408 8.0653022,10.719077 8.0584298,10.748441 8.3187609,10.586856 8.579092,10.425271 8.5497282,10.418399 8.711313,10.67873 c 0.1615848,0.260331 0.1684572,0.230967 -0.091874,0.392552 z"
       transform="matrix(0.95319273,0.3023634,0.3023634,-0.95319273,21.759604,278.92756)"
       inkscape:transform-center-x="-0.13844498"
       inkscape:transform-center-y="-0.040251855" />
    <path
       inkscape:transform-center-y="-0.7689652"
       inkscape:transform-center-x="-1.3965648"
       transform="matrix(21.717317,-3.2611809,-15.020102,-4.7152874,4.3371263,350.94508)"
       d="M 8.6194391,11.071282 C 8.359108,11.232867 8.3884718,11.239739 8.226887,10.979408 8.0653022,10.719077 8.0584298,10.748441 8.3187609,10.586856 8.579092,10.425271 8.5497282,10.418399 8.711313,10.67873 c 0.1615848,0.260331 0.1684572,0.230967 -0.091874,0.392552 z"
       inkscape:randomized="0"
       inkscape:rounded="0.76"
       inkscape:flatsided="true"
       sodipodi:arg2="1.8007008"
       sodipodi:arg1="1.0153026"
       sodipodi:r2="0.20158"
       sodipodi:r1="0.28507715"
       sodipodi:cy="10.829069"
       sodipodi:cx="8.4691"
       sodipodi:sides="4"
       id="path8520"
       style="display:inline;fill:#ffffff;fill-opacity:1;stroke:none;stroke-width:0.14999999;stroke-miterlimit:4;stroke-dasharray:none;stroke-opacity:1"
       sodipodi:type="star" />
  </g>
  <g
     inkscape:groupmode="layer"
     id="layer6"
     inkscape:label="Layer 2"
     style="display:inline"
     transform="translate(-7.9517181,-12.048176)">
    <circle
       transform="translate(0,-247)"
       style="fill:#000000;fill-opacity:1;stroke:#000000;stroke-width:0.30488545;stroke-miterlimit:4;stroke-dasharray:none;stroke-opacity:1"
       id="path8494"
       cx="17.506153"
       cy="270.96628"
       r="0.23062246" />
    <circle
       transform="translate(0,-247)"
       r="0.23062246"
       cy="270.96628"
       cx="33.493065"
       id="circle8496"
       style="fill:#000000;fill-opacity:1;stroke:#000000;stroke-width:0.30488545;stroke-miterlimit:4;stroke-dasharray:none;stroke-opacity:1" />
  </g>
  <g
     inkscape:groupmode="layer"
     id="layer7"
     inkscape:label="Layer 3"
     transform="translate(-7.9517181,-12.048176)">
    <g
       id="g8549"
       ns1:jacobian_sqrt="0.352778"
       ns1:alignment="middle center"
       ns1:scale="1.0"
       ns1:preamble="C:\\Users\\alexp\\AppData\\Roaming\\inkscape\\extensions\\textext\\default_packages.tex"
       ns1:text="$\\mathcal{A}$"
       ns1:pdfconverter="pdf2svg"
       ns1:texconverter="pdflatex"
       ns1:version="0.11.0"
       transform="matrix(0.352778,0,0,0.352778,-28.912019,-20.259516)">
      <g
         id="surface1">
        <g
           id="g8546"
           style="fill:#000000;fill-opacity:1">
          <path
             id="path8544"
             transform="translate(148.712,134.765)"
             d="m 5.9375,-1.640625 c 0.046875,0.625 0.15625,1.078125 0.21875,1.265625 0.109375,0.453125 0.15625,0.671875 0.578125,0.671875 0.453125,0 1.21875,-0.453125 1.21875,-0.640625 0,-0.0625 -0.03125,-0.078125 -0.09375,-0.078125 -0.125,0 -0.328125,0.109375 -0.359375,0.125 C 7.421875,-0.25 7.40625,-0.25 7.390625,-0.25 7.109375,-0.25 7.046875,-0.515625 6.921875,-1.109375 6.859375,-1.453125 6.765625,-1.84375 6.6875,-3.203125 6.625,-4.234375 6.578125,-5.25 6.578125,-6.265625 6.578125,-6.5 6.59375,-6.765625 6.59375,-7 c 0,-0.15625 0,-0.203125 -0.109375,-0.203125 -0.140625,0 -0.546875,0.171875 -0.734375,0.4375 L 5.6875,-6.65625 c -0.796875,1.6875 -1.53125,2.890625 -2.046875,3.703125 -0.59375,0.90625 -1.625,2.53125 -2.171875,2.53125 -0.359375,0 -0.671875,-0.234375 -0.765625,-0.59375 0,-0.015625 -0.03125,-0.078125 -0.0625,-0.078125 -0.15625,0 -0.375,0.46875 -0.375,0.75 0,0.40625 0.4375,0.84375 0.90625,0.84375 C 1.859375,0.5 3,-1.296875 3.21875,-1.640625 Z M 5.734375,-5.96875 v 0.578125 c 0,0.578125 0.015625,1.15625 0.046875,1.734375 0.015625,0.203125 0.046875,0.9375 0.09375,1.46875 H 4.0625 c -0.171875,0 -0.3125,0 -0.578125,0.15625 0.703125,-1.078125 1.28125,-2.109375 1.34375,-2.21875 0.5,-0.890625 0.765625,-1.46875 0.890625,-1.71875 z m 0,0"
             style="stroke:none;stroke-width:0"
             inkscape:connector-curvature="0" />
        </g>
      </g>
    </g>
  </g>
</svg>
