<?xml version="1.0" encoding="UTF-8" standalone="no"?>
<!-- Created with Inkscape (http://www.inkscape.org/) -->

<svg
   xmlns:ns1="http://www.iki.fi/pav/software/textext/"
   xmlns:dc="http://purl.org/dc/elements/1.1/"
   xmlns:cc="http://creativecommons.org/ns#"
   xmlns:rdf="http://www.w3.org/1999/02/22-rdf-syntax-ns#"
   xmlns:svg="http://www.w3.org/2000/svg"
   xmlns="http://www.w3.org/2000/svg"
   xmlns:sodipodi="http://sodipodi.sourceforge.net/DTD/sodipodi-0.dtd"
   xmlns:inkscape="http://www.inkscape.org/namespaces/inkscape"
   sodipodi:docname="cl_2(XD) in C_0,1.svg"
   inkscape:version="0.92.4 (5da689c313, 2019-01-14)"
   id="svg3838"
   version="1.1"
   viewBox="0 0 34.577095 18.173424"
   height="18.173424mm"
   width="34.577095mm">
  <defs
     id="defs3832">
    <inkscape:path-effect
       effect="spiro"
       id="path-effect2919"
       is_visible="true" />
    <inkscape:path-effect
       effect="spiro"
       id="path-effect2915"
       is_visible="true" />
    <inkscape:path-effect
       effect="spiro"
       id="path-effect2903"
       is_visible="true" />
    <inkscape:path-effect
       effect="spiro"
       id="path-effect2826"
       is_visible="true" />
    <inkscape:path-effect
       effect="spiro"
       id="path-effect2818"
       is_visible="true" />
    <inkscape:path-effect
       effect="spiro"
       id="path-effect2814"
       is_visible="true" />
    <inkscape:path-effect
       is_visible="true"
       id="path-effect8492"
       effect="spiro" />
    <inkscape:path-effect
       effect="spiro"
       id="path-effect8488"
       is_visible="true" />
    <inkscape:path-effect
       effect="bspline"
       id="path-effect8460"
       is_visible="true"
       weight="33.333333"
       steps="2"
       helper_size="0"
       apply_no_weight="true"
       apply_with_weight="true"
       only_selected="false" />
    <inkscape:path-effect
       effect="bspline"
       id="path-effect8456"
       is_visible="true"
       weight="33.333333"
       steps="2"
       helper_size="0"
       apply_no_weight="true"
       apply_with_weight="true"
       only_selected="false" />
    <inkscape:path-effect
       effect="bspline"
       id="path-effect8440"
       is_visible="true"
       weight="33.333333"
       steps="2"
       helper_size="0"
       apply_no_weight="true"
       apply_with_weight="true"
       only_selected="false" />
  </defs>
  <sodipodi:namedview
     id="base"
     pagecolor="#ffffff"
     bordercolor="#666666"
     borderopacity="1.0"
     inkscape:pageopacity="0.0"
     inkscape:pageshadow="2"
     inkscape:zoom="7.9195959"
     inkscape:cx="39.861545"
     inkscape:cy="21.881343"
     inkscape:document-units="mm"
     inkscape:current-layer="layer1"
     showgrid="false"
     inkscape:window-width="1920"
     inkscape:window-height="1017"
     inkscape:window-x="-8"
     inkscape:window-y="-8"
     inkscape:window-maximized="1"
     fit-margin-top="0"
     fit-margin-left="0"
     fit-margin-right="0"
     fit-margin-bottom="0" />
  <metadata
     id="metadata3835">
    <rdf:RDF>
      <cc:Work
         rdf:about="">
        <dc:format>image/svg+xml</dc:format>
        <dc:type
           rdf:resource="http://purl.org/dc/dcmitype/StillImage" />
        <dc:title></dc:title>
      </cc:Work>
    </rdf:RDF>
  </metadata>
  <g
     inkscape:label="Layer 1"
     inkscape:groupmode="layer"
     id="layer1"
     transform="translate(-7.9517181,-259.04818)"
     style="display:inline">
    <ellipse
       style="fill:#ffffff;fill-opacity:1;stroke:#000000;stroke-width:0.40000001;stroke-miterlimit:4;stroke-dasharray:none;stroke-opacity:1"
       id="path8444"
       cx="25.240265"
       cy="268.13489"
       rx="17.088547"
       ry="8.8867121" />
    <path
       style="fill:none;stroke:#000000;stroke-width:0.40000001;stroke-linecap:butt;stroke-linejoin:miter;stroke-miterlimit:4;stroke-dasharray:none;stroke-opacity:1"
       d="m 18.608641,267.66717 c 1.302995,0.89093 2.605935,1.78183 4.48802,2.09362 1.882085,0.31178 4.3433,0.0445 6.019259,-0.38429 1.675959,-0.42879 2.566963,-1.01908 3.457553,-1.6091"
       id="path8454"
       inkscape:connector-curvature="0"
       inkscape:path-effect="#path-effect8456"
       inkscape:original-d="m 18.608641,267.66717 c 1.303203,0.89063 2.606142,1.78153 3.908816,2.67269 2.461264,-0.26752 4.922478,-0.5348 7.383322,-0.8018 0.891056,-0.59042 1.782061,-1.18071 2.672694,-1.77066" />
    <path
       style="fill:none;stroke:#000000;stroke-width:0.40000001;stroke-linecap:butt;stroke-linejoin:miter;stroke-miterlimit:4;stroke-dasharray:none;stroke-opacity:1"
       d="m 19.878171,268.43557 c 1.18076,-0.59038 2.3612,-1.1806 3.830913,-1.43666 1.469713,-0.25606 3.22971,-0.17808 4.565913,0.10588 1.336204,0.28395 2.249505,0.77402 3.16258,1.26396"
       id="path8458"
       inkscape:connector-curvature="0"
       inkscape:path-effect="#path-effect8460"
       inkscape:original-d="m 19.878171,268.43557 c 1.180705,-0.59049 2.361145,-1.18071 3.541321,-1.77066 1.759316,0.0777 3.519314,0.15564 5.278573,0.23386 0.913305,0.48966 1.826607,0.97972 2.739512,1.46998" />
    <path
       style="fill:none;stroke:#000000;stroke-width:0.26499999;stroke-linecap:butt;stroke-linejoin:miter;stroke-miterlimit:4;stroke-dasharray:none;stroke-opacity:1"
       d="m 20.546345,268.9367 c -1.629326,0.50232 -3.03632,1.68716 -3.808591,3.20723 -0.536139,1.05529 -0.770422,2.26185 -0.668174,3.4411"
       id="path8486"
       inkscape:connector-curvature="0"
       inkscape:path-effect="#path-effect8488"
       inkscape:original-d="m 20.546345,268.9367 c -1.269266,1.06881 -2.538796,2.13789 -3.808591,3.20723 -1.269795,1.06935 -0.445185,2.2938 -0.668174,3.4411" />
    <path
       inkscape:original-d="m 20.546345,268.9367 c -1.269266,1.06881 -2.538796,2.13789 -3.808591,3.20723 -1.269795,1.06935 -0.445185,2.2938 -0.668174,3.4411"
       inkscape:path-effect="#path-effect8492"
       inkscape:connector-curvature="0"
       id="path8490"
       d="m 20.546345,268.9367 c -1.629326,0.50232 -3.03632,1.68716 -3.808591,3.20723 -0.536139,1.05529 -0.770422,2.26185 -0.668174,3.4411"
       style="fill:none;stroke:#000000;stroke-width:0.26458332px;stroke-linecap:butt;stroke-linejoin:miter;stroke-opacity:1"
       transform="matrix(-1,0,0,1,50.99932,0)" />
    <ellipse
       ry="5.3642502"
       rx="10.315095"
       cy="266.65646"
       cx="25.504719"
       id="ellipse8501"
       style="fill:none;fill-opacity:1;stroke:#000000;stroke-width:0.1418103;stroke-miterlimit:4;stroke-dasharray:none;stroke-opacity:1" />
    <path
       inkscape:transform-center-y="-0.04025201"
       inkscape:transform-center-x="0.13844495"
       transform="rotate(162.40039,-6.9690956,141.72711)"
       d="M 8.6194391,11.071282 C 8.359108,11.232867 8.3884718,11.239739 8.226887,10.979408 8.0653022,10.719077 8.0584298,10.748441 8.3187609,10.586856 8.579092,10.425271 8.5497282,10.418399 8.711313,10.67873 c 0.1615848,0.260331 0.1684572,0.230967 -0.091874,0.392552 z"
       inkscape:randomized="0"
       inkscape:rounded="0.76"
       inkscape:flatsided="true"
       sodipodi:arg2="1.8007008"
       sodipodi:arg1="1.0153026"
       sodipodi:r2="0.20158"
       sodipodi:r1="0.28507715"
       sodipodi:cy="10.829069"
       sodipodi:cx="8.4691"
       sodipodi:sides="4"
       id="path7799"
       style="display:inline;fill:#ffffff;fill-opacity:1;stroke:none;stroke-width:0.14999999;stroke-miterlimit:4;stroke-dasharray:none;stroke-opacity:1"
       sodipodi:type="star" />
    <path
       sodipodi:type="star"
       style="display:inline;fill:#ffffff;fill-opacity:1;stroke:none;stroke-width:0.14999999;stroke-miterlimit:4;stroke-dasharray:none;stroke-opacity:1"
       id="path8518"
       sodipodi:sides="4"
       sodipodi:cx="8.4691"
       sodipodi:cy="10.829069"
       sodipodi:r1="0.28507715"
       sodipodi:r2="0.20158"
       sodipodi:arg1="1.0153026"
       sodipodi:arg2="1.8007008"
       inkscape:flatsided="true"
       inkscape:rounded="0.76"
       inkscape:randomized="0"
       d="M 8.6194391,11.071282 C 8.359108,11.232867 8.3884718,11.239739 8.226887,10.979408 8.0653022,10.719077 8.0584298,10.748441 8.3187609,10.586856 8.579092,10.425271 8.5497282,10.418399 8.711313,10.67873 c 0.1615848,0.260331 0.1684572,0.230967 -0.091874,0.392552 z"
       transform="matrix(0.95319273,0.3023634,0.3023634,-0.95319273,21.759604,278.92756)"
       inkscape:transform-center-x="-0.13844498"
       inkscape:transform-center-y="-0.040251855" />
    <ellipse
       style="fill:none;fill-opacity:1;stroke:#000000;stroke-width:0.15;stroke-miterlimit:4;stroke-dasharray:none;stroke-opacity:1"
       id="ellipse2740"
       cx="25.504719"
       cy="266.65646"
       rx="10.315095"
       ry="5.3642502" />
    <ellipse
       ry="6.6812992"
       rx="12.847686"
       cy="266.952"
       cx="25.487719"
       id="ellipse2744"
       style="fill:none;fill-opacity:1;stroke:#000000;stroke-width:0.15;stroke-miterlimit:4;stroke-dasharray:none;stroke-opacity:1" />
  </g>
  <g
     inkscape:groupmode="layer"
     id="layer5"
     inkscape:label="Layer 1.5">
    <path
       inkscape:transform-center-y="-0.7689652"
       inkscape:transform-center-x="-1.3965648"
       transform="matrix(21.717317,-3.2611809,-15.020102,-4.7152875,-3.6145917,91.424429)"
       d="M 8.6194391,11.071282 C 8.359108,11.232867 8.3884718,11.239739 8.226887,10.979408 8.0653022,10.719077 8.0584298,10.748441 8.3187609,10.586856 8.579092,10.425271 8.5497282,10.418399 8.711313,10.67873 c 0.1615848,0.260331 0.1684572,0.230967 -0.091874,0.392552 z"
       inkscape:randomized="0"
       inkscape:rounded="0.76"
       inkscape:flatsided="true"
       sodipodi:arg2="1.8007008"
       sodipodi:arg1="1.0153026"
       sodipodi:r2="0.20158"
       sodipodi:r1="0.28507715"
       sodipodi:cy="10.829069"
       sodipodi:cx="8.4691"
       sodipodi:sides="4"
       id="path8520"
       style="display:inline;fill:#ffffff;fill-opacity:1;stroke:none;stroke-width:0.14999999;stroke-miterlimit:4;stroke-dasharray:none;stroke-opacity:1"
       sodipodi:type="star" />
    <path
       sodipodi:type="star"
       style="display:inline;fill:#ffffff;fill-opacity:1;stroke:none;stroke-width:0.14999999;stroke-miterlimit:4;stroke-dasharray:none;stroke-opacity:1"
       id="path2746"
       sodipodi:sides="4"
       sodipodi:cx="8.4691"
       sodipodi:cy="10.829069"
       sodipodi:r1="0.28507715"
       sodipodi:r2="0.20158"
       sodipodi:arg1="1.0153026"
       sodipodi:arg2="1.8007008"
       inkscape:flatsided="true"
       inkscape:rounded="0.76"
       inkscape:randomized="0"
       d="M 8.6194391,11.071282 C 8.359108,11.232867 8.3884718,11.239739 8.226887,10.979408 8.0653022,10.719077 8.0584298,10.748441 8.3187609,10.586856 8.579092,10.425271 8.5497282,10.418399 8.711313,10.67873 c 0.1615848,0.260331 0.1684572,0.230967 -0.091874,0.392552 z"
       transform="matrix(24.245994,-3.2611809,-16.768982,-4.7152875,-5.9969713,92.629228)"
       inkscape:transform-center-x="-1.5591775"
       inkscape:transform-center-y="-0.7689652" />
    <path
       style="fill:none;stroke:#000000;stroke-width:0.26458332px;stroke-linecap:butt;stroke-linejoin:miter;stroke-opacity:1"
       d="m 17.284712,11.1106 c 0.403878,2.248558 0.502121,4.551807 0.291181,6.826589 -0.0063,0.06763 -0.01281,0.135244 -0.01963,0.202826"
       id="path2901"
       inkscape:connector-curvature="0"
       inkscape:path-effect="#path-effect2903"
       inkscape:original-d="m 17.284712,11.1106 c 0.09733,2.275265 0.194385,4.550795 0.291181,6.826589 0.0968,2.275794 -0.01282,0.134953 -0.01963,0.202826"
       transform="translate(0.01670494,-0.20045159)" />
  </g>
  <g
     inkscape:groupmode="layer"
     id="layer6"
     inkscape:label="Layer 2"
     style="display:inline"
     transform="translate(-7.9517181,-12.048176)">
    <circle
       style="fill:#000000;fill-opacity:1;stroke:#000000;stroke-width:0.30488545;stroke-miterlimit:4;stroke-dasharray:none;stroke-opacity:1"
       id="path8494"
       cx="18.040691"
       cy="23.381626"
       r="0.23062246" />
    <circle
       r="0.23062246"
       cy="24.868313"
       cx="16.871387"
       id="circle2731"
       style="fill:#000000;fill-opacity:1;stroke:#000000;stroke-width:0.30488545;stroke-miterlimit:4;stroke-dasharray:none;stroke-opacity:1" />
    <circle
       r="0.23062246"
       cy="23.381626"
       cx="-32.971783"
       id="circle2733"
       style="fill:#000000;fill-opacity:1;stroke:#000000;stroke-width:0.30488545;stroke-miterlimit:4;stroke-dasharray:none;stroke-opacity:1"
       transform="scale(-1,1)" />
    <circle
       style="fill:#000000;fill-opacity:1;stroke:#000000;stroke-width:0.30488545;stroke-miterlimit:4;stroke-dasharray:none;stroke-opacity:1"
       id="circle2735"
       cx="-25.671984"
       cy="26.58886"
       r="0.23062246"
       transform="scale(-1,1)" />
    <circle
       transform="scale(-1,1)"
       style="fill:#000000;fill-opacity:1;stroke:#000000;stroke-width:0.30488545;stroke-miterlimit:4;stroke-dasharray:none;stroke-opacity:1"
       id="circle2905"
       cx="-25.471531"
       cy="24.500816"
       r="0.23062246" />
    <path
       style="fill:none;stroke:#000000;stroke-width:0.15;stroke-linecap:butt;stroke-linejoin:miter;stroke-opacity:1;stroke-miterlimit:4;stroke-dasharray:none"
       d="m 25.669352,24.50471 c 0.587888,0.119204 1.202823,0.102913 1.783575,-0.04725 0.22825,-0.05902 0.453423,-0.139479 0.651493,-0.267345 0.19807,-0.127865 0.36852,-0.306261 0.458812,-0.524042 0.07296,-0.17598 0.09112,-0.374233 0.05135,-0.560541 -0.03977,-0.186308 -0.137309,-0.359861 -0.275773,-0.490706"
       id="path2913"
       inkscape:connector-curvature="0"
       inkscape:path-effect="#path-effect2915"
       inkscape:original-d="m 25.669352,24.50471 c 0.59479,-0.01601 1.189314,-0.03176 1.783575,-0.04725 0.59426,-0.01548 0.740468,-0.527856 1.110305,-0.791387 0.369837,-0.263532 -0.153288,-0.732594 -0.224424,-1.051247"
       sodipodi:nodetypes="cccc" />
    <path
       style="fill:none;stroke:#000000;stroke-width:0.15000001;stroke-linecap:butt;stroke-linejoin:miter;stroke-miterlimit:4;stroke-dasharray:none;stroke-opacity:1"
       d="m 25.952834,26.583579 c 0.571062,0.01952 1.141983,0.04314 1.712705,0.07087 0.336714,0.01636 0.680332,0.03561 0.99373,0.159811 0.156698,0.0621 0.304231,0.150647 0.423833,0.269418 0.119601,0.118771 0.210429,0.26869 0.247894,0.433029 0.04113,0.180409 0.01722,0.369579 -0.02564,0.549582 -0.04287,0.180004 -0.104432,0.355459 -0.139722,0.5371 -0.07204,0.370818 -0.03033,0.762944 0.118123,1.110305"
       id="path2917"
       inkscape:connector-curvature="0"
       inkscape:path-effect="#path-effect2919"
       inkscape:original-d="m 25.952834,26.583579 c 0.571166,0.02336 1.142068,0.04698 1.712705,0.07087 0.570637,0.02389 1.114507,0.310778 1.665457,0.862258 0.550951,0.55148 -0.169077,0.798998 -0.165367,1.086682 0.0037,0.287684 0.106573,0.984048 0.118123,1.110305"
       sodipodi:nodetypes="csscc" />
    <circle
       transform="scale(-1,1)"
       style="fill:#000000;fill-opacity:1;stroke:#000000;stroke-width:0.30488545;stroke-miterlimit:4;stroke-dasharray:none;stroke-opacity:1"
       id="circle2972"
       cx="-32.971783"
       cy="23.381626"
       r="0.23062246" />
    <circle
       r="0.23062246"
       cy="24.869907"
       cx="-34.129333"
       id="circle2974"
       style="fill:#000000;fill-opacity:1;stroke:#000000;stroke-width:0.30488545;stroke-miterlimit:4;stroke-dasharray:none;stroke-opacity:1"
       transform="scale(-1,1)" />
  </g>
  <g
     inkscape:groupmode="layer"
     id="layer7"
     inkscape:label="Layer 3"
     transform="translate(-7.9517181,-12.048176)"
     style="display:inline">
    <path
       style="fill:none;stroke:#000000;stroke-width:0.15000001;stroke-linecap:butt;stroke-linejoin:miter;stroke-miterlimit:4;stroke-dasharray:none;stroke-opacity:1"
       d="m 34.085666,24.888738 c -0.198418,0.154316 -0.459163,0.225969 -0.708575,0.194716 -0.249413,-0.03125 -0.484417,-0.165025 -0.638625,-0.363527 -0.154209,-0.198502 -0.225719,-0.459286 -0.194331,-0.708681 0.03139,-0.249396 0.165289,-0.484327 0.363875,-0.638427 0.07117,-0.05523 0.150152,-0.100359 0.233861,-0.133635"
       id="path2812"
       inkscape:connector-curvature="0"
       inkscape:path-effect="#path-effect2814"
       inkscape:original-d="m 34.085666,24.888738 c -0.389503,-0.523667 -0.787623,-0.992781 -1.177656,-1.515919 -0.390033,-0.523139 0.156172,-0.08936 0.233861,-0.133635"
       sodipodi:nodetypes="csc" />
    <g
       id="g2964"
       ns1:jacobian_sqrt="0.352778"
       inkscapeversion="0.92.4"
       ns1:alignment="middle center"
       ns1:scale="1.0"
       ns1:preamble="C:\\Users\\alexp\\AppData\\Roaming\\inkscape\\extensions\\textext\\default_packages.tex"
       ns1:text="$X$"
       ns1:pdfconverter="pdf2svg"
       ns1:texconverter="pdflatex"
       ns1:version="0.11.0"
       transform="matrix(0.352778,0,0,0.352778,-32.890169,-20.74093)">
      <g
         id="surface1">
        <g
           id="g2961"
           style="fill:#000000;fill-opacity:1">
          <path
             id="path2959"
             transform="translate(148.712,134.765)"
             d="M 4.828125,-4.09375 4,-6.078125 c -0.03125,-0.078125 -0.046875,-0.125 -0.046875,-0.125 0,-0.0625 0.15625,-0.25 0.578125,-0.296875 0.109375,-0.015625 0.203125,-0.015625 0.203125,-0.1875 0,-0.125 -0.125,-0.125 -0.15625,-0.125 -0.40625,0 -0.828125,0.03125 -1.25,0.03125 -0.25,0 -0.859375,-0.03125 -1.109375,-0.03125 -0.0625,0 -0.1875,0 -0.1875,0.203125 C 2.03125,-6.5 2.140625,-6.5 2.265625,-6.5 c 0.59375,0 0.65625,0.09375 0.75,0.3125 l 1.171875,2.78125 -2.109375,2.265625 -0.125,0.109375 C 1.46875,-0.5 1,-0.34375 0.484375,-0.3125 c -0.125,0.015625 -0.21875,0.015625 -0.21875,0.203125 0,0.015625 0,0.109375 0.140625,0.109375 0.296875,0 0.625,-0.03125 0.921875,-0.03125 C 1.703125,-0.03125 2.09375,0 2.453125,0 2.515625,0 2.625,0 2.625,-0.203125 2.625,-0.296875 2.53125,-0.3125 2.515625,-0.3125 c -0.09375,0 -0.40625,-0.03125 -0.40625,-0.3125 0,-0.15625 0.15625,-0.3125 0.265625,-0.4375 L 3.40625,-2.140625 4.296875,-3.125 l 1,2.390625 c 0.046875,0.109375 0.0625,0.109375 0.0625,0.140625 0,0.078125 -0.203125,0.25 -0.578125,0.28125 C 4.671875,-0.296875 4.578125,-0.296875 4.578125,-0.125 4.578125,0 4.6875,0 4.71875,0 5,0 5.703125,-0.03125 5.984375,-0.03125 6.234375,-0.03125 6.84375,0 7.09375,0 c 0.0625,0 0.1875,0 0.1875,-0.1875 0,-0.125 -0.109375,-0.125 -0.1875,-0.125 -0.65625,0 -0.6875,-0.03125 -0.859375,-0.4375 C 5.859375,-1.671875 5.1875,-3.234375 4.953125,-3.828125 5.625,-4.53125 6.671875,-5.71875 7,-5.984375 7.28125,-6.234375 7.671875,-6.46875 8.265625,-6.5 c 0.125,-0.015625 0.21875,-0.015625 0.21875,-0.203125 0,0 0,-0.109375 -0.125,-0.109375 -0.296875,0 -0.640625,0.03125 -0.9375,0.03125 -0.375,0 -0.75,-0.03125 -1.109375,-0.03125 -0.0625,0 -0.1875,0 -0.1875,0.203125 0,0.0625 0.046875,0.09375 0.109375,0.109375 0.09375,0.015625 0.40625,0.03125 0.40625,0.3125 0,0.140625 -0.109375,0.265625 -0.1875,0.359375 z m 0,0"
             style="stroke:none;stroke-width:0"
             inkscape:connector-curvature="0" />
        </g>
      </g>
    </g>
  </g>
</svg>
