<?xml version="1.0" encoding="UTF-8" standalone="no"?>
<!-- Created with Inkscape (http://www.inkscape.org/) -->

<svg
   xmlns:ns1="http://www.iki.fi/pav/software/textext/"
   xmlns:dc="http://purl.org/dc/elements/1.1/"
   xmlns:cc="http://creativecommons.org/ns#"
   xmlns:rdf="http://www.w3.org/1999/02/22-rdf-syntax-ns#"
   xmlns:svg="http://www.w3.org/2000/svg"
   xmlns="http://www.w3.org/2000/svg"
   xmlns:sodipodi="http://sodipodi.sourceforge.net/DTD/sodipodi-0.dtd"
   xmlns:inkscape="http://www.inkscape.org/namespaces/inkscape"
   width="34.577095mm"
   height="18.173424mm"
   viewBox="0 0 34.577095 18.173424"
   version="1.1"
   id="svg3838"
   inkscape:version="0.92.4 (5da689c313, 2019-01-14)"
   sodipodi:docname="clAtoD.svg">
  <defs
     id="defs3832">
    <inkscape:path-effect
       effect="bspline"
       id="path-effect839"
       is_visible="true"
       weight="33.333333"
       steps="2"
       helper_size="0"
       apply_no_weight="true"
       apply_with_weight="true"
       only_selected="false" />
    <inkscape:path-effect
       is_visible="true"
       id="path-effect8492"
       effect="spiro" />
    <inkscape:path-effect
       effect="spiro"
       id="path-effect8488"
       is_visible="true" />
    <inkscape:path-effect
       effect="bspline"
       id="path-effect8460"
       is_visible="true"
       weight="33.333333"
       steps="2"
       helper_size="0"
       apply_no_weight="true"
       apply_with_weight="true"
       only_selected="false" />
    <inkscape:path-effect
       effect="bspline"
       id="path-effect8456"
       is_visible="true"
       weight="33.333333"
       steps="2"
       helper_size="0"
       apply_no_weight="true"
       apply_with_weight="true"
       only_selected="false" />
    <inkscape:path-effect
       effect="bspline"
       id="path-effect8440"
       is_visible="true"
       weight="33.333333"
       steps="2"
       helper_size="0"
       apply_no_weight="true"
       apply_with_weight="true"
       only_selected="false" />
  </defs>
  <sodipodi:namedview
     id="base"
     pagecolor="#ffffff"
     bordercolor="#666666"
     borderopacity="1.0"
     inkscape:pageopacity="0.0"
     inkscape:pageshadow="2"
     inkscape:zoom="5.6"
     inkscape:cx="89.668672"
     inkscape:cy="12.028435"
     inkscape:document-units="mm"
     inkscape:current-layer="layer1"
     showgrid="false"
     inkscape:window-width="1920"
     inkscape:window-height="1017"
     inkscape:window-x="-8"
     inkscape:window-y="-8"
     inkscape:window-maximized="1"
     fit-margin-top="0"
     fit-margin-left="0"
     fit-margin-right="0"
     fit-margin-bottom="0" />
  <metadata
     id="metadata3835">
    <rdf:RDF>
      <cc:Work
         rdf:about="">
        <dc:format>image/svg+xml</dc:format>
        <dc:type
           rdf:resource="http://purl.org/dc/dcmitype/StillImage" />
        <dc:title></dc:title>
      </cc:Work>
    </rdf:RDF>
  </metadata>
  <g
     inkscape:groupmode="layer"
     id="layer2"
     inkscape:label="Layer 0">
    <path
       transform="translate(-7.9517182,-259.04818)"
       style="display:inline;fill:#969696;fill-opacity:1;stroke:#000000;stroke-width:0.26458332px;stroke-linecap:butt;stroke-linejoin:miter;stroke-opacity:1"
       d="m 16.06958,275.58503 c 1.5e-4,-0.53495 3e-4,-1.06964 0.113947,-1.66884 0.113647,-0.5992 0.34091,-1.26352 0.633601,-1.8336 0.292691,-0.57007 0.651148,-1.0467 1.034936,-1.45211 0.383788,-0.4054 0.793515,-0.74028 1.246689,-1.01066 0.453175,-0.27039 0.950719,-0.4769 1.247869,-0.56146 0.29715,-0.0846 0.394549,-0.0475 0.865853,0.0929 0.471305,0.1404 1.319059,0.38487 2.116311,0.54037 0.797252,0.1555 1.545479,0.22245 2.151768,0.21849 0.606289,-0.004 1.071041,-0.0788 1.831221,-0.23198 0.760179,-0.15318 1.817296,-0.38501 2.434571,-0.50917 0.617274,-0.12417 0.795505,-0.14088 1.062401,-0.0672 0.266897,0.0737 0.623828,0.23821 1.048274,0.51793 0.424446,0.27972 0.917385,0.67518 1.297128,1.05187 0.379742,0.37668 0.646547,0.73483 0.903966,1.19933 0.257418,0.46451 0.505434,1.03534 0.664915,1.63382 0.159481,0.59847 0.230336,1.22436 0.250096,1.57562 0.01976,0.35125 -0.01174,0.4278 -1.041523,0.69464 -1.029779,0.26684 -3.041153,0.7199 -4.887868,0.95727 -1.846714,0.23737 -3.519791,0.25707 -5.195243,0.17636 -1.675453,-0.0807 -3.352453,-0.26179 -4.649345,-0.49912 -1.296892,-0.23734 -2.213082,-0.53084 -3.129564,-0.82443"
       id="path837"
       inkscape:connector-curvature="0"
       inkscape:path-effect="#path-effect839"
       inkscape:original-d="m 16.06958,275.58503 c 4.23e-4,-0.53495 5.56e-4,-1.06964 4.5e-4,-1.60407 0.227301,-0.66392 0.454562,-1.32824 0.681446,-1.99196 0.358383,-0.47645 0.716844,-0.95308 1.07487,-1.42923 0.409484,-0.33472 0.819213,-0.66959 1.228422,-1.004 0.497107,-0.20647 0.994649,-0.41298 1.491576,-0.61907 0.09754,0.0368 0.194931,0.0739 0.291999,0.11117 0.84553,0.24348 1.693283,0.48795 2.539528,0.73233 0.748189,0.0667 1.49642,0.1336 2.244233,0.2008 0.464712,-0.075 0.929457,-0.14988 1.393788,-0.22443 1.05602,-0.23179 2.113137,-0.46362 3.169309,-0.69504 0.178393,-0.017 0.356624,-0.0337 0.534539,-0.0501 0.356051,0.16373 0.712984,0.32825 1.069078,0.49278 0.492881,0.39494 0.985822,0.7904 1.478335,1.186 0.267033,0.35784 0.533836,0.71599 0.800357,1.07437 0.248341,0.57071 0.496359,1.14154 0.744142,1.71271 0.07115,0.62589 0.142004,1.25178 0.212611,1.87807 -0.03125,0.0763 -0.06275,0.15285 -0.09452,0.22968 -2.027963,0.4566 -4.039337,0.90967 -6.059403,1.3649 -1.673323,0.0194 -3.346399,0.0391 -5.019996,0.0591 -1.677273,-0.18141 -3.354274,-0.36249 -5.031808,-0.54334 -0.916181,-0.29384 -1.832371,-0.58734 -2.748953,-0.88062" />
  </g>
  <g
     inkscape:label="Layer 1"
     inkscape:groupmode="layer"
     id="layer1"
     transform="translate(-7.9517181,-259.04818)"
     style="display:inline">
    <ellipse
       style="fill:none;fill-opacity:1;stroke:#000000;stroke-width:0.40000001;stroke-miterlimit:4;stroke-dasharray:none;stroke-opacity:1"
       id="path8444"
       cx="25.240265"
       cy="268.13489"
       rx="17.088547"
       ry="8.8867121" />
    <path
       style="fill:none;stroke:#000000;stroke-width:0.40000001;stroke-linecap:butt;stroke-linejoin:miter;stroke-miterlimit:4;stroke-dasharray:none;stroke-opacity:1"
       d="m 18.608641,267.66717 c 1.302995,0.89093 2.605935,1.78183 4.48802,2.09362 1.882085,0.31178 4.3433,0.0445 6.019259,-0.38429 1.675959,-0.42879 2.566963,-1.01908 3.457553,-1.6091"
       id="path8454"
       inkscape:connector-curvature="0"
       inkscape:path-effect="#path-effect8456"
       inkscape:original-d="m 18.608641,267.66717 c 1.303203,0.89063 2.606142,1.78153 3.908816,2.67269 2.461264,-0.26752 4.922478,-0.5348 7.383322,-0.8018 0.891056,-0.59042 1.782061,-1.18071 2.672694,-1.77066" />
    <path
       style="fill:none;stroke:#000000;stroke-width:0.40000001;stroke-linecap:butt;stroke-linejoin:miter;stroke-miterlimit:4;stroke-dasharray:none;stroke-opacity:1"
       d="m 19.878171,268.43557 c 1.18076,-0.59038 2.3612,-1.1806 3.830913,-1.43666 1.469713,-0.25606 3.22971,-0.17808 4.565913,0.10588 1.336204,0.28395 2.249505,0.77402 3.16258,1.26396"
       id="path8458"
       inkscape:connector-curvature="0"
       inkscape:path-effect="#path-effect8460"
       inkscape:original-d="m 19.878171,268.43557 c 1.180705,-0.59049 2.361145,-1.18071 3.541321,-1.77066 1.759316,0.0777 3.519314,0.15564 5.278573,0.23386 0.913305,0.48966 1.826607,0.97972 2.739512,1.46998" />
    <path
       style="fill:none;stroke:#000000;stroke-width:0.26499999;stroke-linecap:butt;stroke-linejoin:miter;stroke-miterlimit:4;stroke-dasharray:none;stroke-opacity:1"
       d="m 20.546345,268.9367 c -1.629326,0.50232 -3.03632,1.68716 -3.808591,3.20723 -0.536139,1.05529 -0.770422,2.26185 -0.668174,3.4411"
       id="path8486"
       inkscape:connector-curvature="0"
       inkscape:path-effect="#path-effect8488"
       inkscape:original-d="m 20.546345,268.9367 c -1.269266,1.06881 -2.538796,2.13789 -3.808591,3.20723 -1.269795,1.06935 -0.445185,2.2938 -0.668174,3.4411" />
    <path
       inkscape:original-d="m 20.546345,268.9367 c -1.269266,1.06881 -2.538796,2.13789 -3.808591,3.20723 -1.269795,1.06935 -0.445185,2.2938 -0.668174,3.4411"
       inkscape:path-effect="#path-effect8492"
       inkscape:connector-curvature="0"
       id="path8490"
       d="m 20.546345,268.9367 c -1.629326,0.50232 -3.03632,1.68716 -3.808591,3.20723 -0.536139,1.05529 -0.770422,2.26185 -0.668174,3.4411"
       style="fill:none;stroke:#000000;stroke-width:0.26458332px;stroke-linecap:butt;stroke-linejoin:miter;stroke-opacity:1"
       transform="matrix(-1,0,0,1,50.99932,0)" />
    <path
       id="ellipse8501"
       style="fill:none;fill-opacity:1;stroke:#000000;stroke-width:0.15000001;stroke-miterlimit:4;stroke-dasharray:none;stroke-opacity:1"
       sodipodi:type="arc"
       sodipodi:cx="25.504925"
       sodipodi:cy="267.04303"
       sodipodi:rx="10.910803"
       sodipodi:ry="5.6740408"
       sodipodi:start="2.3876104"
       sodipodi:end="0.7574729"
       d="m 17.551292,270.92718 a 10.910803,5.6740408 0 0 1 0.32882,-7.94271 10.910803,5.6740408 0 0 1 15.276822,0.0139 10.910803,5.6740408 0 0 1 0.275504,7.94326"
       sodipodi:open="true" />
  </g>
  <g
     inkscape:groupmode="layer"
     id="layer6"
     inkscape:label="Layer 2"
     style="display:inline"
     transform="translate(-7.9517181,-12.048176)">
    <circle
       transform="translate(0,-247)"
       style="fill:#000000;fill-opacity:1;stroke:#000000;stroke-width:0.30488545;stroke-miterlimit:4;stroke-dasharray:none;stroke-opacity:1"
       id="path8494"
       cx="17.506153"
       cy="270.96628"
       r="0.23062246" />
    <circle
       transform="translate(0,-247)"
       r="0.23062246"
       cy="270.96628"
       cx="33.493065"
       id="circle8496"
       style="fill:#000000;fill-opacity:1;stroke:#000000;stroke-width:0.30488545;stroke-miterlimit:4;stroke-dasharray:none;stroke-opacity:1" />
  </g>
  <g
     inkscape:groupmode="layer"
     id="layer7"
     inkscape:label="Layer 3"
     transform="translate(-7.9517181,-12.048176)"
     style="display:inline">
    <g
       id="g8549"
       ns1:jacobian_sqrt="0.352778"
       ns1:alignment="middle center"
       ns1:scale="1.0"
       ns1:preamble="C:\\Users\\alexp\\AppData\\Roaming\\inkscape\\extensions\\textext\\default_packages.tex"
       ns1:text="$\\mathcal{A}$"
       ns1:pdfconverter="pdf2svg"
       ns1:texconverter="pdflatex"
       ns1:version="0.11.0"
       transform="matrix(0.352778,0,0,0.352778,-28.912019,-20.259516)">
      <g
         id="surface1">
        <g
           id="g8546"
           style="fill:#000000;fill-opacity:1">
          <path
             id="path8544"
             transform="translate(148.712,134.765)"
             d="m 5.9375,-1.640625 c 0.046875,0.625 0.15625,1.078125 0.21875,1.265625 0.109375,0.453125 0.15625,0.671875 0.578125,0.671875 0.453125,0 1.21875,-0.453125 1.21875,-0.640625 0,-0.0625 -0.03125,-0.078125 -0.09375,-0.078125 -0.125,0 -0.328125,0.109375 -0.359375,0.125 C 7.421875,-0.25 7.40625,-0.25 7.390625,-0.25 7.109375,-0.25 7.046875,-0.515625 6.921875,-1.109375 6.859375,-1.453125 6.765625,-1.84375 6.6875,-3.203125 6.625,-4.234375 6.578125,-5.25 6.578125,-6.265625 6.578125,-6.5 6.59375,-6.765625 6.59375,-7 c 0,-0.15625 0,-0.203125 -0.109375,-0.203125 -0.140625,0 -0.546875,0.171875 -0.734375,0.4375 L 5.6875,-6.65625 c -0.796875,1.6875 -1.53125,2.890625 -2.046875,3.703125 -0.59375,0.90625 -1.625,2.53125 -2.171875,2.53125 -0.359375,0 -0.671875,-0.234375 -0.765625,-0.59375 0,-0.015625 -0.03125,-0.078125 -0.0625,-0.078125 -0.15625,0 -0.375,0.46875 -0.375,0.75 0,0.40625 0.4375,0.84375 0.90625,0.84375 C 1.859375,0.5 3,-1.296875 3.21875,-1.640625 Z M 5.734375,-5.96875 v 0.578125 c 0,0.578125 0.015625,1.15625 0.046875,1.734375 0.015625,0.203125 0.046875,0.9375 0.09375,1.46875 H 4.0625 c -0.171875,0 -0.3125,0 -0.578125,0.15625 0.703125,-1.078125 1.28125,-2.109375 1.34375,-2.21875 0.5,-0.890625 0.765625,-1.46875 0.890625,-1.71875 z m 0,0"
             style="stroke:none;stroke-width:0"
             inkscape:connector-curvature="0" />
        </g>
      </g>
    </g>
  </g>
</svg>
