<?xml version="1.0" encoding="UTF-8" standalone="no"?>
<!-- Created with Inkscape (http://www.inkscape.org/) -->

<svg
   xmlns:ns1="http://www.iki.fi/pav/software/textext/"
   xmlns:dc="http://purl.org/dc/elements/1.1/"
   xmlns:cc="http://creativecommons.org/ns#"
   xmlns:rdf="http://www.w3.org/1999/02/22-rdf-syntax-ns#"
   xmlns:svg="http://www.w3.org/2000/svg"
   xmlns="http://www.w3.org/2000/svg"
   xmlns:sodipodi="http://sodipodi.sourceforge.net/DTD/sodipodi-0.dtd"
   xmlns:inkscape="http://www.inkscape.org/namespaces/inkscape"
   width="33.813515mm"
   height="47.08947mm"
   viewBox="0 0 33.813514 47.08947"
   version="1.1"
   id="svg865"
   inkscape:version="0.92.4 (5da689c313, 2019-01-14)"
   sodipodi:docname="maybe_equal.svg">
  <defs
     id="defs859" />
  <sodipodi:namedview
     id="base"
     pagecolor="#ffffff"
     bordercolor="#666666"
     borderopacity="1.0"
     inkscape:pageopacity="0.0"
     inkscape:pageshadow="2"
     inkscape:zoom="0.35"
     inkscape:cx="-631.24647"
     inkscape:cy="66.956084"
     inkscape:document-units="mm"
     inkscape:current-layer="layer1"
     showgrid="false"
     inkscape:window-width="1920"
     inkscape:window-height="1017"
     inkscape:window-x="-8"
     inkscape:window-y="-8"
     inkscape:window-maximized="1"
     fit-margin-top="0"
     fit-margin-left="0"
     fit-margin-right="0"
     fit-margin-bottom="0" />
  <metadata
     id="metadata862">
    <rdf:RDF>
      <cc:Work
         rdf:about="">
        <dc:format>image/svg+xml</dc:format>
        <dc:type
           rdf:resource="http://purl.org/dc/dcmitype/StillImage" />
        <dc:title></dc:title>
      </cc:Work>
    </rdf:RDF>
  </metadata>
  <g
     inkscape:label="Layer 1"
     inkscape:groupmode="layer"
     id="layer1"
     transform="translate(-89.154201,-119.45933)">
    <g
       id="g1451"
       ns1:jacobian_sqrt="5.103927"
       inkscapeversion="0.92.4"
       ns1:alignment="middle center"
       ns1:scale="14.467823208"
       ns1:preamble="C:\\Users\\alexp\\AppData\\Roaming\\inkscape\\extensions\\textext\\default_packages.tex"
       ns1:text="$\\overset{?}{=}$"
       ns1:pdfconverter="pdf2svg"
       ns1:texconverter="pdflatex"
       ns1:version="0.11.0"
       transform="matrix(5.103927,0,0,5.103927,-672.73195,-522.28166)">
      <g
         id="g1449">
        <g
           id="g1443"
           style="fill:#000000;fill-opacity:1">
          <path
             id="path1441"
             transform="translate(150.708,130.641)"
             d="m 1.890625,-1.78125 c 0,-0.609375 0.40625,-1.125 0.9375,-1.453125 0.125,-0.09375 0.4375,-0.3125 0.4375,-0.734375 0,-0.359375 -0.28125,-0.9375 -1.453125,-0.9375 -0.859375,0 -1.328125,0.453125 -1.328125,0.921875 0,0.296875 0.234375,0.359375 0.34375,0.359375 0.125,0 0.328125,-0.109375 0.328125,-0.34375 0,-0.03125 0,-0.296875 -0.328125,-0.328125 0.125,-0.1875 0.4375,-0.40625 0.953125,-0.40625 0.796875,0 0.84375,0.390625 0.84375,0.703125 0,0.375 -0.140625,0.515625 -0.25,0.609375 -0.46875,0.421875 -0.71875,1.03125 -0.71875,1.578125 v 0.28125 c 0,0.140625 0,0.171875 0.109375,0.171875 0.125,0 0.125,-0.046875 0.125,-0.1875 z m 0.28125,1.390625 c 0,-0.25 -0.203125,-0.40625 -0.40625,-0.40625 -0.234375,0 -0.40625,0.1875 -0.40625,0.390625 C 1.359375,-0.15625 1.5625,0 1.765625,0 2,0 2.171875,-0.1875 2.171875,-0.390625 Z m 0,0"
             style="stroke:none;stroke-width:0"
             inkscape:connector-curvature="0" />
        </g>
        <g
           id="g1447"
           style="fill:#000000;fill-opacity:1">
          <path
             id="path1445"
             transform="translate(148.712,136.289)"
             d="m 6.84375,-3.265625 c 0.15625,0 0.34375,0 0.34375,-0.1875 C 7.1875,-3.65625 7,-3.65625 6.859375,-3.65625 h -5.96875 c -0.140625,0 -0.328125,0 -0.328125,0.203125 0,0.1875 0.1875,0.1875 0.328125,0.1875 z m 0.015625,1.9375 c 0.140625,0 0.328125,0 0.328125,-0.203125 0,-0.1875 -0.1875,-0.1875 -0.34375,-0.1875 H 0.890625 c -0.140625,0 -0.328125,0 -0.328125,0.1875 0,0.203125 0.1875,0.203125 0.328125,0.203125 z m 0,0"
             style="stroke:none;stroke-width:0"
             inkscape:connector-curvature="0" />
        </g>
      </g>
    </g>
  </g>
</svg>
