<?xml version="1.0" encoding="UTF-8" standalone="no"?>
<svg
   xmlns:dc="http://purl.org/dc/elements/1.1/"
   xmlns:cc="http://creativecommons.org/ns#"
   xmlns:rdf="http://www.w3.org/1999/02/22-rdf-syntax-ns#"
   xmlns:svg="http://www.w3.org/2000/svg"
   xmlns="http://www.w3.org/2000/svg"
   xmlns:sodipodi="http://sodipodi.sourceforge.net/DTD/sodipodi-0.dtd"
   xmlns:inkscape="http://www.inkscape.org/namespaces/inkscape"
   width="200pt"
   height="200pt"
   viewBox="0 0 200 200"
   version="1.1"
   id="svg2486"
   sodipodi:version="0.32"
   inkscape:version="0.92.4 (5da689c313, 2019-01-14)"
   sodipodi:docname="wikipedia_trefoil_circ1.svg"
   inkscape:output_extension="org.inkscape.output.svg.inkscape">
  <metadata
     id="metadata2511">
    <rdf:RDF>
      <cc:Work
         rdf:about="">
        <dc:format>image/svg+xml</dc:format>
        <dc:type
           rdf:resource="http://purl.org/dc/dcmitype/StillImage" />
        <dc:title></dc:title>
      </cc:Work>
    </rdf:RDF>
  </metadata>
  <sodipodi:namedview
     inkscape:window-height="1017"
     inkscape:window-width="1920"
     inkscape:pageshadow="2"
     inkscape:pageopacity="0.0"
     guidetolerance="10.0"
     gridtolerance="10.0"
     objecttolerance="10.0"
     borderopacity="1.0"
     bordercolor="#666666"
     pagecolor="#ffffff"
     id="base"
     showgrid="false"
     inkscape:zoom="1.848"
     inkscape:cx="64.866318"
     inkscape:cy="75.391032"
     inkscape:window-x="-8"
     inkscape:window-y="-8"
     inkscape:current-layer="svg2486"
     inkscape:window-maximized="1" />
  <defs
     id="defs2488">
    <inkscape:perspective
       sodipodi:type="inkscape:persp3d"
       inkscape:vp_x="0 : 125 : 1"
       inkscape:vp_y="0 : 1000 : 0"
       inkscape:vp_z="250 : 125 : 1"
       inkscape:persp3d-origin="125 : 83.333333 : 1"
       id="perspective2513" />
    <clipPath
       id="clip0">
      <rect
         width="200"
         height="200"
         id="rect2491"
         x="0"
         y="0" />
    </clipPath>
  </defs>
  <path
     id="path2494"
     d="M 0,0 H 200 V 200 H 0 Z"
     style="fill:none;stroke:#ffffff;stroke-width:0.1;stroke-linecap:butt;stroke-linejoin:miter;stroke-miterlimit:10"
     inkscape:connector-curvature="0" />
  <path
     id="path2498"
     d="m 93.398956,15.599747 c 14.729494,-2.823746 29.734694,4.789444 38.898434,16.089828 11.2752,13.429062 16.36232,31.051804 17.24366,48.329178 0.44296,12.925049 -2.04779,25.864807 -6.75321,37.883677 -7.27585,17.56566 -17.83165,34.24682 -32.89299,46.13654 -2.41189,-1.38191 -4.78364,-2.82819 -7.12096,-4.32898 5.64394,-4.98288 11.45321,-9.87384 16.01282,-15.92149 11.95516,-15.56272 20.77463,-34.08617 22.53252,-53.810442 1.1745,-17.527054 -2.53197,-35.93718 -12.96593,-50.337372 C 121.99464,30.754318 112.17238,23.760864 101.02997,23.004608 90.549683,22.590134 80.888657,28.52504 74.191208,36.202667 64.790009,47.182343 60.239487,61.524445 58.841461,75.728561 56.106812,76.552887 53.418549,77.522247 50.773285,78.597549 51.333511,64.577164 55.149872,50.545502 62.517639,38.553406 69.463486,27.439133 80.259369,18.11586 93.398956,15.599747 Z"
     style="fill:none;stroke:#000000;stroke-width:0.1;stroke-linecap:butt;stroke-linejoin:miter;stroke-miterlimit:10"
     inkscape:connector-curvature="0" />
  <path
     id="path2500"
     d="m 93.398956,15.599747 c 14.729494,-2.823746 29.734694,4.789444 38.898434,16.089828 11.2752,13.429062 16.36232,31.051804 17.24366,48.329178 0.44296,12.925049 -2.04779,25.864807 -6.75321,37.883677 -7.27585,17.56566 -17.83165,34.24682 -32.89299,46.13654 -2.41189,-1.38191 -4.78364,-2.82819 -7.12096,-4.32898 5.64394,-4.98288 11.45321,-9.87384 16.01282,-15.92149 11.95516,-15.56272 20.77463,-34.08617 22.53252,-53.810442 1.1745,-17.527054 -2.53197,-35.93718 -12.96593,-50.337372 C 121.99464,30.754318 112.17238,23.760864 101.02997,23.004608 90.549683,22.590134 80.888657,28.52504 74.191208,36.202667 64.790009,47.182343 60.239487,61.524445 58.841461,75.728561 56.106812,76.552887 53.418549,77.522247 50.773285,78.597549 51.333511,64.577164 55.149872,50.545502 62.517639,38.553406 69.463486,27.439133 80.259369,18.11586 93.398956,15.599747 Z"
     style="fill:#000000;fill-rule:nonzero;stroke:none"
     inkscape:connector-curvature="0" />
  <path
     id="path2502"
     d="m 52.3367,82.339767 c 16.144867,-7.219314 34.128846,-8.832366 51.61717,-8.434158 11.25527,0.08513 22.69428,0.88147 33.45687,4.397858 0.26127,2.765014 0.36412,5.5419 0.26286,8.319458 -12.1268,-3.981491 -24.98503,-4.938248 -37.67389,-4.850784 -13.249618,0.11827 -26.712936,1.211105 -39.242264,5.82312 -17.959045,6.455886 -34.325775,18.885639 -43.222686,36.015259 -3.943284,8.18234 -6.575364,17.72076 -3.871506,26.69993 2.633011,11.52973 12.746475,19.96456 23.771072,23.16627 16.697281,5.36689 34.82312,1.61474 50.537888,-5.15519 2.286407,1.90039 4.697326,3.64264 7.119629,5.36692 -13.324417,6.67654 -28.157288,10.69197 -43.128296,10.29521 C 40.064087,183.5498 27.869003,180.04552 18.58876,172.35745 8.736877,164.49789 3.54187,151.47577 4.789047,138.98613 5.909424,126.40183 12.171539,114.79196 20.289902,105.32024 29.107971,95.43083 40.128952,87.505219 52.3367,82.339767 Z"
     style="fill:none;stroke:#000000;stroke-width:0.1;stroke-linecap:butt;stroke-linejoin:miter;stroke-miterlimit:10"
     inkscape:connector-curvature="0" />
  <path
     id="path2504"
     d="m 52.3367,82.339767 c 16.144867,-7.219314 34.128846,-8.832366 51.61717,-8.434158 11.25527,0.08513 22.69428,0.88147 33.45687,4.397858 0.26127,2.765014 0.36412,5.5419 0.26286,8.319458 -12.1268,-3.981491 -24.98503,-4.938248 -37.67389,-4.850784 -13.249618,0.11827 -26.712936,1.211105 -39.242264,5.82312 -17.959045,6.455886 -34.325775,18.885639 -43.222686,36.015259 -3.943284,8.18234 -6.575364,17.72076 -3.871506,26.69993 2.633011,11.52973 12.746475,19.96456 23.771072,23.16627 16.697281,5.36689 34.82312,1.61474 50.537888,-5.15519 2.286407,1.90039 4.697326,3.64264 7.119629,5.36692 -13.324417,6.67654 -28.157288,10.69197 -43.128296,10.29521 C 40.064087,183.5498 27.869003,180.04552 18.58876,172.35745 8.736877,164.49789 3.54187,151.47577 4.789047,138.98613 5.909424,126.40183 12.171539,114.79196 20.289902,105.32024 29.107971,95.43083 40.128952,87.505219 52.3367,82.339767 Z"
     style="fill:#000000;fill-rule:nonzero;stroke:none"
     inkscape:connector-curvature="0" />
  <path
     id="path2506"
     d="m 153.62851,84.875732 c 12.34204,6.034424 23.07669,15.279798 31.06384,26.443698 6.11896,9.07265 10.70839,19.58648 10.94617,30.67312 0.31021,12.19123 -5.03078,24.40819 -14.60777,32.0615 -11.63631,9.36135 -27.33725,12.75369 -42.00449,11.13122 -15.29015,-1.2547 -30.03156,-6.97835 -42.713668,-15.50953 C 80.89061,159.35463 69.539459,143.95377 61.665115,127.33235 56.670868,117.50302 53.271851,106.88367 51.470581,96.01437 c 2.454468,-1.341625 5.000778,-2.504253 7.587402,-3.566265 2.042511,15.685775 8.368943,30.490965 16.650544,43.858915 9.775207,16.03943 24.631973,29.12305 42.272663,35.79912 11.99003,4.64861 25.20788,6.67661 37.966,4.58821 10.83162,-2.03313 21.69331,-7.59572 27.37501,-17.40445 4.9854,-8.68341 5.57909,-19.50679 2.16509,-28.85867 -5.50911,-15.87531 -17.89813,-28.74034 -32.43022,-36.794496 0.045,-2.927917 0.32817,-5.845779 0.57144,-8.761002 z"
     style="fill:none;stroke:#000000;stroke-width:0.1;stroke-linecap:butt;stroke-linejoin:miter;stroke-miterlimit:10"
     inkscape:connector-curvature="0" />
  <ellipse
     style="opacity:1;fill:none;fill-opacity:1;stroke:#ff003f;stroke-width:0.79575002;stroke-linecap:round;stroke-linejoin:bevel;stroke-miterlimit:4;stroke-dasharray:none;stroke-dashoffset:0;stroke-opacity:1;paint-order:normal"
     id="path3296"
     cx="144.48053"
     cy="85.34903"
     rx="23.944807"
     ry="26.582796" />
  <rect
     style="opacity:1;fill:#ffffff;fill-opacity:1;stroke:none;stroke-width:0.66867048;stroke-linecap:round;stroke-linejoin:bevel;stroke-miterlimit:4;stroke-dasharray:none;stroke-dashoffset:0;stroke-opacity:1;paint-order:normal"
     id="rect3312"
     width="12.86844"
     height="11.120938"
     x="173.37521"
     y="20.366549"
     transform="matrix(0.91958157,0.39289915,-0.70933737,0.70486914,0,0)" />
  <g
     inkscape:groupmode="layer"
     id="layer2"
     inkscape:label="Layer 2">
    <rect
       transform="matrix(0.93958333,0.34232027,-0.03538288,-0.99937383,0,0)"
       y="-36.621895"
       x="148.85431"
       height="11.120938"
       width="12.86844"
       id="rect3319"
       style="opacity:1;fill:#ffffff;fill-opacity:1;stroke:none;stroke-width:0.66867048;stroke-linecap:round;stroke-linejoin:bevel;stroke-miterlimit:4;stroke-dasharray:none;stroke-dashoffset:0;stroke-opacity:1;paint-order:normal" />
  </g>
  <g
     inkscape:groupmode="layer"
     id="layer1"
     inkscape:label="Layer 1">
    <path
       id="path2508"
       d="m 137.36635,78.227371 c 0.15332,0.07496 16.10223,6.502842 16.25505,6.578795 12.1491,6.038049 23.18302,15.488054 31.07095,26.513264 6.11896,9.07265 10.70839,19.58648 10.94617,30.67312 0.31021,12.19123 -5.03078,24.40819 -14.60777,32.0615 -11.63631,9.36135 -27.33725,12.75369 -42.00449,11.13122 -15.29015,-1.2547 -30.03156,-6.97835 -42.713668,-15.50953 C 80.89061,159.35463 69.539459,143.95377 61.665115,127.33235 56.670868,117.50302 53.271851,106.88367 51.470581,96.01437 c 2.454468,-1.341625 5.000778,-2.504253 7.587402,-3.566265 2.042511,15.685775 8.368943,30.490965 16.650544,43.858915 9.775207,16.03943 24.631973,29.12305 42.272663,35.79912 11.99003,4.64861 25.20788,6.67661 37.966,4.58821 10.83162,-2.03313 21.69331,-7.59572 27.37501,-17.40445 4.9854,-8.68341 5.57909,-19.50679 2.16509,-28.85867 -5.46151,-15.73814 -17.81011,-28.5178 -32.17957,-36.58465 -0.12524,-0.07031 -15.63411,-7.149581 -15.75967,-7.219171 0.045,-2.927917 -0.42497,-5.484815 -0.1817,-8.400038 z"
       style="fill:#000000;fill-rule:nonzero;stroke:none"
       inkscape:connector-curvature="0"
       sodipodi:nodetypes="cscccccccccccccscc" />
  </g>
</svg>
