<?xml version="1.0" encoding="UTF-8" standalone="no"?>
<svg
   xmlns:dc="http://purl.org/dc/elements/1.1/"
   xmlns:cc="http://creativecommons.org/ns#"
   xmlns:rdf="http://www.w3.org/1999/02/22-rdf-syntax-ns#"
   xmlns:svg="http://www.w3.org/2000/svg"
   xmlns="http://www.w3.org/2000/svg"
   xmlns:sodipodi="http://sodipodi.sourceforge.net/DTD/sodipodi-0.dtd"
   xmlns:inkscape="http://www.inkscape.org/namespaces/inkscape"
   width="200pt"
   height="200pt"
   viewBox="0 0 200 200"
   version="1.1"
   id="svg2486"
   sodipodi:version="0.32"
   inkscape:version="0.92.4 (5da689c313, 2019-01-14)"
   sodipodi:docname="wikipedia_trefoil_circ2.svg"
   inkscape:output_extension="org.inkscape.output.svg.inkscape">
  <metadata
     id="metadata2511">
    <rdf:RDF>
      <cc:Work
         rdf:about="">
        <dc:format>image/svg+xml</dc:format>
        <dc:type
           rdf:resource="http://purl.org/dc/dcmitype/StillImage" />
        <dc:title></dc:title>
      </cc:Work>
    </rdf:RDF>
  </metadata>
  <sodipodi:namedview
     inkscape:window-height="968"
     inkscape:window-width="1280"
     inkscape:pageshadow="2"
     inkscape:pageopacity="0.0"
     guidetolerance="10.0"
     gridtolerance="10.0"
     objecttolerance="10.0"
     borderopacity="1.0"
     bordercolor="#666666"
     pagecolor="#ffffff"
     id="base"
     showgrid="false"
     inkscape:zoom="1.848"
     inkscape:cx="141.44519"
     inkscape:cy="150.46351"
     inkscape:window-x="-4"
     inkscape:window-y="0"
     inkscape:current-layer="layer3"
     inkscape:window-maximized="0" />
  <defs
     id="defs2488">
    <inkscape:perspective
       sodipodi:type="inkscape:persp3d"
       inkscape:vp_x="0 : 125 : 1"
       inkscape:vp_y="0 : 1000 : 0"
       inkscape:vp_z="250 : 125 : 1"
       inkscape:persp3d-origin="125 : 83.333333 : 1"
       id="perspective2513" />
    <clipPath
       id="clip0">
      <rect
         width="200"
         height="200"
         id="rect2491" />
    </clipPath>
  </defs>
  <path
     id="path2494"
     d="M 0,0 L 200,0 L 200,200 L 0,200 L 0,0 z"
     style="fill:none;stroke:#ffffff;stroke-width:0.1;stroke-linecap:butt;stroke-linejoin:miter;stroke-miterlimit:10" />
  <path
     id="path2500"
     d="m 93.398956,15.599747 c 14.729494,-2.823746 29.734694,4.789444 38.898434,16.089828 11.2752,13.429062 13.42082,22.08383 17.3154,38.14156 0.35474,0.95774 0.71554,4.791355 4.48831,9.362359 4.29904,5.208627 12.10764,11.192715 13.16619,11.764039 2.42712,1.30997 -8.39235,1.220964 -12.63186,0.813862 -2.07389,-1.298057 -6.80149,-5.06138 -9.79576,-10.42103 -3.46711,-6.206021 -4.8806,-13.433983 -5.20209,-15.688655 C 138.34051,56.565004 135.49051,49.490946 128.3533,39.640683 121.99464,30.754318 112.17238,23.760864 101.02997,23.004608 90.549683,22.590134 80.888657,28.52504 74.191208,36.202667 64.790009,47.182343 60.239487,61.524445 58.841461,75.728561 56.106812,76.552887 53.418549,77.522247 50.773285,78.597549 51.333511,64.577164 55.149872,50.545502 62.517639,38.553406 69.463486,27.439133 80.259369,18.11586 93.398956,15.599747 Z"
     style="fill:#000000;fill-rule:nonzero;stroke:none"
     inkscape:connector-curvature="0"
     sodipodi:nodetypes="cccsscssccccccc" />
  <path
     id="path2504"
     d="m 52.3367,82.339767 c 16.144867,-7.219314 34.128846,-8.832366 51.61717,-8.434158 10.79886,0.08168 17.50614,-0.601294 27.39853,2.872655 4.12688,1.449252 6.15147,2.302973 8.03359,3.565859 3.62619,2.781168 4.17943,4.008182 6.77325,8.132247 0.12776,0.203138 1.05918,2.921655 1.34317,6.112255 0.48706,5.472035 0.26151,4.116199 -0.0867,8.365785 -0.5626,6.86505 -6.08744,-0.19942 -6.00541,-1.78842 0.3882,-2.726923 0.96175,-4.68807 -1.76056,-10.478204 -1.30607,-2.777895 -5.40922,-4.807588 -9.28908,-6.417363 -11.0636,-4.590352 -18.04704,-2.583161 -30.36091,-2.498282 -13.249618,0.11827 -26.712936,1.211105 -39.242264,5.82312 C 42.798441,94.051147 26.431711,106.4809 17.5348,123.61052 c -3.943284,8.18234 -6.575364,17.72076 -3.871506,26.69993 2.633011,11.52973 12.746475,19.96456 23.771072,23.16627 16.697281,5.36689 34.82312,1.61474 50.537888,-5.15519 2.286407,1.90039 4.697326,3.64264 7.119629,5.36692 -13.324417,6.67654 -28.157288,10.69197 -43.128296,10.29521 C 40.064087,183.5498 27.869003,180.04552 18.58876,172.35745 8.736877,164.49789 3.54187,151.47577 4.789047,138.98613 5.909424,126.40183 12.171539,114.79196 20.289902,105.32024 29.107971,95.430832 40.128952,87.505219 52.3367,82.339767 Z"
     style="fill:#000000;fill-rule:nonzero;stroke:none"
     inkscape:connector-curvature="0"
     sodipodi:nodetypes="ccscssscsscccccccccccc" />
  <path
     id="path2508"
     d="m 156.28303,83.225625 c 12.34204,6.034424 20.42217,16.929905 28.40932,28.093805 6.11896,9.07265 10.70839,19.58648 10.94617,30.67312 0.31021,12.19123 -5.03078,24.40819 -14.60777,32.0615 -11.63631,9.36135 -27.33725,12.75369 -42.00449,11.13122 -15.29015,-1.2547 -30.03156,-6.97835 -42.713668,-15.50953 C 80.89061,159.35463 69.539459,143.95377 61.665115,127.33235 56.670868,117.50302 53.271851,106.88367 51.470581,96.014374 c 2.454468,-1.341629 5.000778,-2.504257 7.587402,-3.566269 2.042511,15.685775 8.368943,30.490965 16.650544,43.858915 9.775207,16.03943 24.631973,29.12305 42.272663,35.79912 11.99003,4.64861 25.20788,6.67661 37.966,4.58821 10.83162,-2.03313 21.69331,-7.59572 27.37501,-17.40445 4.9854,-8.68341 5.57909,-19.50679 2.16509,-28.85867 -5.50911,-15.87531 -21.13543,-30.967256 -32.92807,-40.137483 0.045,-2.927917 3.48054,-4.152899 3.72381,-7.068122 z"
     style="fill:#000000;fill-rule:nonzero;stroke:none"
     inkscape:connector-curvature="0"
     sodipodi:nodetypes="cccccccccccccccc" />
  <path
     inkscape:connector-curvature="0"
     id="path2500-0"
     d="m 147.51182,102.0358 c -0.36873,3.89502 -0.0186,3.84776 -4.72399,15.86663 -7.27585,17.56566 -17.83165,34.24682 -32.89299,46.13654 -2.41189,-1.38191 -4.78364,-2.82819 -7.12095,-4.32898 5.64393,-4.98288 11.4532,-9.87384 16.01281,-15.92149 11.95516,-15.56272 22.70239,-37.63732 22.8369,-44.273099 2.08765,3.475379 4.09373,1.781179 5.88822,2.520399 z"
     style="fill:#000000;fill-rule:nonzero;stroke:none;stroke-width:1"
     sodipodi:nodetypes="ccccccc" />
  <g
     inkscape:groupmode="layer"
     id="layer3"
     inkscape:label="Layer 1">
    <ellipse
       style="opacity:1;fill:none;fill-opacity:1;stroke:#ff003f;stroke-width:0.79575003;stroke-linecap:round;stroke-linejoin:bevel;stroke-miterlimit:4;stroke-dasharray:none;stroke-dashoffset:0;stroke-opacity:1;paint-order:normal"
       id="path3296"
       cx="144.48053"
       cy="85.34903"
       rx="23.944807"
       ry="26.582796" />
  </g>
</svg>
