<?xml version="1.0" encoding="UTF-8" standalone="no"?>
<!-- Created with Inkscape (http://www.inkscape.org/) -->

<svg
   xmlns:ns1="http://www.iki.fi/pav/software/textext/"
   xmlns:dc="http://purl.org/dc/elements/1.1/"
   xmlns:cc="http://creativecommons.org/ns#"
   xmlns:rdf="http://www.w3.org/1999/02/22-rdf-syntax-ns#"
   xmlns:svg="http://www.w3.org/2000/svg"
   xmlns="http://www.w3.org/2000/svg"
   xmlns:sodipodi="http://sodipodi.sourceforge.net/DTD/sodipodi-0.dtd"
   xmlns:inkscape="http://www.inkscape.org/namespaces/inkscape"
   width="40.955856mm"
   height="40.80032mm"
   viewBox="0 0 40.955856 40.800319"
   version="1.1"
   id="svg8"
   sodipodi:docname="Wstar.svg"
   inkscape:version="0.92.4 (5da689c313, 2019-01-14)"
   style="enable-background:new">
  <defs
     id="defs2">
    <inkscape:path-effect
       effect="spiro"
       id="path-effect1064"
       is_visible="true" />
    <inkscape:path-effect
       is_visible="true"
       id="path-effect1060"
       effect="spiro" />
    <inkscape:path-effect
       effect="spiro"
       id="path-effect1056"
       is_visible="true" />
    <inkscape:path-effect
       is_visible="true"
       id="path-effect235"
       effect="spiro" />
    <inkscape:path-effect
       effect="spiro"
       id="path-effect227"
       is_visible="true" />
    <inkscape:path-effect
       effect="spiro"
       id="path-effect223"
       is_visible="true" />
    <inkscape:path-effect
       effect="spiro"
       id="path-effect215"
       is_visible="true" />
    <inkscape:path-effect
       effect="simplify"
       id="path-effect187"
       is_visible="true"
       steps="1"
       threshold="0.5"
       smooth_angles="360"
       helper_size="0"
       simplify_individual_paths="false"
       simplify_just_coalesce="false"
       simplifyindividualpaths="false"
       simplifyJustCoalesce="false" />
    <inkscape:path-effect
       effect="simplify"
       id="path-effect183"
       is_visible="true"
       steps="1"
       threshold="0.5"
       smooth_angles="360"
       helper_size="0"
       simplify_individual_paths="false"
       simplify_just_coalesce="false"
       simplifyindividualpaths="false"
       simplifyJustCoalesce="false" />
    <inkscape:path-effect
       is_visible="true"
       id="path-effect5915"
       effect="spiro" />
    <inkscape:path-effect
       effect="spiro"
       id="path-effect5680"
       is_visible="true" />
    <inkscape:path-effect
       effect="spiro"
       id="path-effect5672"
       is_visible="true" />
    <inkscape:path-effect
       effect="spiro"
       id="path-effect5668"
       is_visible="true" />
    <inkscape:path-effect
       effect="spiro"
       id="path-effect5640"
       is_visible="true" />
    <inkscape:path-effect
       effect="spiro"
       id="path-effect5589"
       is_visible="true" />
    <inkscape:path-effect
       effect="spiro"
       id="path-effect5585"
       is_visible="true" />
    <inkscape:path-effect
       effect="spiro"
       id="path-effect5565"
       is_visible="true" />
    <inkscape:path-effect
       effect="spiro"
       id="path-effect5538"
       is_visible="true" />
    <inkscape:path-effect
       effect="spiro"
       id="path-effect5534"
       is_visible="true" />
    <inkscape:path-effect
       effect="spiro"
       id="path-effect5530"
       is_visible="true" />
    <inkscape:path-effect
       effect="spiro"
       id="path-effect5514"
       is_visible="true" />
    <inkscape:path-effect
       effect="spiro"
       id="path-effect5510"
       is_visible="true" />
    <inkscape:path-effect
       effect="simplify"
       id="path-effect5464"
       is_visible="true"
       steps="1"
       threshold="0.5"
       smooth_angles="360"
       helper_size="0"
       simplify_individual_paths="false"
       simplify_just_coalesce="false"
       simplifyindividualpaths="false"
       simplifyJustCoalesce="false" />
    <inkscape:path-effect
       effect="simplify"
       id="path-effect5426"
       is_visible="true"
       steps="1"
       threshold="0.5"
       smooth_angles="360"
       helper_size="0"
       simplify_individual_paths="false"
       simplify_just_coalesce="false"
       simplifyindividualpaths="false"
       simplifyJustCoalesce="false" />
  </defs>
  <sodipodi:namedview
     id="base"
     pagecolor="#ffffff"
     bordercolor="#666666"
     borderopacity="1.0"
     inkscape:pageopacity="0.0"
     inkscape:pageshadow="2"
     inkscape:zoom="5.6"
     inkscape:cx="89.771122"
     inkscape:cy="74.132118"
     inkscape:document-units="mm"
     inkscape:current-layer="g5981"
     showgrid="false"
     inkscape:window-width="1920"
     inkscape:window-height="1017"
     inkscape:window-x="-8"
     inkscape:window-y="-8"
     inkscape:window-maximized="1"
     fit-margin-top="0"
     fit-margin-left="0"
     fit-margin-right="0"
     fit-margin-bottom="0" />
  <metadata
     id="metadata5">
    <rdf:RDF>
      <cc:Work
         rdf:about="">
        <dc:format>image/svg+xml</dc:format>
        <dc:type
           rdf:resource="http://purl.org/dc/dcmitype/StillImage" />
        <dc:title></dc:title>
      </cc:Work>
    </rdf:RDF>
  </metadata>
  <g
     inkscape:label="Annulus"
     inkscape:groupmode="layer"
     id="layer1"
     style="display:inline"
     transform="translate(0.40016109,-256.59984)">
    <g
       id="g4662"
       transform="matrix(0.49919455,0,0,0.49919455,0.03221616,148.707)">
      <ellipse
         ry="39.864536"
         rx="39.86454"
         cy="257"
         cx="40.000004"
         id="path4638"
         style="fill:none;fill-opacity:1;stroke:#000000;stroke-width:2.003227;stroke-miterlimit:4;stroke-dasharray:none;stroke-opacity:1" />
      <ellipse
         style="fill:none;fill-opacity:1;stroke:#000000;stroke-width:2.003227;stroke-miterlimit:4;stroke-dasharray:none;stroke-opacity:1"
         id="ellipse4642"
         cx="40.000004"
         cy="257.49677"
         rx="1.849278"
         ry="1.8492779" />
    </g>
    <g
       id="g4675"
       transform="matrix(0.49919455,0,0,0.49919455,0,148.73922)" />
    <a
       id="a5281" />
  </g>
  <g
     inkscape:groupmode="layer"
     id="layer4"
     inkscape:label="Annulus Shading"
     style="display:inline"
     transform="translate(0.40016109,0.4001596)" />
  <g
     inkscape:groupmode="layer"
     id="layer3"
     inkscape:label="Annulus Dots"
     style="display:inline"
     transform="translate(0.40016109,0.4001596)">
    <g
       id="g5900">
      <circle
         r="0.37797621"
         cy="20.222023"
         cx="20.891575"
         id="path5252"
         style="display:inline;fill:#000000;fill-opacity:1;stroke:#000000;stroke-width:0.30000001;stroke-miterlimit:4;stroke-dasharray:none;stroke-opacity:1" />
      <circle
         style="display:inline;fill:#000000;fill-opacity:1;stroke:#000000;stroke-width:0.30000001;stroke-miterlimit:4;stroke-dasharray:none;stroke-opacity:1"
         id="circle5286"
         cx="39.945019"
         cy="20.222023"
         r="0.37797621" />
    </g>
  </g>
  <g
     inkscape:groupmode="layer"
     id="g5983"
     inkscape:label="~W_n"
     style="display:inline"
     transform="translate(0.40016109,0.4001596)">
    <g
       id="g1054">
      <path
         sodipodi:nodetypes="ccssccsccscssc"
         inkscape:original-d="m 26.411086,15.431548 c -0.0082,-0.501438 -0.01887,-2.522962 -0.188988,-2.693081 -0.546553,-0.546553 -1.597423,0.29506 -2.00632,0.703957 -0.15749,0.15749 -0.340282,-0.011 -0.497772,0.14649 -0.08404,0.08404 -0.437039,1.878068 -0.437039,1.878068 0.05846,0.05846 0.396727,1.430392 0.331077,1.49604 -0.01392,0.01392 0.176828,0.824285 0.176828,0.948994 0,0.150598 -0.339217,0.516393 -0.413407,0.590588 -0.164825,0.164825 0.497146,1.546288 0.248051,1.795387 -0.05512,0.05512 -0.063,-0.102368 -0.118117,-0.04725 -0.05512,0.05512 -0.346479,0.133868 -0.401601,0.188988 -0.01725,0.01725 -0.848688,0.02538 -0.992187,-0.118118 -0.05023,-0.05023 -0.145619,-0.04724 -0.248047,-0.04724 -0.137971,0 -0.79871,0.205289 -0.885882,0.118118"
         inkscape:path-effect="#path-effect183"
         inkscape:connector-curvature="0"
         id="path181"
         d="M 26.411086,15.431548 C 22.582322,5.0518684 25.737068,23.819969 20.977682,20.392489"
         style="display:inline;fill:none;stroke:#000000;stroke-width:0.30000001;stroke-linecap:butt;stroke-linejoin:miter;stroke-miterlimit:4;stroke-dasharray:none;stroke-opacity:1;enable-background:new" />
      <path
         inkscape:original-d="m 33.923364,25.353422 c 0.118882,0.221006 -0.172831,0.913852 0,1.086682 0.118115,0.118117 0.212611,0.25986 0.330729,0.377975 0.06485,0.06485 1.204878,0.448768 1.41741,0.236236 0.133866,-0.133866 0.24411,-0.291357 0.377976,-0.425223 0.02363,-0.02363 -0.02363,-0.118118 0,-0.141742 0.305636,-0.305634 -0.0324,-1.526753 0.14174,-1.700892 0.16375,-0.163749 -0.04274,-1.374671 0.0945,-1.511905 0.164711,-0.164711 0.05955,-1.382468 0.188986,-1.511904 0.112101,-0.112101 0.113842,-0.322178 0.188989,-0.472471 0.04402,-0.08804 0.327658,-0.374904 0.377976,-0.425223 0.07874,-0.07874 0.251984,-0.063 0.330729,-0.141741 0.02228,-0.02227 -0.02228,-0.07222 0,-0.09449 0.336542,-0.336541 1.915309,-0.330729 2.267858,-0.330729"
         inkscape:path-effect="#path-effect187"
         inkscape:connector-curvature="0"
         id="path185"
         d="m 33.923364,25.353422 c 3.92424,6.72346 0.160473,-7.434797 5.716893,-5.055427"
         style="display:inline;fill:none;stroke:#000000;stroke-width:0.30000001;stroke-linecap:butt;stroke-linejoin:miter;stroke-miterlimit:4;stroke-dasharray:none;stroke-opacity:1;enable-background:new" />
      <path
         sodipodi:nodetypes="csssssc"
         inkscape:original-d="m 28.206472,15.431548 c -2.850305,-2.220875 -1.49138,-4.107398 -4.342215,-6.327744 -2.850835,-2.2203454 -8.875798,1.208124 -10.340721,1.712357 -1.464922,0.504233 -0.253492,7.51452 -3.5860247,9.141027 -7.2931049,3.559541 -1.1322594,5.401182 3.2456997,7.968535 4.377959,2.567353 12.303233,-0.224051 12.649447,-0.790751 0.346214,-0.566701 0.578694,-1.246348 0.625675,-1.78155"
         inkscape:path-effect="#path-effect215"
         inkscape:connector-curvature="0"
         id="path213"
         d="M 28.206472,15.431548 C 27.921121,12.78161 26.234169,10.323279 23.864257,9.103804 22.209125,8.2521304 20.26684,7.9956721 18.434301,8.3221816 c -1.83254,0.3265095 -3.549496,1.2244303 -4.910765,2.4939794 -2.467889,2.301607 -3.6965133,5.768244 -3.5860247,9.141027 0.096102,2.933618 1.1904217,5.87302 3.2456997,7.968535 1.722024,1.755736 4.139588,2.879473 6.597813,2.808 1.229112,-0.03574 2.452664,-0.366915 3.515282,-0.985654 1.062617,-0.61874 1.959977,-1.526918 2.536352,-2.613097 0.296139,-0.558073 0.507835,-1.160859 0.625675,-1.78155"
         style="display:inline;fill:none;stroke:#000000;stroke-width:0.30000001;stroke-linecap:butt;stroke-linejoin:miter;stroke-miterlimit:4;stroke-dasharray:none;stroke-opacity:1;enable-background:new" />
      <path
         sodipodi:nodetypes="csssssc"
         inkscape:original-d="M 33.923364,15.478794 C 30.789575,11.431035 19.499053,8.1394923 16.364736,4.0922619 13.230419,0.04503144 9.4309269,9.7199423 7.7140211,9.4524742 5.9971141,9.1850056 9.1857228,13.014656 4.9581557,18.474113 0.68805568,23.988497 2.741533,19.665348 7.245484,26.642424 c 4.503952,6.977076 19.469852,3.575608 24.582517,0.244172 5.112666,-3.331437 0.378241,-1.130101 0.377976,-1.553014"
         inkscape:path-effect="#path-effect223"
         inkscape:connector-curvature="0"
         id="path221"
         d="M 33.923364,15.478794 C 33.053505,11.722319 30.67941,8.3364733 27.444243,6.2385108 24.209075,4.1405483 20.149296,3.3541148 16.364736,4.0922619 12.957806,4.7567552 9.7794088,6.6626901 7.7140211,9.4524742 5.8088755,12.025814 4.893025,15.272954 4.9581557,18.474113 c 0.058112,2.856177 0.8756249,5.684721 2.2873283,8.168311 1.2794753,2.250963 3.053442,4.231278 5.204965,5.671709 2.151522,1.440432 4.682476,2.330659 7.268407,2.460468 2.585932,0.12981 5.219166,-0.513813 7.405303,-1.901148 2.186137,-1.387335 3.90449,-3.52415 4.703842,-5.986857 0.164639,-0.507234 0.291105,-1.026853 0.377976,-1.553014"
         style="display:inline;fill:none;stroke:#000000;stroke-width:0.30000001;stroke-linecap:butt;stroke-linejoin:miter;stroke-miterlimit:4;stroke-dasharray:none;stroke-opacity:1;enable-background:new" />
      <g
         style="display:inline"
         transform="translate(0,1.1761542e-4)"
         id="g5981">
        <rect
           y="15.497526"
           x="25.274759"
           height="9.7519274"
           width="9.7519274"
           id="rect5919"
           style="display:inline;fill:#969696;fill-opacity:1;stroke:#000000;stroke-width:0.44800001;stroke-miterlimit:4;stroke-dasharray:none;stroke-opacity:1" />
        <g
           id="g5967"
           transform="translate(-1.818995,-1.451894)">
          <g
             id="g5965"
             transform="translate(16.06958,25.357197)">
            <circle
               style="fill:#000000;fill-opacity:1;stroke:#000000;stroke-width:0.14999999;stroke-miterlimit:4;stroke-dasharray:none;stroke-opacity:1"
               id="circle5959"
               cx="10.95805"
               cy="6.3240395"
               r="0.13363476" />
            <circle
               r="0.13363476"
               cy="7.0999103"
               cx="11.515228"
               id="circle5961"
               style="fill:#000000;fill-opacity:1;stroke:#000000;stroke-width:0.14999999;stroke-miterlimit:4;stroke-dasharray:none;stroke-opacity:1" />
            <circle
               style="fill:#000000;fill-opacity:1;stroke:#000000;stroke-width:0.14999999;stroke-miterlimit:4;stroke-dasharray:none;stroke-opacity:1"
               id="circle5963"
               cx="12.068529"
               cy="7.8741021"
               r="0.13363476" />
          </g>
        </g>
        <g
           id="g5975"
           transform="rotate(90,18.372433,14.710303)">
          <circle
             style="fill:#000000;fill-opacity:1;stroke:#000000;stroke-width:0.14999999;stroke-miterlimit:4;stroke-dasharray:none;stroke-opacity:1"
             id="circle5969"
             cx="10.95805"
             cy="6.3240395"
             r="0.13363476" />
          <circle
             r="0.13363476"
             cy="7.0999103"
             cx="11.515228"
             id="circle5971"
             style="fill:#000000;fill-opacity:1;stroke:#000000;stroke-width:0.14999999;stroke-miterlimit:4;stroke-dasharray:none;stroke-opacity:1" />
          <circle
             style="fill:#000000;fill-opacity:1;stroke:#000000;stroke-width:0.14999999;stroke-miterlimit:4;stroke-dasharray:none;stroke-opacity:1"
             id="circle5973"
             cx="12.068529"
             cy="7.8741021"
             r="0.13363476" />
        </g>
        <circle
           r="0.37268108"
           cy="20.258883"
           cx="20.921207"
           id="path109"
           style="fill:#000000;fill-opacity:1;stroke:#000000;stroke-width:0.537;stroke-miterlimit:4;stroke-dasharray:none;stroke-opacity:1" />
        <circle
           style="fill:#000000;fill-opacity:1;stroke:#000000;stroke-width:0.537;stroke-miterlimit:4;stroke-dasharray:none;stroke-opacity:1"
           id="circle111"
           cx="39.914513"
           cy="20.258883"
           r="0.37268108" />
        <g
           id="g139">
          <circle
             r="0.33485466"
             cy="15.492981"
             cx="26.441164"
             id="circle117"
             style="fill:#000000;fill-opacity:1;stroke:#000000;stroke-width:0.21261953;stroke-miterlimit:4;stroke-dasharray:none;stroke-opacity:1" />
          <circle
             style="fill:#000000;fill-opacity:1;stroke:#000000;stroke-width:0.21261953;stroke-miterlimit:4;stroke-dasharray:none;stroke-opacity:1"
             id="circle119"
             cx="33.941166"
             cy="15.467924"
             r="0.33485466" />
          <circle
             style="fill:#000000;fill-opacity:1;stroke:#000000;stroke-width:0.21261953;stroke-miterlimit:4;stroke-dasharray:none;stroke-opacity:1"
             id="circle129"
             cx="28.191164"
             cy="15.492981"
             r="0.33485466" />
          <circle
             r="0.33485466"
             cy="15.467924"
             cx="32.191166"
             id="circle133"
             style="fill:#000000;fill-opacity:1;stroke:#000000;stroke-width:0.21261953;stroke-miterlimit:4;stroke-dasharray:none;stroke-opacity:1" />
        </g>
        <g
           transform="translate(0,9.765737)"
           id="g149">
          <circle
             style="fill:#000000;fill-opacity:1;stroke:#000000;stroke-width:0.21261953;stroke-miterlimit:4;stroke-dasharray:none;stroke-opacity:1"
             id="circle141"
             cx="26.441164"
             cy="15.492981"
             r="0.33485466" />
          <circle
             r="0.33485466"
             cy="15.467924"
             cx="33.941166"
             id="circle143"
             style="fill:#000000;fill-opacity:1;stroke:#000000;stroke-width:0.21261953;stroke-miterlimit:4;stroke-dasharray:none;stroke-opacity:1" />
          <circle
             r="0.33485466"
             cy="15.492981"
             cx="28.191164"
             id="circle145"
             style="fill:#000000;fill-opacity:1;stroke:#000000;stroke-width:0.21261953;stroke-miterlimit:4;stroke-dasharray:none;stroke-opacity:1" />
          <circle
             style="fill:#000000;fill-opacity:1;stroke:#000000;stroke-width:0.21261953;stroke-miterlimit:4;stroke-dasharray:none;stroke-opacity:1"
             id="circle147"
             cx="32.191166"
             cy="15.467924"
             r="0.33485466" />
        </g>
        <g
           id="g8317"
           ns1:jacobian_sqrt="0.371887"
           inkscapeversion="0.92.4"
           ns1:alignment="middle center"
           ns1:scale="1.05416667533"
           ns1:preamble="C:\\Users\\alexp\\AppData\\Roaming\\inkscape\\extensions\\textext\\default_packages.tex"
           ns1:text="$BMW_n$"
           ns1:pdfconverter="pdf2svg"
           ns1:texconverter="pdflatex"
           ns1:version="0.11.0"
           transform="matrix(0.21434363,0,0,0.21434363,-5.2480572,-8.1806027)">
          <g
             id="surface1">
            <g
               id="g8302"
               style="fill:#000000;fill-opacity:1">
              <path
                 id="path8300"
                 transform="translate(148.712,134.765)"
                 d="M 1.59375,-0.78125 C 1.5,-0.390625 1.46875,-0.3125 0.6875,-0.3125 c -0.171875,0 -0.265625,0 -0.265625,0.203125 C 0.421875,0 0.515625,0 0.6875,0 H 4.25 C 5.828125,0 7,-1.171875 7,-2.15625 7,-2.875 6.421875,-3.453125 5.453125,-3.5625 6.484375,-3.75 7.53125,-4.484375 7.53125,-5.4375 c 0,-0.734375 -0.65625,-1.375 -1.84375,-1.375 H 2.328125 c -0.1875,0 -0.28125,0 -0.28125,0.203125 0,0.109375 0.09375,0.109375 0.28125,0.109375 0.015625,0 0.203125,0 0.375,0.015625 0.171875,0.03125 0.265625,0.03125 0.265625,0.171875 0,0.03125 -0.015625,0.0625 -0.03125,0.1875 z m 1.5,-2.875 0.625,-2.46875 C 3.8125,-6.46875 3.828125,-6.5 4.25,-6.5 h 1.296875 c 0.875,0 1.078125,0.59375 1.078125,1.03125 0,0.875 -0.859375,1.8125 -2.0625,1.8125 z m -0.4375,3.34375 c -0.140625,0 -0.15625,0 -0.21875,0 -0.109375,-0.015625 -0.140625,-0.03125 -0.140625,-0.109375 0,-0.03125 0,-0.046875 0.0625,-0.21875 l 0.6875,-2.78125 h 1.875 c 0.953125,0 1.15625,0.734375 1.15625,1.15625 C 6.078125,-1.28125 5.1875,-0.3125 4,-0.3125 Z m 0,0"
                 style="stroke:none;stroke-width:0"
                 inkscape:connector-curvature="0" />
            </g>
            <g
               id="g8306"
               style="fill:#000000;fill-opacity:1">
              <path
                 id="path8304"
                 transform="translate(156.76676,134.765)"
                 d="M 9.234375,-6.046875 C 9.328125,-6.40625 9.34375,-6.5 10.09375,-6.5 c 0.21875,0 0.3125,0 0.3125,-0.203125 0,-0.109375 -0.09375,-0.109375 -0.265625,-0.109375 h -1.3125 c -0.265625,0 -0.28125,0 -0.390625,0.1875 L 4.796875,-0.9375 4.015625,-6.578125 C 3.984375,-6.8125 3.96875,-6.8125 3.703125,-6.8125 H 2.34375 c -0.1875,0 -0.296875,0 -0.296875,0.1875 0,0.125 0.09375,0.125 0.28125,0.125 0.140625,0 0.3125,0.015625 0.4375,0.015625 0.15625,0.03125 0.21875,0.046875 0.21875,0.171875 0,0.03125 -0.015625,0.0625 -0.046875,0.1875 l -1.265625,5.0625 c -0.09375,0.40625 -0.265625,0.71875 -1.078125,0.75 -0.046875,0 -0.171875,0.015625 -0.171875,0.1875 0,0.09375 0.0625,0.125 0.140625,0.125 0.3125,0 0.65625,-0.03125 1,-0.03125 C 1.890625,-0.03125 2.25,0 2.578125,0 c 0.046875,0 0.1875,0 0.1875,-0.203125 0,-0.109375 -0.109375,-0.109375 -0.1875,-0.109375 -0.5625,0 -0.671875,-0.203125 -0.671875,-0.4375 0,-0.0625 0,-0.125 0.03125,-0.234375 L 3.296875,-6.40625 H 3.3125 l 0.859375,6.171875 C 4.1875,-0.109375 4.203125,0 4.3125,0 4.421875,0 4.484375,-0.109375 4.53125,-0.171875 l 4.03125,-6.3125 h 0.015625 l -1.4375,5.703125 c -0.09375,0.390625 -0.109375,0.46875 -0.90625,0.46875 -0.15625,0 -0.265625,0 -0.265625,0.1875 C 5.96875,0 6.078125,0 6.109375,0 6.390625,0 7.0625,-0.03125 7.34375,-0.03125 7.75,-0.03125 8.1875,0 8.59375,0 8.65625,0 8.78125,0 8.78125,-0.203125 8.78125,-0.3125 8.6875,-0.3125 8.5,-0.3125 c -0.359375,0 -0.640625,0 -0.640625,-0.171875 0,-0.046875 0,-0.0625 0.046875,-0.25 z m 0,0"
                 style="stroke:none;stroke-width:0"
                 inkscape:connector-curvature="0" />
            </g>
            <g
               id="g8310"
               style="fill:#000000;fill-opacity:1">
              <path
                 id="path8308"
                 transform="translate(167.5174,134.765)"
                 d="m 9.140625,-5.65625 c 0.25,-0.4375 0.484375,-0.796875 1.125,-0.84375 0.07813,-0.015625 0.1875,-0.015625 0.1875,-0.203125 0,-0.03125 -0.04687,-0.109375 -0.125,-0.109375 -0.234375,0 -0.515625,0.03125 -0.765625,0.03125 -0.34375,0 -0.703125,-0.03125 -1.046875,-0.03125 -0.046875,0 -0.1875,0 -0.1875,0.1875 0,0.109375 0.09375,0.125 0.15625,0.125 0.234375,0.015625 0.59375,0.09375 0.59375,0.390625 0,0.109375 -0.0625,0.1875 -0.140625,0.328125 L 6.25,-1.09375 5.875,-6.03125 c 0,-0.203125 -0.015625,-0.453125 0.703125,-0.46875 0.171875,0 0.265625,0 0.265625,-0.203125 0,-0.09375 -0.109375,-0.109375 -0.140625,-0.109375 -0.40625,0 -0.828125,0.03125 -1.21875,0.03125 -0.234375,0 -0.8125,-0.03125 -1.046875,-0.03125 -0.0625,0 -0.1875,0 -0.1875,0.203125 C 4.25,-6.5 4.34375,-6.5 4.484375,-6.5 4.921875,-6.5 5,-6.4375 5.015625,-6.25 l 0.0625,0.765625 -2.53125,4.390625 -0.375,-5.046875 c 0,-0.125 0,-0.34375 0.765625,-0.359375 0.09375,0 0.203125,0 0.203125,-0.203125 C 3.140625,-6.8125 3.015625,-6.8125 3,-6.8125 c -0.390625,0 -0.8125,0.03125 -1.21875,0.03125 -0.359375,0 -0.71875,-0.03125 -1.046875,-0.03125 -0.0625,0 -0.1875,0 -0.1875,0.1875 0,0.125 0.09375,0.125 0.25,0.125 0.5,0 0.515625,0.09375 0.53125,0.375 l 0.453125,6.078125 c 0,0.1875 0.015625,0.265625 0.15625,0.265625 0.109375,0 0.140625,-0.0625 0.234375,-0.203125 l 2.9375,-5.09375 0.359375,5.03125 C 5.5,0.171875 5.515625,0.21875 5.625,0.21875 c 0.140625,0 0.203125,-0.09375 0.25,-0.1875 z m 0,0"
                 style="stroke:none;stroke-width:0"
                 inkscape:connector-curvature="0" />
            </g>
            <g
               id="g8314"
               style="fill:#000000;fill-opacity:1">
              <path
                 id="path8312"
                 transform="translate(176.929,136.259)"
                 d="m 0.84375,-0.4375 c -0.015625,0.09375 -0.0625,0.265625 -0.0625,0.28125 0,0.15625 0.125,0.21875 0.234375,0.21875 0.125,0 0.234375,-0.078125 0.28125,-0.140625 0.03125,-0.0625 0.078125,-0.296875 0.125,-0.4375 0.03125,-0.125 0.109375,-0.453125 0.140625,-0.625 0.046875,-0.15625 0.09375,-0.3125 0.125,-0.46875 0.078125,-0.28125 0.09375,-0.34375 0.296875,-0.625 C 2.171875,-2.515625 2.5,-2.875 3.03125,-2.875 c 0.390625,0 0.40625,0.359375 0.40625,0.484375 0,0.421875 -0.296875,1.1875 -0.40625,1.484375 -0.078125,0.203125 -0.109375,0.265625 -0.109375,0.375 0,0.375 0.296875,0.59375 0.65625,0.59375 0.703125,0 1,-0.953125 1,-1.0625 0,-0.09375 -0.078125,-0.09375 -0.109375,-0.09375 -0.09375,0 -0.09375,0.046875 -0.125,0.125 C 4.1875,-0.40625 3.875,-0.125 3.609375,-0.125 c -0.15625,0 -0.1875,-0.09375 -0.1875,-0.25 0,-0.15625 0.046875,-0.25 0.171875,-0.5625 0.078125,-0.21875 0.359375,-0.953125 0.359375,-1.34375 0,-0.671875 -0.53125,-0.796875 -0.90625,-0.796875 -0.578125,0 -0.96875,0.359375 -1.171875,0.640625 -0.046875,-0.484375 -0.453125,-0.640625 -0.75,-0.640625 -0.296875,0 -0.453125,0.21875 -0.546875,0.375 -0.15625,0.265625 -0.25,0.65625 -0.25,0.703125 0,0.078125 0.09375,0.078125 0.125,0.078125 0.09375,0 0.09375,-0.015625 0.140625,-0.203125 0.109375,-0.40625 0.25,-0.75 0.515625,-0.75 0.1875,0 0.234375,0.15625 0.234375,0.34375 0,0.125 -0.0625,0.390625 -0.125,0.578125 -0.046875,0.1875 -0.109375,0.46875 -0.140625,0.625 z m 0,0"
                 style="stroke:none;stroke-width:0"
                 inkscape:connector-curvature="0" />
            </g>
          </g>
        </g>
      </g>
      <path
         sodipodi:nodetypes="csc"
         transform="translate(-0.02362351)"
         inkscape:original-d="m 28.18285,25.294363 c 0.0042,0.405273 0.0022,0.43874 0.0059,0.844541 0.0037,0.405803 -0.255251,0.682499 -0.322451,0.962309"
         inkscape:path-effect="#path-effect1056"
         inkscape:connector-curvature="0"
         id="path1054"
         d="m 28.18285,25.294363 c 0.04415,0.279108 0.04614,0.564844 0.0059,0.844541 -0.04844,0.336674 -0.158263,0.66442 -0.322451,0.962309"
         style="fill:none;stroke:#000000;stroke-width:0.30000001;stroke-linecap:butt;stroke-linejoin:miter;stroke-miterlimit:4;stroke-dasharray:none;stroke-opacity:1" />
      <path
         sodipodi:nodetypes="ccc"
         inkscape:original-d="M 32.187036,15.443359 C 32.183336,15.147801 32.07921,14.861336 32.07498,14.56237 32.07078,14.263403 31.917754,14.050262 31.838747,13.794605"
         inkscape:path-effect="#path-effect1064"
         inkscape:connector-curvature="0"
         id="path1062"
         d="m 32.187036,15.443359 c -0.01073,-0.296238 -0.04828,-0.591498 -0.112056,-0.880989 -0.05767,-0.261783 -0.136763,-0.518844 -0.236233,-0.767765"
         style="fill:none;stroke:#000000;stroke-width:0.30000001;stroke-linecap:butt;stroke-linejoin:miter;stroke-miterlimit:4;stroke-dasharray:none;stroke-opacity:1" />
    </g>
  </g>
  <g
     transform="translate(0.40016109,0.4001596)"
     style="display:none"
     inkscape:label="W_n"
     id="g1117"
     inkscape:groupmode="layer">
    <g
       id="g1115"
       transform="matrix(1,0,0,-1,0,40.512179)">
      <path
         style="display:inline;fill:none;stroke:#000000;stroke-width:0.15000001;stroke-linecap:butt;stroke-linejoin:miter;stroke-miterlimit:4;stroke-dasharray:none;stroke-opacity:1;enable-background:new"
         d="M 26.411086,15.431548 C 22.582322,5.0518684 25.737068,23.819969 20.977682,20.392489"
         id="path1056"
         inkscape:connector-curvature="0"
         inkscape:path-effect="#path-effect183"
         inkscape:original-d="m 26.411086,15.431548 c -0.0082,-0.501438 -0.01887,-2.522962 -0.188988,-2.693081 -0.546553,-0.546553 -1.597423,0.29506 -2.00632,0.703957 -0.15749,0.15749 -0.340282,-0.011 -0.497772,0.14649 -0.08404,0.08404 -0.437039,1.878068 -0.437039,1.878068 0.05846,0.05846 0.396727,1.430392 0.331077,1.49604 -0.01392,0.01392 0.176828,0.824285 0.176828,0.948994 0,0.150598 -0.339217,0.516393 -0.413407,0.590588 -0.164825,0.164825 0.497146,1.546288 0.248051,1.795387 -0.05512,0.05512 -0.063,-0.102368 -0.118117,-0.04725 -0.05512,0.05512 -0.346479,0.133868 -0.401601,0.188988 -0.01725,0.01725 -0.848688,0.02538 -0.992187,-0.118118 -0.05023,-0.05023 -0.145619,-0.04724 -0.248047,-0.04724 -0.137971,0 -0.79871,0.205289 -0.885882,0.118118"
         sodipodi:nodetypes="ccssccsccscssc" />
      <path
         style="display:inline;fill:none;stroke:#000000;stroke-width:0.15000001;stroke-linecap:butt;stroke-linejoin:miter;stroke-miterlimit:4;stroke-dasharray:none;stroke-opacity:1;enable-background:new"
         d="m 33.923364,25.353422 c 3.92424,6.72346 0.160473,-7.434797 5.716893,-5.055427"
         id="path1058"
         inkscape:connector-curvature="0"
         inkscape:path-effect="#path-effect187"
         inkscape:original-d="m 33.923364,25.353422 c 0.118882,0.221006 -0.172831,0.913852 0,1.086682 0.118115,0.118117 0.212611,0.25986 0.330729,0.377975 0.06485,0.06485 1.204878,0.448768 1.41741,0.236236 0.133866,-0.133866 0.24411,-0.291357 0.377976,-0.425223 0.02363,-0.02363 -0.02363,-0.118118 0,-0.141742 0.305636,-0.305634 -0.0324,-1.526753 0.14174,-1.700892 0.16375,-0.163749 -0.04274,-1.374671 0.0945,-1.511905 0.164711,-0.164711 0.05955,-1.382468 0.188986,-1.511904 0.112101,-0.112101 0.113842,-0.322178 0.188989,-0.472471 0.04402,-0.08804 0.327658,-0.374904 0.377976,-0.425223 0.07874,-0.07874 0.251984,-0.063 0.330729,-0.141741 0.02228,-0.02227 -0.02228,-0.07222 0,-0.09449 0.336542,-0.336541 1.915309,-0.330729 2.267858,-0.330729" />
      <path
         style="display:inline;fill:none;stroke:#000000;stroke-width:0.15000001;stroke-linecap:butt;stroke-linejoin:miter;stroke-miterlimit:4;stroke-dasharray:none;stroke-opacity:1;enable-background:new"
         d="M 28.206472,15.431548 C 27.921121,12.78161 26.234169,10.323279 23.864257,9.103804 22.209125,8.2521304 20.26684,7.9956721 18.434301,8.3221816 c -1.83254,0.3265095 -3.549496,1.2244303 -4.910765,2.4939794 -2.467889,2.301607 -3.6965133,5.768244 -3.5860247,9.141027 0.096102,2.933618 1.1904217,5.87302 3.2456997,7.968535 1.722024,1.755736 4.139588,2.879473 6.597813,2.808 1.229112,-0.03574 2.452664,-0.366915 3.515282,-0.985654 1.062617,-0.61874 1.959977,-1.526918 2.536352,-2.613097 0.296139,-0.558073 0.507835,-1.160859 0.625675,-1.78155"
         id="path1060"
         inkscape:connector-curvature="0"
         inkscape:path-effect="#path-effect215"
         inkscape:original-d="m 28.206472,15.431548 c -2.850305,-2.220875 -1.49138,-4.107398 -4.342215,-6.327744 -2.850835,-2.2203454 -8.875798,1.208124 -10.340721,1.712357 -1.464922,0.504233 -0.253492,7.51452 -3.5860247,9.141027 -7.2931049,3.559541 -1.1322594,5.401182 3.2456997,7.968535 4.377959,2.567353 12.303233,-0.224051 12.649447,-0.790751 0.346214,-0.566701 0.578694,-1.246348 0.625675,-1.78155"
         sodipodi:nodetypes="csssssc" />
      <path
         style="display:inline;fill:none;stroke:#000000;stroke-width:0.15000001;stroke-linecap:butt;stroke-linejoin:miter;stroke-miterlimit:4;stroke-dasharray:none;stroke-opacity:1;enable-background:new"
         d="M 33.923364,15.478794 C 33.053505,11.722319 30.67941,8.3364733 27.444243,6.2385108 24.209075,4.1405483 20.149296,3.3541148 16.364736,4.0922619 12.957806,4.7567552 9.7794088,6.6626901 7.7140211,9.4524742 5.8088755,12.025814 4.893025,15.272954 4.9581557,18.474113 c 0.058112,2.856177 0.8756249,5.684721 2.2873283,8.168311 1.2794753,2.250963 3.053442,4.231278 5.204965,5.671709 2.151522,1.440432 4.682476,2.330659 7.268407,2.460468 2.585932,0.12981 5.219166,-0.513813 7.405303,-1.901148 2.186137,-1.387335 3.90449,-3.52415 4.703842,-5.986857 0.164639,-0.507234 0.291105,-1.026853 0.377976,-1.553014"
         id="path1063"
         inkscape:connector-curvature="0"
         inkscape:path-effect="#path-effect223"
         inkscape:original-d="M 33.923364,15.478794 C 30.789575,11.431035 19.499053,8.1394923 16.364736,4.0922619 13.230419,0.04503144 9.4309269,9.7199423 7.7140211,9.4524742 5.9971141,9.1850056 9.1857228,13.014656 4.9581557,18.474113 0.68805568,23.988497 2.741533,19.665348 7.245484,26.642424 c 4.503952,6.977076 19.469852,3.575608 24.582517,0.244172 5.112666,-3.331437 0.378241,-1.130101 0.377976,-1.553014"
         sodipodi:nodetypes="csssssc" />
      <g
         id="g1109"
         transform="translate(0,1.1761542e-4)"
         style="display:inline">
        <rect
           style="display:inline;fill:none;fill-opacity:1;stroke:#000000;stroke-width:0.24807291;stroke-miterlimit:4;stroke-dasharray:none;stroke-opacity:1"
           id="rect1065"
           width="9.7519274"
           height="9.7519274"
           x="25.274759"
           y="15.497526" />
        <g
           transform="translate(-1.818995,-1.451894)"
           id="g1075">
          <g
             transform="translate(16.06958,25.357197)"
             id="g1073">
            <circle
               r="0.13363476"
               cy="6.3240395"
               cx="10.95805"
               id="circle1067"
               style="fill:#000000;fill-opacity:1;stroke:#000000;stroke-width:0.14999999;stroke-miterlimit:4;stroke-dasharray:none;stroke-opacity:1" />
            <circle
               style="fill:#000000;fill-opacity:1;stroke:#000000;stroke-width:0.14999999;stroke-miterlimit:4;stroke-dasharray:none;stroke-opacity:1"
               id="circle1069"
               cx="11.515228"
               cy="7.0999103"
               r="0.13363476" />
            <circle
               r="0.13363476"
               cy="7.8741021"
               cx="12.068529"
               id="circle1071"
               style="fill:#000000;fill-opacity:1;stroke:#000000;stroke-width:0.14999999;stroke-miterlimit:4;stroke-dasharray:none;stroke-opacity:1" />
          </g>
        </g>
        <g
           transform="rotate(90,18.372433,14.710303)"
           id="g1083">
          <circle
             r="0.13363476"
             cy="6.3240395"
             cx="10.95805"
             id="circle1077"
             style="fill:#000000;fill-opacity:1;stroke:#000000;stroke-width:0.14999999;stroke-miterlimit:4;stroke-dasharray:none;stroke-opacity:1" />
          <circle
             style="fill:#000000;fill-opacity:1;stroke:#000000;stroke-width:0.14999999;stroke-miterlimit:4;stroke-dasharray:none;stroke-opacity:1"
             id="circle1079"
             cx="11.515228"
             cy="7.0999103"
             r="0.13363476" />
          <circle
             r="0.13363476"
             cy="7.8741021"
             cx="12.068529"
             id="circle1081"
             style="fill:#000000;fill-opacity:1;stroke:#000000;stroke-width:0.14999999;stroke-miterlimit:4;stroke-dasharray:none;stroke-opacity:1" />
        </g>
        <circle
           style="fill:#000000;fill-opacity:1;stroke:#000000;stroke-width:0.23663782;stroke-miterlimit:4;stroke-dasharray:none;stroke-opacity:1"
           id="circle1085"
           cx="20.921207"
           cy="20.258883"
           r="0.37268108" />
        <circle
           r="0.37268108"
           cy="20.258883"
           cx="39.914513"
           id="circle1087"
           style="fill:#000000;fill-opacity:1;stroke:#000000;stroke-width:0.23663782;stroke-miterlimit:4;stroke-dasharray:none;stroke-opacity:1" />
        <g
           id="g1097">
          <circle
             style="fill:#000000;fill-opacity:1;stroke:#000000;stroke-width:0.21261953;stroke-miterlimit:4;stroke-dasharray:none;stroke-opacity:1"
             id="circle1089"
             cx="26.441164"
             cy="15.492981"
             r="0.33485466" />
          <circle
             r="0.33485466"
             cy="15.467924"
             cx="33.941166"
             id="circle1091"
             style="fill:#000000;fill-opacity:1;stroke:#000000;stroke-width:0.21261953;stroke-miterlimit:4;stroke-dasharray:none;stroke-opacity:1" />
          <circle
             r="0.33485466"
             cy="15.492981"
             cx="28.191164"
             id="circle1093"
             style="fill:#000000;fill-opacity:1;stroke:#000000;stroke-width:0.21261953;stroke-miterlimit:4;stroke-dasharray:none;stroke-opacity:1" />
          <circle
             style="fill:#000000;fill-opacity:1;stroke:#000000;stroke-width:0.21261953;stroke-miterlimit:4;stroke-dasharray:none;stroke-opacity:1"
             id="circle1095"
             cx="32.191166"
             cy="15.467924"
             r="0.33485466" />
        </g>
        <g
           id="g1107"
           transform="translate(0,9.765737)">
          <circle
             r="0.33485466"
             cy="15.492981"
             cx="26.441164"
             id="circle1099"
             style="fill:#000000;fill-opacity:1;stroke:#000000;stroke-width:0.21261953;stroke-miterlimit:4;stroke-dasharray:none;stroke-opacity:1" />
          <circle
             style="fill:#000000;fill-opacity:1;stroke:#000000;stroke-width:0.21261953;stroke-miterlimit:4;stroke-dasharray:none;stroke-opacity:1"
             id="circle1101"
             cx="33.941166"
             cy="15.467924"
             r="0.33485466" />
          <circle
             style="fill:#000000;fill-opacity:1;stroke:#000000;stroke-width:0.21261953;stroke-miterlimit:4;stroke-dasharray:none;stroke-opacity:1"
             id="circle1103"
             cx="28.191164"
             cy="15.492981"
             r="0.33485466" />
          <circle
             r="0.33485466"
             cy="15.467924"
             cx="32.191166"
             id="circle1105"
             style="fill:#000000;fill-opacity:1;stroke:#000000;stroke-width:0.21261953;stroke-miterlimit:4;stroke-dasharray:none;stroke-opacity:1" />
        </g>
      </g>
      <path
         style="fill:none;stroke:#000000;stroke-width:0.15000001;stroke-linecap:butt;stroke-linejoin:miter;stroke-miterlimit:4;stroke-dasharray:none;stroke-opacity:1"
         d="m 28.18285,25.294363 c 0.02007,0.280999 0.02205,0.563289 0.0059,0.844541 -0.01466,0.255388 -0.04426,0.509919 -0.08859,0.761857"
         id="path1111"
         inkscape:connector-curvature="0"
         inkscape:path-effect="#path-effect1056"
         inkscape:original-d="m 28.18285,25.294363 c 0.0042,0.405273 0.0022,0.43874 0.0059,0.844541 0.0037,0.405803 -0.02139,0.482047 -0.08859,0.761857"
         transform="translate(-0.02362351)"
         sodipodi:nodetypes="csc" />
      <path
         style="fill:none;stroke:#000000;stroke-width:0.15000001;stroke-linecap:butt;stroke-linejoin:miter;stroke-miterlimit:4;stroke-dasharray:none;stroke-opacity:1"
         d="m 32.187036,15.443359 c -0.01073,-0.296238 -0.04828,-0.591498 -0.112056,-0.880989 -0.05767,-0.261783 -0.136763,-0.518844 -0.236233,-0.767765"
         id="path1113"
         inkscape:connector-curvature="0"
         inkscape:path-effect="#path-effect1064"
         inkscape:original-d="M 32.187036,15.443359 C 32.183336,15.147801 32.07921,14.861336 32.07498,14.56237 32.07078,14.263403 31.917754,14.050262 31.838747,13.794605"
         sodipodi:nodetypes="ccc" />
    </g>
  </g>
</svg>
