<?xml version="1.0" encoding="UTF-8" standalone="no"?>
<!-- Created with Inkscape (http://www.inkscape.org/) -->

<svg
   xmlns:ns0="http://NOTSET"
   xmlns:ns1="http://www.iki.fi/pav/software/textext/"
   xmlns:dc="http://purl.org/dc/elements/1.1/"
   xmlns:cc="http://creativecommons.org/ns#"
   xmlns:rdf="http://www.w3.org/1999/02/22-rdf-syntax-ns#"
   xmlns:svg="http://www.w3.org/2000/svg"
   xmlns="http://www.w3.org/2000/svg"
   xmlns:sodipodi="http://sodipodi.sourceforge.net/DTD/sodipodi-0.dtd"
   xmlns:inkscape="http://www.inkscape.org/namespaces/inkscape"
   width="27.536676mm"
   height="37.998638mm"
   viewBox="0 0 27.536676 37.998638"
   version="1.1"
   id="svg7849"
   inkscape:version="0.92.4 (5da689c313, 2019-01-14)"
   sodipodi:docname="ylambdameridianpkbranchpass.svg">
  <defs
     id="defs7843">
    <inkscape:path-effect
       effect="spiro"
       id="path-effect1172"
       is_visible="true" />
    <inkscape:path-effect
       is_visible="true"
       id="path-effect1168"
       effect="spiro" />
    <inkscape:path-effect
       effect="spiro"
       id="path-effect1164"
       is_visible="true" />
    <inkscape:path-effect
       is_visible="true"
       id="path-effect1160"
       effect="spiro" />
    <inkscape:path-effect
       effect="spiro"
       id="path-effect1156"
       is_visible="true" />
    <inkscape:path-effect
       is_visible="true"
       id="path-effect1152"
       effect="spiro" />
    <inkscape:path-effect
       effect="spiro"
       id="path-effect1148"
       is_visible="true" />
    <inkscape:path-effect
       effect="spiro"
       id="path-effect904"
       is_visible="true" />
    <inkscape:path-effect
       is_visible="true"
       id="path-effect900"
       effect="spiro" />
    <inkscape:path-effect
       effect="spiro"
       id="path-effect896"
       is_visible="true" />
    <inkscape:path-effect
       is_visible="true"
       id="path-effect892"
       effect="spiro" />
    <inkscape:path-effect
       effect="spiro"
       id="path-effect888"
       is_visible="true" />
    <inkscape:path-effect
       effect="bspline"
       id="path-effect3182"
       is_visible="true"
       weight="33.333333"
       steps="2"
       helper_size="0"
       apply_no_weight="true"
       apply_with_weight="true"
       only_selected="false" />
    <inkscape:path-effect
       effect="bspline"
       id="path-effect3178"
       is_visible="true"
       weight="33.333333"
       steps="2"
       helper_size="0"
       apply_no_weight="true"
       apply_with_weight="true"
       only_selected="false" />
    <inkscape:path-effect
       effect="bspline"
       id="path-effect3174"
       is_visible="true"
       weight="33.333333"
       steps="2"
       helper_size="0"
       apply_no_weight="true"
       apply_with_weight="true"
       only_selected="false" />
    <inkscape:path-effect
       effect="bspline"
       id="path-effect3170"
       is_visible="true"
       weight="33.333333"
       steps="2"
       helper_size="0"
       apply_no_weight="true"
       apply_with_weight="true"
       only_selected="false" />
    <inkscape:path-effect
       is_visible="true"
       id="path-effect3166"
       effect="spiro" />
    <inkscape:path-effect
       effect="spiro"
       id="path-effect3162"
       is_visible="true" />
    <inkscape:path-effect
       is_visible="true"
       id="path-effect3158"
       effect="spiro" />
    <inkscape:path-effect
       effect="spiro"
       id="path-effect3154"
       is_visible="true" />
    <inkscape:path-effect
       is_visible="true"
       id="path-effect3150"
       effect="spiro" />
    <inkscape:path-effect
       effect="bspline"
       id="path-effect3146"
       is_visible="true"
       weight="33.333333"
       steps="2"
       helper_size="0"
       apply_no_weight="true"
       apply_with_weight="true"
       only_selected="false" />
    <inkscape:path-effect
       effect="spiro"
       id="path-effect9147"
       is_visible="true" />
    <inkscape:path-effect
       is_visible="true"
       id="path-effect9143"
       effect="spiro" />
    <inkscape:path-effect
       effect="spiro"
       id="path-effect9135"
       is_visible="true" />
    <inkscape:path-effect
       is_visible="true"
       id="path-effect9131"
       effect="spiro" />
    <inkscape:path-effect
       effect="spiro"
       id="path-effect9127"
       is_visible="true" />
  </defs>
  <sodipodi:namedview
     id="base"
     pagecolor="#ffffff"
     bordercolor="#666666"
     borderopacity="1.0"
     inkscape:pageopacity="0.0"
     inkscape:pageshadow="2"
     inkscape:zoom="3.959798"
     inkscape:cx="4.4197368"
     inkscape:cy="83.314006"
     inkscape:document-units="mm"
     inkscape:current-layer="layer1"
     showgrid="false"
     inkscape:window-width="1920"
     inkscape:window-height="1017"
     inkscape:window-x="-8"
     inkscape:window-y="-8"
     inkscape:window-maximized="1"
     fit-margin-top="0"
     fit-margin-left="0"
     fit-margin-right="0"
     fit-margin-bottom="0"
     showguides="false" />
  <metadata
     id="metadata7846">
    <rdf:RDF>
      <cc:Work
         rdf:about="">
        <dc:format>image/svg+xml</dc:format>
        <dc:type
           rdf:resource="http://purl.org/dc/dcmitype/StillImage" />
        <dc:title></dc:title>
      </cc:Work>
    </rdf:RDF>
  </metadata>
  <g
     inkscape:label="Layer 1"
     inkscape:groupmode="layer"
     id="layer1"
     transform="translate(-1.1893949,-258.53636)"
     style="display:inline">
    <rect
       transform="scale(1,-1)"
       style="display:inline;fill:none;fill-opacity:1;stroke:#000000;stroke-width:0.6831103;stroke-miterlimit:4;stroke-dasharray:none;stroke-opacity:1;enable-background:new"
       id="rect1065"
       width="26.853565"
       height="35.513"
       x="1.5309501"
       y="-295.33069" />
    <g
       style="display:inline;enable-background:new"
       id="g1107"
       transform="matrix(2.7536675,0,0,-2.7536675,-68.067333,311.11408)">
      <g
         id="g9092"
         transform="translate(0,3.1595609)">
        <circle
           style="fill:#000000;fill-opacity:1;stroke:#000000;stroke-width:0.21261953;stroke-miterlimit:4;stroke-dasharray:none;stroke-opacity:1"
           id="circle1099"
           cx="26.259581"
           cy="15.492981"
           r="0.33485466" />
        <circle
           r="0.33485466"
           cy="15.467924"
           cx="34.122913"
           id="circle1101"
           style="fill:#000000;fill-opacity:1;stroke:#000000;stroke-width:0.21261953;stroke-miterlimit:4;stroke-dasharray:none;stroke-opacity:1" />
        <circle
           r="0.33485466"
           cy="15.492981"
           cx="27.828033"
           id="circle1103"
           style="fill:#000000;fill-opacity:1;stroke:#000000;stroke-width:0.21261953;stroke-miterlimit:4;stroke-dasharray:none;stroke-opacity:1" />
        <circle
           style="fill:#000000;fill-opacity:1;stroke:#000000;stroke-width:0.21261953;stroke-miterlimit:4;stroke-dasharray:none;stroke-opacity:1"
           id="circle9085"
           cx="29.396488"
           cy="15.492981"
           r="0.33485466" />
      </g>
    </g>
    <g
       transform="matrix(2.7536675,0,0,-2.7536675,-68.067333,337.9137)"
       id="g9106"
       style="display:inline;enable-background:new">
      <g
         id="g9104">
        <circle
           r="0.33485466"
           cy="15.492981"
           cx="26.259581"
           id="circle9094"
           style="fill:#000000;fill-opacity:1;stroke:#000000;stroke-width:0.21261953;stroke-miterlimit:4;stroke-dasharray:none;stroke-opacity:1" />
        <circle
           style="fill:#000000;fill-opacity:1;stroke:#000000;stroke-width:0.21261953;stroke-miterlimit:4;stroke-dasharray:none;stroke-opacity:1"
           id="circle9096"
           cx="34.122913"
           cy="15.467924"
           r="0.33485466" />
        <circle
           style="fill:#000000;fill-opacity:1;stroke:#000000;stroke-width:0.21261953;stroke-miterlimit:4;stroke-dasharray:none;stroke-opacity:1"
           id="circle9098"
           cx="27.828033"
           cy="15.492981"
           r="0.33485466" />
        <circle
           r="0.33485466"
           cy="15.492981"
           cx="29.396488"
           id="circle9102"
           style="fill:#000000;fill-opacity:1;stroke:#000000;stroke-width:0.21261953;stroke-miterlimit:4;stroke-dasharray:none;stroke-opacity:1" />
      </g>
    </g>
    <path
       style="fill:none;stroke:#000000;stroke-width:0.26458332px;stroke-linecap:butt;stroke-linejoin:miter;stroke-opacity:1"
       d="m 4.2404204,295.2932 0.00591,-26.84221"
       id="path9125"
       inkscape:connector-curvature="0"
       inkscape:path-effect="#path-effect9127"
       inkscape:original-d="m 4.2404204,295.2932 c 0.00222,-8.94767 0.0042,-17.89507 0.00591,-26.84221"
       transform="matrix(0.99623953,0,0,0.16342459,0.01427802,247.03522)" />
    <path
       inkscape:original-d="m 4.2404204,295.2932 c 0.00222,-8.94767 0.0042,-17.89507 0.00591,-26.84221"
       inkscape:path-effect="#path-effect9131"
       inkscape:connector-curvature="0"
       id="path9129"
       d="m 4.2404204,295.2932 0.00591,-26.84221"
       style="fill:none;stroke:#000000;stroke-width:0.26458332px;stroke-linecap:butt;stroke-linejoin:miter;stroke-opacity:1"
       transform="matrix(0.99638998,0,0,0.15926431,4.3141781,248.26371)" />
    <path
       transform="matrix(0.99644968,0,0,0.15762194,8.6145921,248.74868)"
       style="fill:none;stroke:#000000;stroke-width:0.26458332px;stroke-linecap:butt;stroke-linejoin:miter;stroke-opacity:1"
       d="m 4.2404204,295.2932 0.00591,-26.84221"
       id="path9133"
       inkscape:connector-curvature="0"
       inkscape:path-effect="#path-effect9135"
       inkscape:original-d="m 4.2404204,295.2932 c 0.00222,-8.94767 0.0042,-17.89507 0.00591,-26.84221" />
    <path
       transform="matrix(0.9961882,0,0,0.16484765,21.659725,246.615)"
       style="fill:none;stroke:#000000;stroke-width:0.26458332px;stroke-linecap:butt;stroke-linejoin:miter;stroke-opacity:1"
       d="m 4.2404204,295.2932 0.00591,-26.84221"
       id="path9145"
       inkscape:connector-curvature="0"
       inkscape:path-effect="#path-effect9147"
       inkscape:original-d="m 4.2404204,295.2932 c 0.00222,-8.94767 0.0042,-17.89507 0.00591,-26.84221" />
    <g
       id="g9162"
       transform="translate(3.4675666,-9.4660307)">
      <path
         style="fill:#000000;fill-opacity:1;stroke:#000000;stroke-width:0.14999999;stroke-miterlimit:4;stroke-dasharray:none;stroke-opacity:1"
         id="path9151"
         sodipodi:type="arc"
         sodipodi:cx="14.733232"
         sodipodi:cy="271.70963"
         sodipodi:rx="0.23386084"
         sodipodi:ry="0.23386084"
         sodipodi:start="0.85362483"
         sodipodi:end="0.84871696"
         sodipodi:open="true"
         d="m 14.886938,271.88588 a 0.23386084,0.23386084 0 0 1 -0.329771,-0.0223 0.23386084,0.23386084 0 0 1 0.02193,-0.3298 0.23386084,0.23386084 0 0 1 0.329825,0.0215 0.23386084,0.23386084 0 0 1 -0.02112,0.32985" />
      <path
         d="m 15.98711,271.88588 a 0.23386084,0.23386084 0 0 1 -0.329771,-0.0223 0.23386084,0.23386084 0 0 1 0.02193,-0.3298 0.23386084,0.23386084 0 0 1 0.329825,0.0215 0.23386084,0.23386084 0 0 1 -0.02112,0.32985"
         sodipodi:open="true"
         sodipodi:end="0.84871696"
         sodipodi:start="0.85362483"
         sodipodi:ry="0.23386084"
         sodipodi:rx="0.23386084"
         sodipodi:cy="271.70963"
         sodipodi:cx="15.833404"
         sodipodi:type="arc"
         id="path9155"
         style="fill:#000000;fill-opacity:1;stroke:#000000;stroke-width:0.14999999;stroke-miterlimit:4;stroke-dasharray:none;stroke-opacity:1" />
      <path
         style="fill:#000000;fill-opacity:1;stroke:#000000;stroke-width:0.14999999;stroke-miterlimit:4;stroke-dasharray:none;stroke-opacity:1"
         id="path9157"
         sodipodi:type="arc"
         sodipodi:cx="16.933403"
         sodipodi:cy="271.70963"
         sodipodi:rx="0.23386084"
         sodipodi:ry="0.23386084"
         sodipodi:start="0.85362483"
         sodipodi:end="0.84871696"
         sodipodi:open="true"
         d="m 17.087109,271.88588 a 0.23386084,0.23386084 0 0 1 -0.329771,-0.0223 0.23386084,0.23386084 0 0 1 0.02193,-0.3298 0.23386084,0.23386084 0 0 1 0.329824,0.0215 0.23386084,0.23386084 0 0 1 -0.02112,0.32985" />
    </g>
    <g
       transform="translate(3.4675666,20.833969)"
       id="g9170">
      <path
         d="m 14.886938,271.88588 a 0.23386084,0.23386084 0 0 1 -0.329771,-0.0223 0.23386084,0.23386084 0 0 1 0.02193,-0.3298 0.23386084,0.23386084 0 0 1 0.329825,0.0215 0.23386084,0.23386084 0 0 1 -0.02112,0.32985"
         sodipodi:open="true"
         sodipodi:end="0.84871696"
         sodipodi:start="0.85362483"
         sodipodi:ry="0.23386084"
         sodipodi:rx="0.23386084"
         sodipodi:cy="271.70963"
         sodipodi:cx="14.733232"
         sodipodi:type="arc"
         id="path9164"
         style="fill:#000000;fill-opacity:1;stroke:#000000;stroke-width:0.14999999;stroke-miterlimit:4;stroke-dasharray:none;stroke-opacity:1" />
      <path
         style="fill:#000000;fill-opacity:1;stroke:#000000;stroke-width:0.14999999;stroke-miterlimit:4;stroke-dasharray:none;stroke-opacity:1"
         id="path9166"
         sodipodi:type="arc"
         sodipodi:cx="15.833404"
         sodipodi:cy="271.70963"
         sodipodi:rx="0.23386084"
         sodipodi:ry="0.23386084"
         sodipodi:start="0.85362483"
         sodipodi:end="0.84871696"
         sodipodi:open="true"
         d="m 15.98711,271.88588 a 0.23386084,0.23386084 0 0 1 -0.329771,-0.0223 0.23386084,0.23386084 0 0 1 0.02193,-0.3298 0.23386084,0.23386084 0 0 1 0.329825,0.0215 0.23386084,0.23386084 0 0 1 -0.02112,0.32985" />
      <path
         d="m 17.087109,271.88588 a 0.23386084,0.23386084 0 0 1 -0.329771,-0.0223 0.23386084,0.23386084 0 0 1 0.02193,-0.3298 0.23386084,0.23386084 0 0 1 0.329824,0.0215 0.23386084,0.23386084 0 0 1 -0.02112,0.32985"
         sodipodi:open="true"
         sodipodi:end="0.84871696"
         sodipodi:start="0.85362483"
         sodipodi:ry="0.23386084"
         sodipodi:rx="0.23386084"
         sodipodi:cy="271.70963"
         sodipodi:cx="16.933403"
         sodipodi:type="arc"
         id="path9168"
         style="fill:#000000;fill-opacity:1;stroke:#000000;stroke-width:0.14999999;stroke-miterlimit:4;stroke-dasharray:none;stroke-opacity:1" />
    </g>
    <path
       style="fill:none;stroke:#000000;stroke-width:0.26458332px;stroke-linecap:butt;stroke-linejoin:miter;stroke-opacity:1"
       d="m 3.4808755,274.3289 c -0.3068163,0.20454 -0.6133466,0.40889 -0.7909833,0.74018 -0.1776367,0.33129 -0.2247986,0.78719 0.00701,1.0976 0.2318072,0.3104 0.7420655,0.47402 2.8545238,0.66124 2.1124584,0.18722 5.8268334,0.39802 7.9180434,0.0454 2.091209,-0.35265 2.559357,-1.26843 2.593958,-1.9118 0.0346,-0.64337 -0.364148,-1.01463 -0.856945,-1.19838 -0.492798,-0.18375 -1.079701,-0.17992 -1.666942,-0.17608"
       id="path3144"
       inkscape:connector-curvature="0"
       inkscape:path-effect="#path-effect3146"
       inkscape:original-d="m 3.4808755,274.3289 c -0.3068566,0.20448 -0.6133867,0.40883 -0.9213169,0.6142 -0.047069,0.45729 -0.09423,0.91319 -0.1417411,1.37017 0.5109914,0.1635 1.0212502,0.32711 1.531475,0.49106 3.7146064,0.21053 7.4289815,0.42133 11.1430755,0.63239 0.468412,-0.91604 0.936558,-1.83182 1.404442,-2.74733 -0.398526,-0.37156 -0.797277,-0.74281 -1.196368,-1.11387 -0.586758,0.004 -1.173666,0.007 -1.760903,0.0115"
       sodipodi:nodetypes="cccccccc" />
    <path
       transform="matrix(0.99616683,0,0,0.20244108,0.01537624,216.37681)"
       inkscape:original-d="m 4.2404204,295.2932 c 0.00222,-8.94767 0.0042,-17.89507 0.00591,-26.84221"
       inkscape:path-effect="#path-effect3150"
       inkscape:connector-curvature="0"
       id="path3148"
       d="m 4.2404204,295.2932 0.00591,-26.84221"
       style="fill:none;stroke:#000000;stroke-width:0.26458332px;stroke-linecap:butt;stroke-linejoin:miter;stroke-opacity:1" />
    <path
       transform="matrix(0.99631727,0,0,0.203275,4.3149625,216.29127)"
       style="fill:none;stroke:#000000;stroke-width:0.26458332px;stroke-linecap:butt;stroke-linejoin:miter;stroke-opacity:1"
       d="m 4.2404204,295.2932 0.00591,-26.84221"
       id="path3152"
       inkscape:connector-curvature="0"
       inkscape:path-effect="#path-effect3154"
       inkscape:original-d="m 4.2404204,295.2932 c 0.00222,-8.94767 0.0042,-17.89507 0.00591,-26.84221" />
    <path
       inkscape:original-d="m 4.2404204,295.2932 c 0.00222,-8.94767 0.0042,-17.89507 0.00591,-26.84221"
       inkscape:path-effect="#path-effect3158"
       inkscape:connector-curvature="0"
       id="path3156"
       d="m 4.2404204,295.2932 0.00591,-26.84221"
       style="fill:none;stroke:#000000;stroke-width:0.26458332px;stroke-linecap:butt;stroke-linejoin:miter;stroke-opacity:1"
       transform="matrix(0.99625737,0,0,0.20971092,8.6155702,214.41766)" />
    <path
       style="fill:none;stroke:#000000;stroke-width:0.26458332px;stroke-linecap:butt;stroke-linejoin:miter;stroke-opacity:1"
       d="m 5.0636508,273.80918 c 0.2090051,-0.0749 0.417668,-0.14973 0.8861736,-0.18511 0.4685056,-0.0354 1.1968955,-0.0314 1.9250242,-0.0275"
       id="path3168"
       inkscape:connector-curvature="0"
       inkscape:path-effect="#path-effect3170"
       inkscape:original-d="m 5.0636508,273.80918 c 0.2089425,-0.0751 0.4176134,-0.14988 0.6260231,-0.22442 0.7286557,0.004 1.4570453,0.008 2.1851747,0.0118"
       sodipodi:nodetypes="ccc" />
    <path
       style="fill:none;stroke:#000000;stroke-width:0.26458332px;stroke-linecap:butt;stroke-linejoin:miter;stroke-opacity:1"
       d="m 9.0324007,273.66744 c 1.0711973,0 2.1421293,0 3.2127973,0"
       id="path3172"
       inkscape:connector-curvature="0"
       inkscape:path-effect="#path-effect3174"
       inkscape:original-d="m 9.0324007,273.66744 c 1.0711973,-2.7e-4 2.1421293,-2.7e-4 3.2127973,0"
       transform="translate(-0.00590588,-0.07060404)" />
    <g
       id="g3325"
       ns1:jacobian_sqrt="0.371886"
       inkscapeversion="0.92.4"
       ns1:alignment="middle center"
       ns1:scale="1.05416667533"
       ns1:preamble="C:\\Users\\alexp\\AppData\\Roaming\\inkscape\\extensions\\textext\\default_packages.tex"
       ns1:text="$\\tilde{P}_k$"
       ns1:pdfconverter="pdf2svg"
       ns1:texconverter="pdflatex"
       ns1:version="0.11.0"
       transform="matrix(0.34175226,0,0,0.34175226,-34.882434,231.26875)">
      <g
         id="surface1">
        <g
           id="g3314"
           style="fill:#000000;fill-opacity:1">
          <path
             id="path3312"
             transform="translate(150.942,132.246)"
             d="M 4.140625,-6.515625 3.984375,-6.65625 c 0,0 -0.375,0.46875 -0.8125,0.46875 -0.234375,0 -0.484375,-0.140625 -0.65625,-0.25 C 2.25,-6.59375 2.078125,-6.65625 1.90625,-6.65625 c -0.375,0 -0.578125,0.21875 -1.078125,0.78125 l 0.15625,0.140625 c 0,0 0.375,-0.46875 0.8125,-0.46875 0.234375,0 0.484375,0.140625 0.65625,0.234375 0.265625,0.171875 0.453125,0.234375 0.625,0.234375 0.375,0 0.5625,-0.21875 1.0625,-0.78125 z m 0,0"
             style="stroke:none;stroke-width:0"
             inkscape:connector-curvature="0" />
        </g>
        <g
           id="g3318"
           style="fill:#000000;fill-opacity:1">
          <path
             id="path3316"
             transform="translate(148.712,134.765)"
             d="M 3.015625,-3.15625 H 4.71875 c 1.40625,0 2.796875,-1.03125 2.796875,-2.140625 0,-0.78125 -0.65625,-1.515625 -1.96875,-1.515625 h -3.21875 c -0.1875,0 -0.296875,0 -0.296875,0.1875 0,0.125 0.078125,0.125 0.28125,0.125 0.125,0 0.3125,0.015625 0.421875,0.015625 0.171875,0.03125 0.21875,0.046875 0.21875,0.171875 0,0.03125 0,0.0625 -0.03125,0.1875 l -1.34375,5.34375 c -0.09375,0.390625 -0.109375,0.46875 -0.90625,0.46875 -0.15625,0 -0.265625,0 -0.265625,0.1875 C 0.40625,0 0.515625,0 0.546875,0 0.828125,0 1.53125,-0.03125 1.8125,-0.03125 c 0.21875,0 0.4375,0.015625 0.640625,0.015625 0.21875,0 0.4375,0.015625 0.640625,0.015625 0.078125,0 0.203125,0 0.203125,-0.203125 0,-0.109375 -0.09375,-0.109375 -0.28125,-0.109375 -0.359375,0 -0.640625,0 -0.640625,-0.171875 0,-0.0625 0.015625,-0.109375 0.03125,-0.171875 z M 3.734375,-6.125 C 3.828125,-6.46875 3.84375,-6.5 4.28125,-6.5 h 0.953125 c 0.828125,0 1.359375,0.265625 1.359375,0.953125 0,0.390625 -0.203125,1.25 -0.59375,1.609375 -0.5,0.453125 -1.09375,0.53125 -1.53125,0.53125 H 3.0625 Z m 0,0"
             style="stroke:none;stroke-width:0"
             inkscape:connector-curvature="0" />
        </g>
        <g
           id="g3322"
           style="fill:#000000;fill-opacity:1">
          <path
             id="path3320"
             transform="translate(155.108,136.259)"
             d="m 2.1875,-4.625 c 0,-0.015625 0.015625,-0.109375 0.015625,-0.109375 0,-0.046875 -0.015625,-0.109375 -0.109375,-0.109375 -0.140625,0 -0.71875,0.0625 -0.890625,0.078125 -0.046875,0 -0.15625,0.015625 -0.15625,0.15625 0,0.09375 0.109375,0.09375 0.1875,0.09375 0.328125,0 0.328125,0.0625 0.328125,0.109375 0,0.046875 -0.015625,0.09375 -0.015625,0.15625 L 0.5625,-0.3125 c -0.046875,0.125 -0.046875,0.140625 -0.046875,0.15625 0,0.109375 0.09375,0.21875 0.25,0.21875 0.1875,0 0.265625,-0.125 0.3125,-0.28125 0.015625,-0.03125 0.3125,-1.265625 0.34375,-1.359375 0.5,0.046875 0.890625,0.21875 0.890625,0.578125 0,0.03125 0,0.0625 -0.015625,0.140625 -0.03125,0.09375 -0.03125,0.140625 -0.03125,0.21875 0,0.484375 0.40625,0.703125 0.75,0.703125 0.671875,0 0.875,-1.046875 0.875,-1.0625 0,-0.09375 -0.078125,-0.09375 -0.109375,-0.09375 -0.09375,0 -0.109375,0.046875 -0.140625,0.171875 C 3.5625,-0.625 3.375,-0.125 3.03125,-0.125 c -0.1875,0 -0.25,-0.171875 -0.25,-0.359375 0,-0.125 0,-0.140625 0.046875,-0.3125 0.015625,-0.03125 0.03125,-0.140625 0.03125,-0.21875 0,-0.625 -0.828125,-0.71875 -1.125,-0.734375 C 1.9375,-1.875 2.1875,-2.109375 2.3125,-2.21875 2.671875,-2.546875 3.015625,-2.875 3.40625,-2.875 c 0.078125,0 0.171875,0.015625 0.234375,0.09375 C 3.34375,-2.734375 3.28125,-2.5 3.28125,-2.390625 c 0,0.140625 0.109375,0.25 0.265625,0.25 0.203125,0 0.40625,-0.15625 0.40625,-0.4375 0,-0.234375 -0.171875,-0.5 -0.53125,-0.5 -0.40625,0 -0.765625,0.296875 -1.125,0.625 C 2,-2.1875 1.78125,-1.96875 1.484375,-1.84375 Z m 0,0"
             style="stroke:none;stroke-width:0"
             inkscape:connector-curvature="0" />
        </g>
      </g>
    </g>
    <rect
       style="opacity:1;fill:none;fill-opacity:1;stroke:#000008;stroke-width:0.30000001;stroke-linecap:round;stroke-linejoin:bevel;stroke-miterlimit:4;stroke-dasharray:none;stroke-dashoffset:0;stroke-opacity:1;paint-order:normal"
       id="rect884"
       width="24.45516"
       height="5.8799295"
       x="2.7930119"
       y="264.86356" />
    <path
       style="fill:none;stroke:#000000;stroke-width:0.26458332px;stroke-linecap:butt;stroke-linejoin:miter;stroke-opacity:1"
       d="m 4.2404204,295.2932 0.00591,-26.84221"
       id="path886"
       inkscape:connector-curvature="0"
       inkscape:path-effect="#path-effect888"
       inkscape:original-d="m 4.2404204,295.2932 c 0.00222,-8.94767 0.0042,-17.89507 0.00591,-26.84221"
       transform="matrix(0.99616683,0,0,-0.20244108,0.01537624,319.24219)" />
    <path
       inkscape:original-d="m 4.2404204,295.2932 c 0.00222,-8.94767 0.0042,-17.89507 0.00591,-26.84221"
       inkscape:path-effect="#path-effect892"
       inkscape:connector-curvature="0"
       id="path890"
       d="m 4.2404204,295.2932 0.00591,-26.84221"
       style="fill:none;stroke:#000000;stroke-width:0.26458332px;stroke-linecap:butt;stroke-linejoin:miter;stroke-opacity:1"
       transform="matrix(0.99631727,0,0,-0.203275,4.3149625,319.32773)" />
    <path
       transform="matrix(0.99629699,0,0,-0.20722125,8.6154021,320.46616)"
       style="fill:none;stroke:#000000;stroke-width:0.26458332px;stroke-linecap:butt;stroke-linejoin:miter;stroke-opacity:1"
       d="m 4.2404204,295.2932 0.00591,-26.84221"
       id="path894"
       inkscape:connector-curvature="0"
       inkscape:path-effect="#path-effect896"
       inkscape:original-d="m 4.2404204,295.2932 c 0.00222,-8.94767 0.0042,-17.89507 0.00591,-26.84221" />
    <path
       transform="matrix(0.99611551,0,0,-0.20053971,21.659244,318.77908)"
       style="fill:none;stroke:#000000;stroke-width:0.26458332px;stroke-linecap:butt;stroke-linejoin:miter;stroke-opacity:1"
       d="m 4.2404204,295.2932 0.00591,-26.84221"
       id="path902"
       inkscape:connector-curvature="0"
       inkscape:path-effect="#path-effect904"
       inkscape:original-d="m 4.2404204,295.2932 c 0.00222,-8.94767 0.0042,-17.89507 0.00591,-26.84221" />
    <g
       id="g995"
       ns1:jacobian_sqrt="0.371887"
       inkscapeversion="0.92.4"
       ns1:alignment="middle center"
       ns1:scale="1.05416667533"
       ns1:preamble="C:\\Users\\alexp\\AppData\\Roaming\\inkscape\\extensions\\textext\\default_packages.tex"
       ns1:text="$\\tilde{y}_\\lambda$"
       ns1:pdfconverter="pdf2svg"
       ns1:texconverter="pdflatex"
       ns1:version="0.11.0"
       transform="matrix(0.371887,0,0,0.371887,-42.070226,218.23981)">
      <g
         id="g993">
        <g
           id="g983"
           style="fill:#000000;fill-opacity:1">
          <path
             id="path981"
             transform="translate(149.396,134.765)"
             d="M 4.140625,-6.515625 3.984375,-6.65625 c 0,0 -0.375,0.46875 -0.8125,0.46875 -0.234375,0 -0.484375,-0.140625 -0.65625,-0.25 C 2.25,-6.59375 2.078125,-6.65625 1.90625,-6.65625 c -0.375,0 -0.578125,0.21875 -1.078125,0.78125 l 0.15625,0.140625 c 0,0 0.375,-0.46875 0.8125,-0.46875 0.234375,0 0.484375,0.140625 0.65625,0.234375 0.265625,0.171875 0.453125,0.234375 0.625,0.234375 0.375,0 0.5625,-0.21875 1.0625,-0.78125 z m 0,0"
             style="stroke:none;stroke-width:0"
             inkscape:connector-curvature="0" />
        </g>
        <g
           id="g987"
           style="fill:#000000;fill-opacity:1">
          <path
             id="path985"
             transform="translate(148.712,134.765)"
             d="m 4.84375,-3.796875 c 0.046875,-0.140625 0.046875,-0.15625 0.046875,-0.234375 0,-0.171875 -0.140625,-0.265625 -0.296875,-0.265625 -0.09375,0 -0.25,0.0625 -0.34375,0.203125 -0.015625,0.0625 -0.109375,0.359375 -0.140625,0.546875 -0.078125,0.25 -0.140625,0.53125 -0.203125,0.796875 l -0.453125,1.796875 c -0.03125,0.140625 -0.46875,0.84375 -1.125,0.84375 -0.5,0 -0.609375,-0.4375 -0.609375,-0.8125 C 1.71875,-1.375 1.890625,-2 2.21875,-2.875 2.375,-3.28125 2.421875,-3.390625 2.421875,-3.59375 c 0,-0.4375 -0.3125,-0.8125 -0.8125,-0.8125 -0.953125,0 -1.3125,1.453125 -1.3125,1.53125 0,0.109375 0.09375,0.109375 0.109375,0.109375 0.109375,0 0.109375,-0.03125 0.15625,-0.1875 0.28125,-0.9375 0.671875,-1.234375 1.015625,-1.234375 0.078125,0 0.25,0 0.25,0.3125 0,0.25 -0.109375,0.515625 -0.171875,0.703125 -0.40625,1.0625 -0.578125,1.625 -0.578125,2.09375 0,0.890625 0.625,1.1875 1.21875,1.1875 0.390625,0 0.71875,-0.171875 1,-0.453125 -0.125,0.515625 -0.25,1.015625 -0.640625,1.546875 -0.265625,0.328125 -0.640625,0.625 -1.09375,0.625 -0.140625,0 -0.59375,-0.03125 -0.765625,-0.421875 0.15625,0 0.296875,0 0.421875,-0.125 C 1.328125,1.203125 1.421875,1.0625 1.421875,0.875 1.421875,0.5625 1.15625,0.53125 1.0625,0.53125 0.828125,0.53125 0.5,0.6875 0.5,1.171875 c 0,0.5 0.4375,0.875 1.0625,0.875 1.015625,0 2.046875,-0.90625 2.328125,-2.03125 z m 0,0"
             style="stroke:none;stroke-width:0"
             inkscape:connector-curvature="0" />
        </g>
        <g
           id="g991"
           style="fill:#000000;fill-opacity:1">
          <path
             id="path989"
             transform="translate(153.597,136.259)"
             d="m 2.8125,-2 c 0.34375,0.796875 0.75,1.8125 0.828125,1.90625 C 3.765625,0.0625 3.890625,0.0625 4,0.0625 h 0.140625 c 0.140625,0 0.203125,0 0.203125,-0.078125 0,-0.03125 -0.015625,-0.046875 -0.03125,-0.0625 -0.078125,-0.078125 -0.15625,-0.25 -0.1875,-0.3125 l -1.6875,-4 C 2.390625,-4.515625 2.25,-4.84375 1.5,-4.84375 c -0.078125,0 -0.171875,0 -0.171875,0.109375 0,0.078125 0.0625,0.09375 0.09375,0.09375 0.15625,0.015625 0.28125,0.046875 0.453125,0.4375 L 2.703125,-2.25 0.65625,-0.390625 c -0.078125,0.0625 -0.140625,0.125 -0.140625,0.234375 0,0.171875 0.140625,0.234375 0.234375,0.234375 0.140625,0 0.21875,-0.078125 0.234375,-0.109375 z m 0,0"
             style="stroke:none;stroke-width:0"
             inkscape:connector-curvature="0" />
        </g>
      </g>
    </g>
    <rect
       y="285.06308"
       x="2.7930119"
       height="5.8799295"
       width="24.45516"
       id="rect1010"
       style="opacity:1;fill:none;fill-opacity:1;stroke:#000008;stroke-width:0.30000001;stroke-linecap:round;stroke-linejoin:bevel;stroke-miterlimit:4;stroke-dasharray:none;stroke-dashoffset:0;stroke-opacity:1;paint-order:normal" />
    <g
       transform="matrix(0.371887,0,0,0.371887,-42.070226,238.43923)"
       ns1:version="0.11.0"
       ns1:texconverter="pdflatex"
       ns1:pdfconverter="pdf2svg"
       ns1:text="$\\tilde{y}_\\lambda$"
       ns1:preamble="C:\\Users\\alexp\\AppData\\Roaming\\inkscape\\extensions\\textext\\default_packages.tex"
       ns1:scale="1.05416667533"
       ns1:alignment="middle center"
       inkscapeversion="0.92.4"
       ns1:jacobian_sqrt="0.371887"
       id="g1026">
      <g
         id="g1024">
        <g
           style="fill:#000000;fill-opacity:1"
           id="g1014">
          <path
             inkscape:connector-curvature="0"
             style="stroke:none;stroke-width:0"
             d="M 4.140625,-6.515625 3.984375,-6.65625 c 0,0 -0.375,0.46875 -0.8125,0.46875 -0.234375,0 -0.484375,-0.140625 -0.65625,-0.25 C 2.25,-6.59375 2.078125,-6.65625 1.90625,-6.65625 c -0.375,0 -0.578125,0.21875 -1.078125,0.78125 l 0.15625,0.140625 c 0,0 0.375,-0.46875 0.8125,-0.46875 0.234375,0 0.484375,0.140625 0.65625,0.234375 0.265625,0.171875 0.453125,0.234375 0.625,0.234375 0.375,0 0.5625,-0.21875 1.0625,-0.78125 z m 0,0"
             transform="translate(149.396,134.765)"
             id="path1012" />
        </g>
        <g
           style="fill:#000000;fill-opacity:1"
           id="g1018">
          <path
             inkscape:connector-curvature="0"
             style="stroke:none;stroke-width:0"
             d="m 4.84375,-3.796875 c 0.046875,-0.140625 0.046875,-0.15625 0.046875,-0.234375 0,-0.171875 -0.140625,-0.265625 -0.296875,-0.265625 -0.09375,0 -0.25,0.0625 -0.34375,0.203125 -0.015625,0.0625 -0.109375,0.359375 -0.140625,0.546875 -0.078125,0.25 -0.140625,0.53125 -0.203125,0.796875 l -0.453125,1.796875 c -0.03125,0.140625 -0.46875,0.84375 -1.125,0.84375 -0.5,0 -0.609375,-0.4375 -0.609375,-0.8125 C 1.71875,-1.375 1.890625,-2 2.21875,-2.875 2.375,-3.28125 2.421875,-3.390625 2.421875,-3.59375 c 0,-0.4375 -0.3125,-0.8125 -0.8125,-0.8125 -0.953125,0 -1.3125,1.453125 -1.3125,1.53125 0,0.109375 0.09375,0.109375 0.109375,0.109375 0.109375,0 0.109375,-0.03125 0.15625,-0.1875 0.28125,-0.9375 0.671875,-1.234375 1.015625,-1.234375 0.078125,0 0.25,0 0.25,0.3125 0,0.25 -0.109375,0.515625 -0.171875,0.703125 -0.40625,1.0625 -0.578125,1.625 -0.578125,2.09375 0,0.890625 0.625,1.1875 1.21875,1.1875 0.390625,0 0.71875,-0.171875 1,-0.453125 -0.125,0.515625 -0.25,1.015625 -0.640625,1.546875 -0.265625,0.328125 -0.640625,0.625 -1.09375,0.625 -0.140625,0 -0.59375,-0.03125 -0.765625,-0.421875 0.15625,0 0.296875,0 0.421875,-0.125 C 1.328125,1.203125 1.421875,1.0625 1.421875,0.875 1.421875,0.5625 1.15625,0.53125 1.0625,0.53125 0.828125,0.53125 0.5,0.6875 0.5,1.171875 c 0,0.5 0.4375,0.875 1.0625,0.875 1.015625,0 2.046875,-0.90625 2.328125,-2.03125 z m 0,0"
             transform="translate(148.712,134.765)"
             id="path1016" />
        </g>
        <g
           style="fill:#000000;fill-opacity:1"
           id="g1022">
          <path
             inkscape:connector-curvature="0"
             style="stroke:none;stroke-width:0"
             d="m 2.8125,-2 c 0.34375,0.796875 0.75,1.8125 0.828125,1.90625 C 3.765625,0.0625 3.890625,0.0625 4,0.0625 h 0.140625 c 0.140625,0 0.203125,0 0.203125,-0.078125 0,-0.03125 -0.015625,-0.046875 -0.03125,-0.0625 -0.078125,-0.078125 -0.15625,-0.25 -0.1875,-0.3125 l -1.6875,-4 C 2.390625,-4.515625 2.25,-4.84375 1.5,-4.84375 c -0.078125,0 -0.171875,0 -0.171875,0.109375 0,0.078125 0.0625,0.09375 0.09375,0.09375 0.15625,0.015625 0.28125,0.046875 0.453125,0.4375 L 2.703125,-2.25 0.65625,-0.390625 c -0.078125,0.0625 -0.140625,0.125 -0.140625,0.234375 0,0.171875 0.140625,0.234375 0.234375,0.234375 0.140625,0 0.21875,-0.078125 0.234375,-0.109375 z m 0,0"
             transform="translate(153.597,136.259)"
             id="path1020" />
        </g>
      </g>
    </g>
    <rect
       style="opacity:1;fill:none;fill-opacity:1;stroke:#000008;stroke-width:0.30000001;stroke-linecap:round;stroke-linejoin:bevel;stroke-miterlimit:4;stroke-dasharray:none;stroke-dashoffset:0;stroke-opacity:1;paint-order:normal"
       id="rect1028"
       width="11.481027"
       height="4.9136906"
       x="2.7485466"
       y="278.67563" />
    <g
       id="g1131"
       ns1:jacobian_sqrt="0.371887"
       inkscapeversion="0.92.4"
       ns1:alignment="middle center"
       ns1:scale="1.05416667533"
       ns1:preamble="C:\\Users\\alexp\\AppData\\Roaming\\inkscape\\extensions\\textext\\default_packages.tex"
       ns1:text="$\\tilde{y}_\\mu$"
       ns1:pdfconverter="pdf2svg"
       ns1:texconverter="pdflatex"
       ns1:version="0.11.0"
       transform="matrix(0.371887,0,0,0.371887,-48.531483,231.56256)">
      <g
         id="g1129">
        <g
           id="g1119"
           style="fill:#000000;fill-opacity:1">
          <path
             id="path1117"
             transform="translate(149.396,134.765)"
             d="M 4.140625,-6.515625 3.984375,-6.65625 c 0,0 -0.375,0.46875 -0.8125,0.46875 -0.234375,0 -0.484375,-0.140625 -0.65625,-0.25 C 2.25,-6.59375 2.078125,-6.65625 1.90625,-6.65625 c -0.375,0 -0.578125,0.21875 -1.078125,0.78125 l 0.15625,0.140625 c 0,0 0.375,-0.46875 0.8125,-0.46875 0.234375,0 0.484375,0.140625 0.65625,0.234375 0.265625,0.171875 0.453125,0.234375 0.625,0.234375 0.375,0 0.5625,-0.21875 1.0625,-0.78125 z m 0,0"
             style="stroke:none;stroke-width:0"
             inkscape:connector-curvature="0" />
        </g>
        <g
           id="g1123"
           style="fill:#000000;fill-opacity:1">
          <path
             id="path1121"
             transform="translate(148.712,134.765)"
             d="m 4.84375,-3.796875 c 0.046875,-0.140625 0.046875,-0.15625 0.046875,-0.234375 0,-0.171875 -0.140625,-0.265625 -0.296875,-0.265625 -0.09375,0 -0.25,0.0625 -0.34375,0.203125 -0.015625,0.0625 -0.109375,0.359375 -0.140625,0.546875 -0.078125,0.25 -0.140625,0.53125 -0.203125,0.796875 l -0.453125,1.796875 c -0.03125,0.140625 -0.46875,0.84375 -1.125,0.84375 -0.5,0 -0.609375,-0.4375 -0.609375,-0.8125 C 1.71875,-1.375 1.890625,-2 2.21875,-2.875 2.375,-3.28125 2.421875,-3.390625 2.421875,-3.59375 c 0,-0.4375 -0.3125,-0.8125 -0.8125,-0.8125 -0.953125,0 -1.3125,1.453125 -1.3125,1.53125 0,0.109375 0.09375,0.109375 0.109375,0.109375 0.109375,0 0.109375,-0.03125 0.15625,-0.1875 0.28125,-0.9375 0.671875,-1.234375 1.015625,-1.234375 0.078125,0 0.25,0 0.25,0.3125 0,0.25 -0.109375,0.515625 -0.171875,0.703125 -0.40625,1.0625 -0.578125,1.625 -0.578125,2.09375 0,0.890625 0.625,1.1875 1.21875,1.1875 0.390625,0 0.71875,-0.171875 1,-0.453125 -0.125,0.515625 -0.25,1.015625 -0.640625,1.546875 -0.265625,0.328125 -0.640625,0.625 -1.09375,0.625 -0.140625,0 -0.59375,-0.03125 -0.765625,-0.421875 0.15625,0 0.296875,0 0.421875,-0.125 C 1.328125,1.203125 1.421875,1.0625 1.421875,0.875 1.421875,0.5625 1.15625,0.53125 1.0625,0.53125 0.828125,0.53125 0.5,0.6875 0.5,1.171875 c 0,0.5 0.4375,0.875 1.0625,0.875 1.015625,0 2.046875,-0.90625 2.328125,-2.03125 z m 0,0"
             style="stroke:none;stroke-width:0"
             inkscape:connector-curvature="0" />
        </g>
        <g
           id="g1127"
           style="fill:#000000;fill-opacity:1">
          <path
             id="path1125"
             transform="translate(153.597,136.259)"
             d="M 0.375,1.125 C 0.34375,1.21875 0.34375,1.265625 0.34375,1.265625 c 0,0.15625 0.125,0.21875 0.234375,0.21875 0.265625,0 0.3125,-0.21875 0.34375,-0.34375 0.015625,-0.03125 0.15625,-0.59375 0.3125,-1.265625 0.21875,0.140625 0.5,0.1875 0.75,0.1875 0.59375,0 0.984375,-0.484375 1,-0.5 0.140625,0.484375 0.625,0.5 0.71875,0.5 0.25,0 0.421875,-0.140625 0.5625,-0.359375 C 4.40625,-0.578125 4.5,-0.96875 4.5,-1 c 0,-0.09375 -0.09375,-0.09375 -0.109375,-0.09375 -0.09375,0 -0.109375,0.03125 -0.15625,0.21875 -0.078125,0.34375 -0.21875,0.75 -0.5,0.75 C 3.546875,-0.125 3.5,-0.28125 3.5,-0.46875 c 0,-0.109375 0.046875,-0.375 0.109375,-0.546875 0.046875,-0.1875 0.109375,-0.46875 0.140625,-0.625 l 0.171875,-0.625 C 3.953125,-2.4375 4.03125,-2.75 4.03125,-2.78125 4.03125,-2.921875 3.921875,-3 3.8125,-3 3.734375,-3 3.59375,-2.96875 3.515625,-2.84375 3.5,-2.796875 3.4375,-2.578125 3.40625,-2.4375 l -0.140625,0.578125 -0.21875,0.875 C 3,-0.8125 3,-0.796875 2.9375,-0.703125 2.71875,-0.390625 2.40625,-0.125 2.015625,-0.125 1.4375,-0.125 1.4375,-0.625 1.4375,-0.75 c 0,-0.171875 0.03125,-0.265625 0.125,-0.640625 0.0625,-0.3125 0.078125,-0.359375 0.15625,-0.625 L 1.8125,-2.40625 c 0.03125,-0.15625 0.109375,-0.421875 0.109375,-0.4375 0,-0.125 -0.109375,-0.234375 -0.25,-0.234375 -0.25,0 -0.3125,0.25 -0.328125,0.328125 z m 0,0"
             style="stroke:none;stroke-width:0"
             inkscape:connector-curvature="0" />
        </g>
      </g>
    </g>
    <path
       style="fill:none;stroke:#000000;stroke-width:0.26458332px;stroke-linecap:butt;stroke-linejoin:miter;stroke-opacity:1"
       d="m 4.2404204,295.2932 0.00591,-26.84221"
       id="path1146"
       inkscape:connector-curvature="0"
       inkscape:path-effect="#path-effect1148"
       inkscape:original-d="m 4.2404204,295.2932 c 0.00222,-8.94767 0.0042,-17.89507 0.00591,-26.84221"
       transform="matrix(0.99616683,0,0,0.05717122,0.01537624,268.20875)" />
    <path
       inkscape:original-d="m 4.2404204,295.2932 c 0.00222,-8.94767 0.0042,-17.89507 0.00591,-26.84221"
       inkscape:path-effect="#path-effect1152"
       inkscape:connector-curvature="0"
       id="path1150"
       d="m 4.2404204,295.2932 0.00591,-26.84221"
       style="fill:none;stroke:#000000;stroke-width:0.26458332px;stroke-linecap:butt;stroke-linejoin:miter;stroke-opacity:1"
       transform="matrix(0.99631727,0,0,0.05740673,4.3149625,268.1846)" />
    <path
       transform="matrix(0.99625737,0,0,0.05922429,8.6155702,267.65546)"
       style="fill:none;stroke:#000000;stroke-width:0.26458332px;stroke-linecap:butt;stroke-linejoin:miter;stroke-opacity:1"
       d="m 4.2404204,295.2932 0.00591,-26.84221"
       id="path1154"
       inkscape:connector-curvature="0"
       inkscape:path-effect="#path-effect1156"
       inkscape:original-d="m 4.2404204,295.2932 c 0.00222,-8.94767 0.0042,-17.89507 0.00591,-26.84221" />
    <path
       transform="matrix(0.99591938,0,0,0.04621307,0.01642625,265.06134)"
       inkscape:original-d="m 4.2404204,295.2932 c 0.00222,-8.94767 0.0042,-17.89507 0.00591,-26.84221"
       inkscape:path-effect="#path-effect1160"
       inkscape:connector-curvature="0"
       id="path1158"
       d="m 4.2404204,295.2932 0.00591,-26.84221"
       style="fill:none;stroke:#000000;stroke-width:0.26458332px;stroke-linecap:butt;stroke-linejoin:miter;stroke-opacity:1" />
    <path
       transform="matrix(0.99631727,0,0,0.03933103,4.3149625,267.12463)"
       style="fill:none;stroke:#000000;stroke-width:0.26458332px;stroke-linecap:butt;stroke-linejoin:miter;stroke-opacity:1"
       d="m 4.2404204,295.2932 0.00591,-26.84221"
       id="path1162"
       inkscape:connector-curvature="0"
       inkscape:path-effect="#path-effect1164"
       inkscape:original-d="m 4.2404204,295.2932 c 0.00222,-8.94767 0.0042,-17.89507 0.00591,-26.84221" />
    <path
       inkscape:original-d="m 4.2404204,295.2932 c 0.00222,-8.94767 0.0042,-17.89507 0.00591,-26.84221"
       inkscape:path-effect="#path-effect1168"
       inkscape:connector-curvature="0"
       id="path1166"
       d="m 4.2404204,295.2932 0.00591,-26.84221"
       style="fill:none;stroke:#000000;stroke-width:0.26458332px;stroke-linecap:butt;stroke-linejoin:miter;stroke-opacity:1"
       transform="matrix(0.99625737,0,0,0.04057629,8.6155702,266.7621)" />
    <path
       transform="matrix(0.99217784,0,0,0.53230823,21.675953,127.87236)"
       style="fill:none;stroke:#000000;stroke-width:0.26458332px;stroke-linecap:butt;stroke-linejoin:miter;stroke-opacity:1"
       d="m 4.2404204,295.2932 0.00591,-26.84221"
       id="path1170"
       inkscape:connector-curvature="0"
       inkscape:path-effect="#path-effect1172"
       inkscape:original-d="m 4.2404204,295.2932 c 0.00222,-8.94767 0.0042,-17.89507 0.00591,-26.84221" />
  </g>
  <g
     inkscape:groupmode="layer"
     id="layer6"
     inkscape:label="Layer 2"
     transform="translate(-1.1893949,8.4636384)" />
  <g
     inkscape:groupmode="layer"
     id="layer7"
     inkscape:label="Layer 3"
     transform="translate(-1.1893949,8.4636384)" />
  <g
     id="ltx-render-layer"
     inkscape:groupmode="layer"
     inkscape:label="Rendered Latex"
     ns0:preamble=""
     ns0:packages=""
     ns0:scale="1.0"
     ns0:depth="0.0"
     ns0:fontsize="10.0"
     ns0:newline="False"
     ns0:math="False"
     transform="translate(-1.1893949,8.4636384)" />
</svg>
