<?xml version="1.0" encoding="UTF-8" standalone="no"?>
<!-- Created with Inkscape (http://www.inkscape.org/) -->

<svg
   xmlns:ns1="http://www.iki.fi/pav/software/textext/"
   xmlns:ns0="http://NOTSET"
   xmlns:dc="http://purl.org/dc/elements/1.1/"
   xmlns:cc="http://creativecommons.org/ns#"
   xmlns:rdf="http://www.w3.org/1999/02/22-rdf-syntax-ns#"
   xmlns:svg="http://www.w3.org/2000/svg"
   xmlns="http://www.w3.org/2000/svg"
   xmlns:sodipodi="http://sodipodi.sourceforge.net/DTD/sodipodi-0.dtd"
   xmlns:inkscape="http://www.inkscape.org/namespaces/inkscape"
   width="27.536676mm"
   height="37.589603mm"
   viewBox="0 0 27.536676 37.589603"
   version="1.1"
   id="svg7849"
   inkscape:version="0.92.4 (5da689c313, 2019-01-14)"
   sodipodi:docname="B11cdotQlambdaframebrancha2.svg">
  <defs
     id="defs7843">
    <inkscape:path-effect
       is_visible="true"
       id="path-effect1996"
       effect="spiro" />
    <inkscape:path-effect
       effect="spiro"
       id="path-effect1853"
       is_visible="true" />
    <inkscape:path-effect
       only_selected="false"
       apply_with_weight="true"
       apply_no_weight="true"
       helper_size="0"
       steps="2"
       weight="33.333333"
       is_visible="true"
       id="path-effect1712"
       effect="bspline" />
    <inkscape:path-effect
       effect="bspline"
       id="path-effect1698"
       is_visible="true"
       weight="33.333333"
       steps="2"
       helper_size="0"
       apply_no_weight="true"
       apply_with_weight="true"
       only_selected="false" />
    <inkscape:path-effect
       effect="bspline"
       id="path-effect1694"
       is_visible="true"
       weight="33.333333"
       steps="2"
       helper_size="0"
       apply_no_weight="true"
       apply_with_weight="true"
       only_selected="false" />
    <inkscape:path-effect
       effect="bspline"
       id="path-effect1690"
       is_visible="true"
       weight="33.333333"
       steps="2"
       helper_size="0"
       apply_no_weight="true"
       apply_with_weight="true"
       only_selected="false" />
    <inkscape:path-effect
       effect="bspline"
       id="path-effect1682"
       is_visible="true"
       weight="33.333333"
       steps="2"
       helper_size="0"
       apply_no_weight="true"
       apply_with_weight="true"
       only_selected="false" />
    <inkscape:path-effect
       effect="bspline"
       id="path-effect1678"
       is_visible="true"
       weight="33.333333"
       steps="2"
       helper_size="0"
       apply_no_weight="true"
       apply_with_weight="true"
       only_selected="false" />
    <inkscape:path-effect
       effect="bspline"
       id="path-effect1674"
       is_visible="true"
       weight="33.333333"
       steps="2"
       helper_size="0"
       apply_no_weight="true"
       apply_with_weight="true"
       only_selected="false" />
    <inkscape:path-effect
       effect="bspline"
       id="path-effect1670"
       is_visible="true"
       weight="33.333333"
       steps="2"
       helper_size="0"
       apply_no_weight="true"
       apply_with_weight="true"
       only_selected="false" />
    <inkscape:path-effect
       effect="spiro"
       id="path-effect1666"
       is_visible="true" />
    <inkscape:path-effect
       is_visible="true"
       id="path-effect1662"
       effect="spiro" />
    <inkscape:path-effect
       effect="spiro"
       id="path-effect1658"
       is_visible="true" />
    <inkscape:path-effect
       is_visible="true"
       id="path-effect1654"
       effect="spiro" />
    <inkscape:path-effect
       effect="bspline"
       id="path-effect1650"
       is_visible="true"
       weight="33.333333"
       steps="2"
       helper_size="0"
       apply_no_weight="true"
       apply_with_weight="true"
       only_selected="false" />
    <inkscape:path-effect
       effect="spiro"
       id="path-effect20344"
       is_visible="true" />
    <inkscape:path-effect
       effect="bspline"
       id="path-effect19585"
       is_visible="true"
       weight="33.333333"
       steps="2"
       helper_size="0"
       apply_no_weight="true"
       apply_with_weight="true"
       only_selected="false" />
    <inkscape:path-effect
       effect="bspline"
       id="path-effect7212"
       is_visible="true"
       weight="33.333333"
       steps="2"
       helper_size="0"
       apply_no_weight="true"
       apply_with_weight="true"
       only_selected="false" />
    <inkscape:path-effect
       effect="bspline"
       id="path-effect6467"
       is_visible="true"
       weight="33.333333"
       steps="2"
       helper_size="0"
       apply_no_weight="true"
       apply_with_weight="true"
       only_selected="false" />
    <inkscape:path-effect
       only_selected="false"
       apply_with_weight="true"
       apply_no_weight="true"
       helper_size="0"
       steps="2"
       weight="33.333333"
       is_visible="true"
       id="path-effect6455"
       effect="bspline" />
    <inkscape:path-effect
       effect="bspline"
       id="path-effect6451"
       is_visible="true"
       weight="33.333333"
       steps="2"
       helper_size="0"
       apply_no_weight="true"
       apply_with_weight="true"
       only_selected="false" />
    <inkscape:path-effect
       effect="bspline"
       id="path-effect6447"
       is_visible="true"
       weight="33.333333"
       steps="2"
       helper_size="0"
       apply_no_weight="true"
       apply_with_weight="true"
       only_selected="false" />
    <inkscape:path-effect
       effect="bspline"
       id="path-effect6443"
       is_visible="true"
       weight="33.333333"
       steps="2"
       helper_size="0"
       apply_no_weight="true"
       apply_with_weight="true"
       only_selected="false" />
    <inkscape:path-effect
       effect="bspline"
       id="path-effect6439"
       is_visible="true"
       weight="33.333333"
       steps="2"
       helper_size="0"
       apply_no_weight="true"
       apply_with_weight="true"
       only_selected="false" />
    <inkscape:path-effect
       effect="bspline"
       id="path-effect6435"
       is_visible="true"
       weight="33.333333"
       steps="2"
       helper_size="0"
       apply_no_weight="true"
       apply_with_weight="true"
       only_selected="false" />
    <inkscape:path-effect
       effect="bspline"
       id="path-effect6431"
       is_visible="true"
       weight="33.333333"
       steps="2"
       helper_size="0"
       apply_no_weight="true"
       apply_with_weight="true"
       only_selected="false" />
    <inkscape:path-effect
       effect="bspline"
       id="path-effect6419"
       is_visible="true"
       weight="33.333333"
       steps="2"
       helper_size="0"
       apply_no_weight="true"
       apply_with_weight="true"
       only_selected="false" />
    <inkscape:path-effect
       effect="bspline"
       id="path-effect6415"
       is_visible="true"
       weight="33.333333"
       steps="2"
       helper_size="0"
       apply_no_weight="true"
       apply_with_weight="true"
       only_selected="false" />
    <inkscape:path-effect
       effect="bspline"
       id="path-effect6411"
       is_visible="true"
       weight="33.333333"
       steps="2"
       helper_size="0"
       apply_no_weight="true"
       apply_with_weight="true"
       only_selected="false" />
    <inkscape:path-effect
       effect="bspline"
       id="path-effect6407"
       is_visible="true"
       weight="33.333333"
       steps="2"
       helper_size="0"
       apply_no_weight="true"
       apply_with_weight="true"
       only_selected="false" />
    <inkscape:path-effect
       effect="bspline"
       id="path-effect6403"
       is_visible="true"
       weight="33.333333"
       steps="2"
       helper_size="0"
       apply_no_weight="true"
       apply_with_weight="true"
       only_selected="false" />
    <inkscape:path-effect
       effect="bspline"
       id="path-effect6395"
       is_visible="true"
       weight="33.333333"
       steps="2"
       helper_size="0"
       apply_no_weight="true"
       apply_with_weight="true"
       only_selected="false" />
    <inkscape:path-effect
       effect="bspline"
       id="path-effect6391"
       is_visible="true"
       weight="33.333333"
       steps="2"
       helper_size="0"
       apply_no_weight="true"
       apply_with_weight="true"
       only_selected="false" />
    <inkscape:path-effect
       effect="bspline"
       id="path-effect6387"
       is_visible="true"
       weight="33.333333"
       steps="2"
       helper_size="0"
       apply_no_weight="true"
       apply_with_weight="true"
       only_selected="false" />
    <inkscape:path-effect
       effect="bspline"
       id="path-effect6383"
       is_visible="true"
       weight="33.333333"
       steps="2"
       helper_size="0"
       apply_no_weight="true"
       apply_with_weight="true"
       only_selected="false" />
    <inkscape:path-effect
       effect="bspline"
       id="path-effect6379"
       is_visible="true"
       weight="33.333333"
       steps="2"
       helper_size="0"
       apply_no_weight="true"
       apply_with_weight="true"
       only_selected="false" />
    <inkscape:path-effect
       effect="bspline"
       id="path-effect6375"
       is_visible="true"
       weight="33.333333"
       steps="2"
       helper_size="0"
       apply_no_weight="true"
       apply_with_weight="true"
       only_selected="false" />
    <inkscape:path-effect
       effect="bspline"
       id="path-effect6371"
       is_visible="true"
       weight="33.333333"
       steps="2"
       helper_size="0"
       apply_no_weight="true"
       apply_with_weight="true"
       only_selected="false" />
    <inkscape:path-effect
       effect="bspline"
       id="path-effect6363"
       is_visible="true"
       weight="33.333333"
       steps="2"
       helper_size="0"
       apply_no_weight="true"
       apply_with_weight="true"
       only_selected="false" />
    <inkscape:path-effect
       effect="bspline"
       id="path-effect6359"
       is_visible="true"
       weight="33.333333"
       steps="2"
       helper_size="0"
       apply_no_weight="true"
       apply_with_weight="true"
       only_selected="false" />
    <inkscape:path-effect
       effect="spiro"
       id="path-effect9147"
       is_visible="true" />
    <inkscape:path-effect
       is_visible="true"
       id="path-effect9143"
       effect="spiro" />
    <inkscape:path-effect
       effect="spiro"
       id="path-effect9135"
       is_visible="true" />
    <inkscape:path-effect
       is_visible="true"
       id="path-effect9131"
       effect="spiro" />
    <inkscape:path-effect
       effect="spiro"
       id="path-effect9127"
       is_visible="true" />
  </defs>
  <sodipodi:namedview
     id="base"
     pagecolor="#ffffff"
     bordercolor="#666666"
     borderopacity="1.0"
     inkscape:pageopacity="0.0"
     inkscape:pageshadow="2"
     inkscape:zoom="1.979899"
     inkscape:cx="67.862797"
     inkscape:cy="19.162277"
     inkscape:document-units="mm"
     inkscape:current-layer="layer1"
     showgrid="false"
     inkscape:window-width="958"
     inkscape:window-height="1008"
     inkscape:window-x="-7"
     inkscape:window-y="0"
     inkscape:window-maximized="0"
     fit-margin-top="0"
     fit-margin-left="0"
     fit-margin-right="0"
     fit-margin-bottom="0" />
  <metadata
     id="metadata7846">
    <rdf:RDF>
      <cc:Work
         rdf:about="">
        <dc:format>image/svg+xml</dc:format>
        <dc:type
           rdf:resource="http://purl.org/dc/dcmitype/StillImage" />
        <dc:title></dc:title>
      </cc:Work>
    </rdf:RDF>
  </metadata>
  <g
     inkscape:label="Layer 1"
     inkscape:groupmode="layer"
     id="layer1"
     transform="translate(-1.1893949,-258.7754)"
     style="display:inline">
    <rect
       transform="scale(1,-1)"
       style="display:inline;fill:none;fill-opacity:1;stroke:#000000;stroke-width:0.6831103;stroke-miterlimit:4;stroke-dasharray:none;stroke-opacity:1;enable-background:new"
       id="rect1065"
       width="26.853565"
       height="35.513"
       x="1.5309501"
       y="-295.33069" />
    <g
       style="display:inline;enable-background:new"
       id="g1107"
       transform="matrix(2.7536675,0,0,-2.7536675,-68.067333,302.4137)" />
    <path
       style="fill:none;stroke:#000000;stroke-width:0.26458332px;stroke-linecap:butt;stroke-linejoin:miter;stroke-opacity:1"
       d="m 4.2404204,295.2932 0.00591,-26.84221"
       id="path9125"
       inkscape:connector-curvature="0"
       inkscape:path-effect="#path-effect9127"
       inkscape:original-d="m 4.2404204,295.2932 c 0.00222,-8.94767 0.0042,-17.89507 0.00591,-26.84221"
       transform="matrix(0.99164121,0,0,0.63923739,0.03411337,88.207957)" />
    <path
       inkscape:original-d="m 4.2404204,295.2932 c 0.00222,-8.94767 0.0042,-17.89507 0.00591,-26.84221"
       inkscape:path-effect="#path-effect9131"
       inkscape:connector-curvature="0"
       id="path9129"
       d="m 4.2404204,295.2932 0.00591,-26.84221"
       style="fill:none;stroke:#000000;stroke-width:0.26458332px;stroke-linecap:butt;stroke-linejoin:miter;stroke-opacity:1"
       transform="matrix(0.99171339,0,0,0.62847575,4.3342173,91.138255)" />
    <path
       transform="matrix(-0.99165685,0,0,0.61898893,22.682831,93.654284)"
       style="fill:none;stroke:#000000;stroke-width:0.26458332px;stroke-linecap:butt;stroke-linejoin:miter;stroke-opacity:1"
       d="m 4.2404204,295.2932 0.00591,-26.84221"
       id="path9133"
       inkscape:connector-curvature="0"
       inkscape:path-effect="#path-effect9135"
       inkscape:original-d="m 4.2404204,295.2932 c 0.00222,-8.94767 0.0042,-17.89507 0.00591,-26.84221" />
    <path
       inkscape:original-d="m 4.2404204,295.2932 c 0.00222,-8.94767 0.0042,-17.89507 0.00591,-26.84221"
       inkscape:path-effect="#path-effect9143"
       inkscape:connector-curvature="0"
       id="path9141"
       d="m 4.2404204,295.2932 0.00591,-26.84221"
       style="fill:none;stroke:#000000;stroke-width:0.26458332px;stroke-linecap:butt;stroke-linejoin:miter;stroke-opacity:1"
       transform="matrix(0.99160072,0,0,0.58169451,17.37833,103.61074)" />
    <g
       transform="matrix(-1,0,0,1,29.950655,21.106975)"
       id="g9170">
      <path
         d="m 14.886938,271.88588 a 0.23386084,0.23386084 0 0 1 -0.329771,-0.0223 0.23386084,0.23386084 0 0 1 0.02193,-0.3298 0.23386084,0.23386084 0 0 1 0.329825,0.0215 0.23386084,0.23386084 0 0 1 -0.02112,0.32985"
         sodipodi:open="true"
         sodipodi:end="0.84871696"
         sodipodi:start="0.85362483"
         sodipodi:ry="0.23386084"
         sodipodi:rx="0.23386084"
         sodipodi:cy="271.70963"
         sodipodi:cx="14.733232"
         sodipodi:type="arc"
         id="path9164"
         style="fill:#000000;fill-opacity:1;stroke:#000000;stroke-width:0.14999999;stroke-miterlimit:4;stroke-dasharray:none;stroke-opacity:1" />
      <path
         style="fill:#000000;fill-opacity:1;stroke:#000000;stroke-width:0.14999999;stroke-miterlimit:4;stroke-dasharray:none;stroke-opacity:1"
         id="path9166"
         sodipodi:type="arc"
         sodipodi:cx="15.833404"
         sodipodi:cy="271.70963"
         sodipodi:rx="0.23386084"
         sodipodi:ry="0.23386084"
         sodipodi:start="0.85362483"
         sodipodi:end="0.84871696"
         sodipodi:open="true"
         d="m 15.98711,271.88588 a 0.23386084,0.23386084 0 0 1 -0.329771,-0.0223 0.23386084,0.23386084 0 0 1 0.02193,-0.3298 0.23386084,0.23386084 0 0 1 0.329825,0.0215 0.23386084,0.23386084 0 0 1 -0.02112,0.32985" />
      <path
         d="m 17.087109,271.88588 a 0.23386084,0.23386084 0 0 1 -0.329771,-0.0223 0.23386084,0.23386084 0 0 1 0.02193,-0.3298 0.23386084,0.23386084 0 0 1 0.329824,0.0215 0.23386084,0.23386084 0 0 1 -0.02112,0.32985"
         sodipodi:open="true"
         sodipodi:end="0.84871696"
         sodipodi:start="0.85362483"
         sodipodi:ry="0.23386084"
         sodipodi:rx="0.23386084"
         sodipodi:cy="271.70963"
         sodipodi:cx="16.933403"
         sodipodi:type="arc"
         id="path9168"
         style="fill:#000000;fill-opacity:1;stroke:#000000;stroke-width:0.14999999;stroke-miterlimit:4;stroke-dasharray:none;stroke-opacity:1" />
    </g>
    <g
       id="g19593"
       transform="matrix(-1,0,0,1,29.950655,-9.5930255)">
      <path
         style="fill:#000000;fill-opacity:1;stroke:#000000;stroke-width:0.14999999;stroke-miterlimit:4;stroke-dasharray:none;stroke-opacity:1"
         id="path19587"
         sodipodi:type="arc"
         sodipodi:cx="14.733232"
         sodipodi:cy="271.70963"
         sodipodi:rx="0.23386084"
         sodipodi:ry="0.23386084"
         sodipodi:start="0.85362483"
         sodipodi:end="0.84871696"
         sodipodi:open="true"
         d="m 14.886938,271.88588 a 0.23386084,0.23386084 0 0 1 -0.329771,-0.0223 0.23386084,0.23386084 0 0 1 0.02193,-0.3298 0.23386084,0.23386084 0 0 1 0.329825,0.0215 0.23386084,0.23386084 0 0 1 -0.02112,0.32985" />
      <path
         d="m 15.98711,271.88588 a 0.23386084,0.23386084 0 0 1 -0.329771,-0.0223 0.23386084,0.23386084 0 0 1 0.02193,-0.3298 0.23386084,0.23386084 0 0 1 0.329825,0.0215 0.23386084,0.23386084 0 0 1 -0.02112,0.32985"
         sodipodi:open="true"
         sodipodi:end="0.84871696"
         sodipodi:start="0.85362483"
         sodipodi:ry="0.23386084"
         sodipodi:rx="0.23386084"
         sodipodi:cy="271.70963"
         sodipodi:cx="15.833404"
         sodipodi:type="arc"
         id="path19589"
         style="fill:#000000;fill-opacity:1;stroke:#000000;stroke-width:0.14999999;stroke-miterlimit:4;stroke-dasharray:none;stroke-opacity:1" />
      <path
         style="fill:#000000;fill-opacity:1;stroke:#000000;stroke-width:0.14999999;stroke-miterlimit:4;stroke-dasharray:none;stroke-opacity:1"
         id="path19591"
         sodipodi:type="arc"
         sodipodi:cx="16.933403"
         sodipodi:cy="271.70963"
         sodipodi:rx="0.23386084"
         sodipodi:ry="0.23386084"
         sodipodi:start="0.85362483"
         sodipodi:end="0.84871696"
         sodipodi:open="true"
         d="m 17.087109,271.88588 a 0.23386084,0.23386084 0 0 1 -0.329771,-0.0223 0.23386084,0.23386084 0 0 1 0.02193,-0.3298 0.23386084,0.23386084 0 0 1 0.329824,0.0215 0.23386084,0.23386084 0 0 1 -0.02112,0.32985" />
    </g>
    <path
       style="fill:none;stroke:#000000;stroke-width:0.26458332px;stroke-linecap:butt;stroke-linejoin:miter;stroke-opacity:1"
       d="m 25.474365,271.577 c 10e-6,0.58501 2e-5,1.16974 2e-5,2.24269 0,1.07294 -1e-5,2.63364 -0.708512,3.90213 -0.708502,1.26849 -2.126029,2.24501 -5.660292,2.79352 -3.534264,0.54852 -9.1826564,0.66884 -12.3044191,0.87864 -3.1217627,0.2098 -3.7151225,0.50916 -4.0622121,1.005 -0.3470896,0.49584 -0.4470252,1.18429 -0.2859645,1.60497 0.1610608,0.42068 0.5829364,0.57112 1.0048429,0.72157"
       id="path1648"
       inkscape:connector-curvature="0"
       inkscape:path-effect="#path-effect1650"
       inkscape:original-d="m 25.474365,271.577 c 2.75e-4,0.58501 2.85e-4,1.16974 3e-5,1.75508 2.55e-4,1.56055 2.45e-4,3.12125 -3e-5,4.68208 -1.417031,0.9761 -2.834557,1.95262 -4.252232,2.92932 -5.650821,0.12012 -11.299214,0.24044 -16.9496353,0.36107 -0.5931526,0.29912 -1.186512,0.59848 -1.7801639,0.89812 -0.1111649,0.6906 -0.2001875,1.38063 -0.3006782,2.07134 0.4225053,0.1503 0.8443804,0.30074 1.2661726,0.45151"
       sodipodi:nodetypes="cccccccc"
       transform="translate(0,-3.8998196)" />
    <path
       transform="matrix(0.99164121,0,0,-0.61230005,0.03411337,459.69975)"
       inkscape:original-d="m 4.2404204,295.2932 c 0.00222,-8.94767 0.0042,-17.89507 0.00591,-26.84221"
       inkscape:path-effect="#path-effect1654"
       inkscape:connector-curvature="0"
       id="path1652"
       d="m 4.2404204,295.2932 0.00591,-26.84221"
       style="fill:none;stroke:#000000;stroke-width:0.26458332px;stroke-linecap:butt;stroke-linejoin:miter;stroke-opacity:1" />
    <path
       transform="matrix(0.99171339,0,0,-0.63087471,4.3342173,464.64655)"
       style="fill:none;stroke:#000000;stroke-width:0.26458332px;stroke-linecap:butt;stroke-linejoin:miter;stroke-opacity:1"
       d="m 4.2404204,295.2932 0.00591,-26.84221"
       id="path1656"
       inkscape:connector-curvature="0"
       inkscape:path-effect="#path-effect1658"
       inkscape:original-d="m 4.2404204,295.2932 c 0.00222,-8.94767 0.0042,-17.89507 0.00591,-26.84221" />
    <path
       inkscape:original-d="m 4.2404204,295.2932 c 0.00222,-8.94767 0.0042,-17.89507 0.00591,-26.84221"
       inkscape:path-effect="#path-effect1662"
       inkscape:connector-curvature="0"
       id="path1660"
       d="m 4.2404204,295.2932 0.00591,-26.84221"
       style="fill:none;stroke:#000000;stroke-width:0.26458332px;stroke-linecap:butt;stroke-linejoin:miter;stroke-opacity:1"
       transform="matrix(-0.99165685,0,0,-0.64374909,22.682831,468.13211)" />
    <path
       transform="matrix(0.99160072,0,0,-0.68227607,17.37833,478.52766)"
       style="fill:none;stroke:#000000;stroke-width:0.26458332px;stroke-linecap:butt;stroke-linejoin:miter;stroke-opacity:1"
       d="m 4.2404204,295.2932 0.00591,-26.84221"
       id="path1664"
       inkscape:connector-curvature="0"
       inkscape:path-effect="#path-effect1666"
       inkscape:original-d="m 4.2404204,295.2932 c 0.00222,-8.94767 0.0042,-17.89507 0.00591,-26.84221" />
    <path
       style="fill:none;stroke:#000000;stroke-width:0.26458332px;stroke-linecap:butt;stroke-linejoin:miter;stroke-opacity:1"
       d="m 4.8746626,285.05397 c 0.2757908,0.0709 0.5514009,0.14179 1.0590922,0.19294 0.5076913,0.0512 1.2483891,0.0827 1.988341,0.11417"
       id="path1668"
       inkscape:connector-curvature="0"
       inkscape:path-effect="#path-effect1670"
       inkscape:original-d="m 4.8746626,285.05397 c 0.2758723,0.0706 0.55148,0.14148 0.8268229,0.21261 0.7399729,0.0312 1.4806716,0.0627 2.2206103,0.0945"
       transform="translate(0,-3.8998196)" />
    <path
       style="fill:none;stroke:#000000;stroke-width:0.26458332px;stroke-linecap:butt;stroke-linejoin:miter;stroke-opacity:1"
       d="m 9.0905503,285.46002 c 2.8414847,0.203 5.6827177,0.40599 8.5237117,0.60896"
       id="path1672"
       inkscape:connector-curvature="0"
       inkscape:path-effect="#path-effect1674"
       inkscape:original-d="m 9.0905503,285.46002 c 2.8415047,0.20272 5.6827377,0.40571 8.5237117,0.60896"
       transform="translate(0,-3.8998196)"
       sodipodi:nodetypes="cc" />
    <path
       style="fill:none;stroke:#000000;stroke-width:0.26458332px;stroke-linecap:butt;stroke-linejoin:miter;stroke-opacity:1"
       d="m 19.092351,286.14154 c 0.558411,0.068 1.116587,0.1359 1.674537,0.20381"
       id="path1676"
       inkscape:connector-curvature="0"
       inkscape:path-effect="#path-effect1678"
       inkscape:original-d="m 19.092351,286.14154 c 0.558443,0.0677 1.116622,0.13561 1.674537,0.20381"
       transform="translate(0,-3.8998196)"
       sodipodi:nodetypes="cc" />
    <path
       style="fill:none;stroke:#000000;stroke-width:0.26458332px;stroke-linecap:butt;stroke-linejoin:miter;stroke-opacity:1"
       d="m 22.545049,286.51863 c 0.801251,0.10345 1.636382,0.21127 2.127382,0.65073 0.490999,0.43946 0.654846,1.21245 0.728856,1.77995 0.07401,0.56749 0.05802,0.92893 0.04202,1.29055"
       id="path1680"
       inkscape:connector-curvature="0"
       inkscape:path-effect="#path-effect1682"
       inkscape:original-d="m 22.545049,286.51863 c 0.801289,0.10315 1.636421,0.21097 2.454472,0.31689 0.164216,0.77323 0.328062,1.54623 0.491758,2.32003 -0.01573,0.36126 -0.03172,0.7227 -0.04797,1.08431"
       sodipodi:nodetypes="cccc"
       transform="translate(0,-3.8998196)" />
    <path
       style="fill:none;stroke:#000000;stroke-width:0.26458332px;stroke-linecap:butt;stroke-linejoin:miter;stroke-opacity:1"
       d="m 16.290123,258.8834 c 0.449215,0.31774 0.913221,0.64594 0.913374,0.95762 1.54e-4,0.31168 -0.456483,0.61239 -0.913374,0.91327"
       id="path1696"
       inkscape:connector-curvature="0"
       inkscape:path-effect="#path-effect1698"
       inkscape:original-d="m 16.290123,258.8834 c 0.445714,0.32269 0.913435,0.64564 1.369756,0.96886 -0.456269,0.30038 -0.912906,0.60109 -1.369756,0.90203" />
    <path
       inkscape:original-d="m 16.290123,258.8834 c 0.445714,0.32269 0.913435,0.64564 1.369756,0.96886 -0.456269,0.30038 -0.912906,0.60109 -1.369756,0.90203"
       inkscape:path-effect="#path-effect1712"
       inkscape:connector-curvature="0"
       id="path1710"
       d="m 16.290123,258.8834 c 0.449215,0.31774 0.913221,0.64594 0.913374,0.95762 1.54e-4,0.31168 -0.456483,0.61239 -0.913374,0.91327"
       style="fill:none;stroke:#000000;stroke-width:0.26458332px;stroke-linecap:butt;stroke-linejoin:miter;stroke-opacity:1"
       transform="translate(0,35.500222)" />
    <path
       transform="matrix(0.99160072,0,0,0.25389998,21.250771,191.6075)"
       style="fill:none;stroke:#000000;stroke-width:0.26458332px;stroke-linecap:butt;stroke-linejoin:miter;stroke-opacity:1"
       d="m 4.2404204,295.2932 0.00591,-26.84221"
       id="path1851"
       inkscape:connector-curvature="0"
       inkscape:path-effect="#path-effect1853"
       inkscape:original-d="m 4.2404204,295.2932 c 0.00222,-8.94767 0.0042,-17.89507 0.00591,-26.84221" />
    <path
       inkscape:original-d="m 4.2404204,295.2932 c 0.00222,-8.94767 0.0042,-17.89507 0.00591,-26.84221"
       inkscape:path-effect="#path-effect1996"
       inkscape:connector-curvature="0"
       id="path1994"
       d="m 4.2404204,295.2932 0.00591,-26.84221"
       style="fill:none;stroke:#000000;stroke-width:0.26458332px;stroke-linecap:butt;stroke-linejoin:miter;stroke-opacity:1"
       transform="matrix(0.99249109,0,0,0.19602411,21.246993,237.3974)" />
  </g>
  <g
     inkscape:groupmode="layer"
     id="layer6"
     inkscape:label="Layer 2"
     transform="translate(-1.1893949,8.224603)" />
  <g
     inkscape:groupmode="layer"
     id="layer7"
     inkscape:label="Layer 3"
     transform="translate(-1.1893949,8.224603)">
    <rect
       style="fill:#ffffff;fill-opacity:1;stroke:#000000;stroke-width:0.1359272;stroke-miterlimit:4;stroke-dasharray:none;stroke-opacity:1"
       id="rect9112"
       width="18.639833"
       height="4.223"
       x="3.6693585"
       y="2.6972213" />
    <g
       id="g1802"
       ns1:jacobian_sqrt="0.359296"
       inkscapeversion="0.92.4"
       ns1:alignment="middle center"
       ns1:scale="1.01847629518"
       ns1:preamble="C:\\Users\\alexp\\AppData\\Roaming\\inkscape\\extensions\\textext\\default_packages.tex"
       ns1:text="$\\tilde{y}_\\lambda$"
       ns1:pdfconverter="pdf2svg"
       ns1:texconverter="pdflatex"
       ns1:version="0.11.0"
       transform="matrix(0.359296,0,0,0.359296,-42.384726,-42.863779)">
      <g
         id="surface1">
        <g
           id="g1791"
           style="fill:#000000;fill-opacity:1">
          <path
             id="path1789"
             transform="translate(149.396,134.765)"
             d="M 4.140625,-6.515625 3.984375,-6.65625 c 0,0 -0.375,0.46875 -0.8125,0.46875 -0.234375,0 -0.484375,-0.140625 -0.65625,-0.25 C 2.25,-6.59375 2.078125,-6.65625 1.90625,-6.65625 c -0.375,0 -0.578125,0.21875 -1.078125,0.78125 l 0.15625,0.140625 c 0,0 0.375,-0.46875 0.8125,-0.46875 0.234375,0 0.484375,0.140625 0.65625,0.234375 0.265625,0.171875 0.453125,0.234375 0.625,0.234375 0.375,0 0.5625,-0.21875 1.0625,-0.78125 z m 0,0"
             style="stroke:none;stroke-width:0"
             inkscape:connector-curvature="0" />
        </g>
        <g
           id="g1795"
           style="fill:#000000;fill-opacity:1">
          <path
             id="path1793"
             transform="translate(148.712,134.765)"
             d="m 4.84375,-3.796875 c 0.046875,-0.140625 0.046875,-0.15625 0.046875,-0.234375 0,-0.171875 -0.140625,-0.265625 -0.296875,-0.265625 -0.09375,0 -0.25,0.0625 -0.34375,0.203125 -0.015625,0.0625 -0.109375,0.359375 -0.140625,0.546875 -0.078125,0.25 -0.140625,0.53125 -0.203125,0.796875 l -0.453125,1.796875 c -0.03125,0.140625 -0.46875,0.84375 -1.125,0.84375 -0.5,0 -0.609375,-0.4375 -0.609375,-0.8125 C 1.71875,-1.375 1.890625,-2 2.21875,-2.875 2.375,-3.28125 2.421875,-3.390625 2.421875,-3.59375 c 0,-0.4375 -0.3125,-0.8125 -0.8125,-0.8125 -0.953125,0 -1.3125,1.453125 -1.3125,1.53125 0,0.109375 0.09375,0.109375 0.109375,0.109375 0.109375,0 0.109375,-0.03125 0.15625,-0.1875 0.28125,-0.9375 0.671875,-1.234375 1.015625,-1.234375 0.078125,0 0.25,0 0.25,0.3125 0,0.25 -0.109375,0.515625 -0.171875,0.703125 -0.40625,1.0625 -0.578125,1.625 -0.578125,2.09375 0,0.890625 0.625,1.1875 1.21875,1.1875 0.390625,0 0.71875,-0.171875 1,-0.453125 -0.125,0.515625 -0.25,1.015625 -0.640625,1.546875 -0.265625,0.328125 -0.640625,0.625 -1.09375,0.625 -0.140625,0 -0.59375,-0.03125 -0.765625,-0.421875 0.15625,0 0.296875,0 0.421875,-0.125 C 1.328125,1.203125 1.421875,1.0625 1.421875,0.875 1.421875,0.5625 1.15625,0.53125 1.0625,0.53125 0.828125,0.53125 0.5,0.6875 0.5,1.171875 c 0,0.5 0.4375,0.875 1.0625,0.875 1.015625,0 2.046875,-0.90625 2.328125,-2.03125 z m 0,0"
             style="stroke:none;stroke-width:0"
             inkscape:connector-curvature="0" />
        </g>
        <g
           id="g1799"
           style="fill:#000000;fill-opacity:1">
          <path
             id="path1797"
             transform="translate(153.597,136.259)"
             d="m 2.8125,-2 c 0.34375,0.796875 0.75,1.8125 0.828125,1.90625 C 3.765625,0.0625 3.890625,0.0625 4,0.0625 h 0.140625 c 0.140625,0 0.203125,0 0.203125,-0.078125 0,-0.03125 -0.015625,-0.046875 -0.03125,-0.0625 -0.078125,-0.078125 -0.15625,-0.25 -0.1875,-0.3125 l -1.6875,-4 C 2.390625,-4.515625 2.25,-4.84375 1.5,-4.84375 c -0.078125,0 -0.171875,0 -0.171875,0.109375 0,0.078125 0.0625,0.09375 0.09375,0.09375 0.15625,0.015625 0.28125,0.046875 0.453125,0.4375 L 2.703125,-2.25 0.65625,-0.390625 c -0.078125,0.0625 -0.140625,0.125 -0.140625,0.234375 0,0.171875 0.140625,0.234375 0.234375,0.234375 0.140625,0 0.21875,-0.078125 0.234375,-0.109375 z m 0,0"
             style="stroke:none;stroke-width:0"
             inkscape:connector-curvature="0" />
        </g>
      </g>
    </g>
    <rect
       style="fill:#ffffff;fill-opacity:1;stroke:#000000;stroke-width:0.1359272;stroke-miterlimit:4;stroke-dasharray:none;stroke-opacity:1"
       id="rect1833"
       width="22.84"
       height="4.223"
       x="3.6693585"
       y="-3.0027802" />
    <g
       id="g1963"
       ns1:jacobian_sqrt="0.359296"
       inkscapeversion="0.92.4"
       ns1:alignment="middle center"
       ns1:scale="1.01847629518"
       ns1:preamble="C:\\Users\\alexp\\AppData\\Roaming\\inkscape\\extensions\\textext\\default_packages.tex"
       ns1:text="$\\tilde{y}_\\mu$"
       ns1:pdfconverter="pdf2svg"
       ns1:texconverter="pdflatex"
       ns1:version="0.11.0"
       transform="matrix(0.359296,0,0,0.359296,-42.412898,-48.631463)">
      <g
         id="g1961">
        <g
           id="g1951"
           style="fill:#000000;fill-opacity:1">
          <path
             id="path1949"
             transform="translate(149.396,134.765)"
             d="M 4.140625,-6.515625 3.984375,-6.65625 c 0,0 -0.375,0.46875 -0.8125,0.46875 -0.234375,0 -0.484375,-0.140625 -0.65625,-0.25 C 2.25,-6.59375 2.078125,-6.65625 1.90625,-6.65625 c -0.375,0 -0.578125,0.21875 -1.078125,0.78125 l 0.15625,0.140625 c 0,0 0.375,-0.46875 0.8125,-0.46875 0.234375,0 0.484375,0.140625 0.65625,0.234375 0.265625,0.171875 0.453125,0.234375 0.625,0.234375 0.375,0 0.5625,-0.21875 1.0625,-0.78125 z m 0,0"
             style="stroke:none;stroke-width:0"
             inkscape:connector-curvature="0" />
        </g>
        <g
           id="g1955"
           style="fill:#000000;fill-opacity:1">
          <path
             id="path1953"
             transform="translate(148.712,134.765)"
             d="m 4.84375,-3.796875 c 0.046875,-0.140625 0.046875,-0.15625 0.046875,-0.234375 0,-0.171875 -0.140625,-0.265625 -0.296875,-0.265625 -0.09375,0 -0.25,0.0625 -0.34375,0.203125 -0.015625,0.0625 -0.109375,0.359375 -0.140625,0.546875 -0.078125,0.25 -0.140625,0.53125 -0.203125,0.796875 l -0.453125,1.796875 c -0.03125,0.140625 -0.46875,0.84375 -1.125,0.84375 -0.5,0 -0.609375,-0.4375 -0.609375,-0.8125 C 1.71875,-1.375 1.890625,-2 2.21875,-2.875 2.375,-3.28125 2.421875,-3.390625 2.421875,-3.59375 c 0,-0.4375 -0.3125,-0.8125 -0.8125,-0.8125 -0.953125,0 -1.3125,1.453125 -1.3125,1.53125 0,0.109375 0.09375,0.109375 0.109375,0.109375 0.109375,0 0.109375,-0.03125 0.15625,-0.1875 0.28125,-0.9375 0.671875,-1.234375 1.015625,-1.234375 0.078125,0 0.25,0 0.25,0.3125 0,0.25 -0.109375,0.515625 -0.171875,0.703125 -0.40625,1.0625 -0.578125,1.625 -0.578125,2.09375 0,0.890625 0.625,1.1875 1.21875,1.1875 0.390625,0 0.71875,-0.171875 1,-0.453125 -0.125,0.515625 -0.25,1.015625 -0.640625,1.546875 -0.265625,0.328125 -0.640625,0.625 -1.09375,0.625 -0.140625,0 -0.59375,-0.03125 -0.765625,-0.421875 0.15625,0 0.296875,0 0.421875,-0.125 C 1.328125,1.203125 1.421875,1.0625 1.421875,0.875 1.421875,0.5625 1.15625,0.53125 1.0625,0.53125 0.828125,0.53125 0.5,0.6875 0.5,1.171875 c 0,0.5 0.4375,0.875 1.0625,0.875 1.015625,0 2.046875,-0.90625 2.328125,-2.03125 z m 0,0"
             style="stroke:none;stroke-width:0"
             inkscape:connector-curvature="0" />
        </g>
        <g
           id="g1959"
           style="fill:#000000;fill-opacity:1">
          <path
             id="path1957"
             transform="translate(153.597,136.259)"
             d="M 0.375,1.125 C 0.34375,1.21875 0.34375,1.265625 0.34375,1.265625 c 0,0.15625 0.125,0.21875 0.234375,0.21875 0.265625,0 0.3125,-0.21875 0.34375,-0.34375 0.015625,-0.03125 0.15625,-0.59375 0.3125,-1.265625 0.21875,0.140625 0.5,0.1875 0.75,0.1875 0.59375,0 0.984375,-0.484375 1,-0.5 0.140625,0.484375 0.625,0.5 0.71875,0.5 0.25,0 0.421875,-0.140625 0.5625,-0.359375 C 4.40625,-0.578125 4.5,-0.96875 4.5,-1 c 0,-0.09375 -0.09375,-0.09375 -0.109375,-0.09375 -0.09375,0 -0.109375,0.03125 -0.15625,0.21875 -0.078125,0.34375 -0.21875,0.75 -0.5,0.75 C 3.546875,-0.125 3.5,-0.28125 3.5,-0.46875 c 0,-0.109375 0.046875,-0.375 0.109375,-0.546875 0.046875,-0.1875 0.109375,-0.46875 0.140625,-0.625 l 0.171875,-0.625 C 3.953125,-2.4375 4.03125,-2.75 4.03125,-2.78125 4.03125,-2.921875 3.921875,-3 3.8125,-3 3.734375,-3 3.59375,-2.96875 3.515625,-2.84375 3.5,-2.796875 3.4375,-2.578125 3.40625,-2.4375 l -0.140625,0.578125 -0.21875,0.875 C 3,-0.8125 3,-0.796875 2.9375,-0.703125 2.71875,-0.390625 2.40625,-0.125 2.015625,-0.125 1.4375,-0.125 1.4375,-0.625 1.4375,-0.75 c 0,-0.171875 0.03125,-0.265625 0.125,-0.640625 0.0625,-0.3125 0.078125,-0.359375 0.15625,-0.625 L 1.8125,-2.40625 c 0.03125,-0.15625 0.109375,-0.421875 0.109375,-0.4375 0,-0.125 -0.109375,-0.234375 -0.25,-0.234375 -0.25,0 -0.3125,0.25 -0.328125,0.328125 z m 0,0"
             style="stroke:none;stroke-width:0"
             inkscape:connector-curvature="0" />
        </g>
      </g>
    </g>
    <rect
       y="19.197208"
       x="3.6693585"
       height="4.223"
       width="22.84"
       id="rect1976"
       style="fill:#ffffff;fill-opacity:1;stroke:#000000;stroke-width:0.1359272;stroke-miterlimit:4;stroke-dasharray:none;stroke-opacity:1" />
    <g
       transform="matrix(0.359296,0,0,0.359296,-42.412898,-26.431457)"
       ns1:version="0.11.0"
       ns1:texconverter="pdflatex"
       ns1:pdfconverter="pdf2svg"
       ns1:text="$\\tilde{y}_\\mu$"
       ns1:preamble="C:\\Users\\alexp\\AppData\\Roaming\\inkscape\\extensions\\textext\\default_packages.tex"
       ns1:scale="1.01847629518"
       ns1:alignment="middle center"
       inkscapeversion="0.92.4"
       ns1:jacobian_sqrt="0.359296"
       id="g1992">
      <g
         id="g1990">
        <g
           style="fill:#000000;fill-opacity:1"
           id="g1980">
          <path
             inkscape:connector-curvature="0"
             style="stroke:none;stroke-width:0"
             d="M 4.140625,-6.515625 3.984375,-6.65625 c 0,0 -0.375,0.46875 -0.8125,0.46875 -0.234375,0 -0.484375,-0.140625 -0.65625,-0.25 C 2.25,-6.59375 2.078125,-6.65625 1.90625,-6.65625 c -0.375,0 -0.578125,0.21875 -1.078125,0.78125 l 0.15625,0.140625 c 0,0 0.375,-0.46875 0.8125,-0.46875 0.234375,0 0.484375,0.140625 0.65625,0.234375 0.265625,0.171875 0.453125,0.234375 0.625,0.234375 0.375,0 0.5625,-0.21875 1.0625,-0.78125 z m 0,0"
             transform="translate(149.396,134.765)"
             id="path1978" />
        </g>
        <g
           style="fill:#000000;fill-opacity:1"
           id="g1984">
          <path
             inkscape:connector-curvature="0"
             style="stroke:none;stroke-width:0"
             d="m 4.84375,-3.796875 c 0.046875,-0.140625 0.046875,-0.15625 0.046875,-0.234375 0,-0.171875 -0.140625,-0.265625 -0.296875,-0.265625 -0.09375,0 -0.25,0.0625 -0.34375,0.203125 -0.015625,0.0625 -0.109375,0.359375 -0.140625,0.546875 -0.078125,0.25 -0.140625,0.53125 -0.203125,0.796875 l -0.453125,1.796875 c -0.03125,0.140625 -0.46875,0.84375 -1.125,0.84375 -0.5,0 -0.609375,-0.4375 -0.609375,-0.8125 C 1.71875,-1.375 1.890625,-2 2.21875,-2.875 2.375,-3.28125 2.421875,-3.390625 2.421875,-3.59375 c 0,-0.4375 -0.3125,-0.8125 -0.8125,-0.8125 -0.953125,0 -1.3125,1.453125 -1.3125,1.53125 0,0.109375 0.09375,0.109375 0.109375,0.109375 0.109375,0 0.109375,-0.03125 0.15625,-0.1875 0.28125,-0.9375 0.671875,-1.234375 1.015625,-1.234375 0.078125,0 0.25,0 0.25,0.3125 0,0.25 -0.109375,0.515625 -0.171875,0.703125 -0.40625,1.0625 -0.578125,1.625 -0.578125,2.09375 0,0.890625 0.625,1.1875 1.21875,1.1875 0.390625,0 0.71875,-0.171875 1,-0.453125 -0.125,0.515625 -0.25,1.015625 -0.640625,1.546875 -0.265625,0.328125 -0.640625,0.625 -1.09375,0.625 -0.140625,0 -0.59375,-0.03125 -0.765625,-0.421875 0.15625,0 0.296875,0 0.421875,-0.125 C 1.328125,1.203125 1.421875,1.0625 1.421875,0.875 1.421875,0.5625 1.15625,0.53125 1.0625,0.53125 0.828125,0.53125 0.5,0.6875 0.5,1.171875 c 0,0.5 0.4375,0.875 1.0625,0.875 1.015625,0 2.046875,-0.90625 2.328125,-2.03125 z m 0,0"
             transform="translate(148.712,134.765)"
             id="path1982" />
        </g>
        <g
           style="fill:#000000;fill-opacity:1"
           id="g1988">
          <path
             inkscape:connector-curvature="0"
             style="stroke:none;stroke-width:0"
             d="M 0.375,1.125 C 0.34375,1.21875 0.34375,1.265625 0.34375,1.265625 c 0,0.15625 0.125,0.21875 0.234375,0.21875 0.265625,0 0.3125,-0.21875 0.34375,-0.34375 0.015625,-0.03125 0.15625,-0.59375 0.3125,-1.265625 0.21875,0.140625 0.5,0.1875 0.75,0.1875 0.59375,0 0.984375,-0.484375 1,-0.5 0.140625,0.484375 0.625,0.5 0.71875,0.5 0.25,0 0.421875,-0.140625 0.5625,-0.359375 C 4.40625,-0.578125 4.5,-0.96875 4.5,-1 c 0,-0.09375 -0.09375,-0.09375 -0.109375,-0.09375 -0.09375,0 -0.109375,0.03125 -0.15625,0.21875 -0.078125,0.34375 -0.21875,0.75 -0.5,0.75 C 3.546875,-0.125 3.5,-0.28125 3.5,-0.46875 c 0,-0.109375 0.046875,-0.375 0.109375,-0.546875 0.046875,-0.1875 0.109375,-0.46875 0.140625,-0.625 l 0.171875,-0.625 C 3.953125,-2.4375 4.03125,-2.75 4.03125,-2.78125 4.03125,-2.921875 3.921875,-3 3.8125,-3 3.734375,-3 3.59375,-2.96875 3.515625,-2.84375 3.5,-2.796875 3.4375,-2.578125 3.40625,-2.4375 l -0.140625,0.578125 -0.21875,0.875 C 3,-0.8125 3,-0.796875 2.9375,-0.703125 2.71875,-0.390625 2.40625,-0.125 2.015625,-0.125 1.4375,-0.125 1.4375,-0.625 1.4375,-0.75 c 0,-0.171875 0.03125,-0.265625 0.125,-0.640625 0.0625,-0.3125 0.078125,-0.359375 0.15625,-0.625 L 1.8125,-2.40625 c 0.03125,-0.15625 0.109375,-0.421875 0.109375,-0.4375 0,-0.125 -0.109375,-0.234375 -0.25,-0.234375 -0.25,0 -0.3125,0.25 -0.328125,0.328125 z m 0,0"
             transform="translate(153.597,136.259)"
             id="path1986" />
        </g>
      </g>
    </g>
  </g>
  <g
     id="ltx-render-layer"
     inkscape:groupmode="layer"
     inkscape:label="Rendered Latex"
     ns0:preamble=""
     ns0:packages=""
     ns0:scale="1.0"
     ns0:depth="0.0"
     ns0:fontsize="10.0"
     ns0:newline="False"
     ns0:math="False"
     style="display:inline"
     transform="translate(-1.1893949,8.224603)" />
</svg>
