<?xml version="1.0" encoding="UTF-8" standalone="no"?>
<svg
   xmlns:ns0="http://NOTSET"
   xmlns:ns1="http://www.iki.fi/pav/software/textext/"
   xmlns:dc="http://purl.org/dc/elements/1.1/"
   xmlns:cc="http://creativecommons.org/ns#"
   xmlns:rdf="http://www.w3.org/1999/02/22-rdf-syntax-ns#"
   xmlns:svg="http://www.w3.org/2000/svg"
   xmlns="http://www.w3.org/2000/svg"
   xmlns:sodipodi="http://sodipodi.sourceforge.net/DTD/sodipodi-0.dtd"
   xmlns:inkscape="http://www.inkscape.org/namespaces/inkscape"
   width="27.536676mm"
   height="37.998638mm"
   viewBox="0 0 27.536676 37.998638"
   version="1.1"
   id="svg7849"
   inkscape:version="1.0.2-2 (e86c870879, 2021-01-15)"
   sodipodi:docname="JWshelly1wrapb2.svg">
  <defs
     id="defs7843">
    <inkscape:path-effect
       effect="bspline"
       id="path-effect7224"
       is_visible="true"
       weight="33.333333"
       steps="2"
       helper_size="0"
       apply_no_weight="true"
       apply_with_weight="true"
       only_selected="false" />
    <inkscape:path-effect
       effect="bspline"
       id="path-effect7220"
       is_visible="true"
       weight="33.333333"
       steps="2"
       helper_size="0"
       apply_no_weight="true"
       apply_with_weight="true"
       only_selected="false" />
    <inkscape:path-effect
       effect="bspline"
       id="path-effect7216"
       is_visible="true"
       weight="33.333333"
       steps="2"
       helper_size="0"
       apply_no_weight="true"
       apply_with_weight="true"
       only_selected="false" />
    <inkscape:path-effect
       effect="bspline"
       id="path-effect6451"
       is_visible="true"
       weight="33.333333"
       steps="2"
       helper_size="0"
       apply_no_weight="true"
       apply_with_weight="true"
       only_selected="false" />
    <inkscape:path-effect
       effect="bspline"
       id="path-effect6447"
       is_visible="true"
       weight="33.333333"
       steps="2"
       helper_size="0"
       apply_no_weight="true"
       apply_with_weight="true"
       only_selected="false" />
    <inkscape:path-effect
       effect="bspline"
       id="path-effect6443"
       is_visible="true"
       weight="33.333333"
       steps="2"
       helper_size="0"
       apply_no_weight="true"
       apply_with_weight="true"
       only_selected="false" />
    <inkscape:path-effect
       effect="bspline"
       id="path-effect6439"
       is_visible="true"
       weight="33.333333"
       steps="2"
       helper_size="0"
       apply_no_weight="true"
       apply_with_weight="true"
       only_selected="false" />
    <inkscape:path-effect
       effect="bspline"
       id="path-effect6435"
       is_visible="true"
       weight="33.333333"
       steps="2"
       helper_size="0"
       apply_no_weight="true"
       apply_with_weight="true"
       only_selected="false" />
    <inkscape:path-effect
       effect="bspline"
       id="path-effect6431"
       is_visible="true"
       weight="33.333333"
       steps="2"
       helper_size="0"
       apply_no_weight="true"
       apply_with_weight="true"
       only_selected="false" />
    <inkscape:path-effect
       effect="bspline"
       id="path-effect6419"
       is_visible="true"
       weight="33.333333"
       steps="2"
       helper_size="0"
       apply_no_weight="true"
       apply_with_weight="true"
       only_selected="false" />
    <inkscape:path-effect
       effect="bspline"
       id="path-effect6415"
       is_visible="true"
       weight="33.333333"
       steps="2"
       helper_size="0"
       apply_no_weight="true"
       apply_with_weight="true"
       only_selected="false" />
    <inkscape:path-effect
       effect="bspline"
       id="path-effect6411"
       is_visible="true"
       weight="33.333333"
       steps="2"
       helper_size="0"
       apply_no_weight="true"
       apply_with_weight="true"
       only_selected="false" />
    <inkscape:path-effect
       effect="bspline"
       id="path-effect6407"
       is_visible="true"
       weight="33.333333"
       steps="2"
       helper_size="0"
       apply_no_weight="true"
       apply_with_weight="true"
       only_selected="false" />
    <inkscape:path-effect
       effect="bspline"
       id="path-effect6403"
       is_visible="true"
       weight="33.333333"
       steps="2"
       helper_size="0"
       apply_no_weight="true"
       apply_with_weight="true"
       only_selected="false" />
    <inkscape:path-effect
       effect="bspline"
       id="path-effect6395"
       is_visible="true"
       weight="33.333333"
       steps="2"
       helper_size="0"
       apply_no_weight="true"
       apply_with_weight="true"
       only_selected="false" />
    <inkscape:path-effect
       effect="bspline"
       id="path-effect6391"
       is_visible="true"
       weight="33.333333"
       steps="2"
       helper_size="0"
       apply_no_weight="true"
       apply_with_weight="true"
       only_selected="false" />
    <inkscape:path-effect
       effect="bspline"
       id="path-effect6387"
       is_visible="true"
       weight="33.333333"
       steps="2"
       helper_size="0"
       apply_no_weight="true"
       apply_with_weight="true"
       only_selected="false" />
    <inkscape:path-effect
       effect="bspline"
       id="path-effect6383"
       is_visible="true"
       weight="33.333333"
       steps="2"
       helper_size="0"
       apply_no_weight="true"
       apply_with_weight="true"
       only_selected="false" />
    <inkscape:path-effect
       effect="bspline"
       id="path-effect6379"
       is_visible="true"
       weight="33.333333"
       steps="2"
       helper_size="0"
       apply_no_weight="true"
       apply_with_weight="true"
       only_selected="false" />
    <inkscape:path-effect
       effect="bspline"
       id="path-effect6375"
       is_visible="true"
       weight="33.333333"
       steps="2"
       helper_size="0"
       apply_no_weight="true"
       apply_with_weight="true"
       only_selected="false" />
    <inkscape:path-effect
       effect="bspline"
       id="path-effect6371"
       is_visible="true"
       weight="33.333333"
       steps="2"
       helper_size="0"
       apply_no_weight="true"
       apply_with_weight="true"
       only_selected="false" />
    <inkscape:path-effect
       effect="bspline"
       id="path-effect6363"
       is_visible="true"
       weight="33.333333"
       steps="2"
       helper_size="0"
       apply_no_weight="true"
       apply_with_weight="true"
       only_selected="false" />
    <inkscape:path-effect
       effect="bspline"
       id="path-effect6359"
       is_visible="true"
       weight="33.333333"
       steps="2"
       helper_size="0"
       apply_no_weight="true"
       apply_with_weight="true"
       only_selected="false" />
    <inkscape:path-effect
       effect="spiro"
       id="path-effect9147"
       is_visible="true" />
    <inkscape:path-effect
       is_visible="true"
       id="path-effect9143"
       effect="spiro" />
    <inkscape:path-effect
       effect="spiro"
       id="path-effect9135"
       is_visible="true" />
    <inkscape:path-effect
       is_visible="true"
       id="path-effect9131"
       effect="spiro" />
    <inkscape:path-effect
       effect="spiro"
       id="path-effect9127"
       is_visible="true" />
  </defs>
  <sodipodi:namedview
     id="base"
     pagecolor="#ffffff"
     bordercolor="#666666"
     borderopacity="1.0"
     inkscape:pageopacity="0.0"
     inkscape:pageshadow="2"
     inkscape:zoom="7.5912225"
     inkscape:cx="54.830461"
     inkscape:cy="54.654276"
     inkscape:document-units="mm"
     inkscape:current-layer="layer1"
     showgrid="false"
     inkscape:window-width="1920"
     inkscape:window-height="986"
     inkscape:window-x="-11"
     inkscape:window-y="-11"
     inkscape:window-maximized="1"
     fit-margin-top="0"
     fit-margin-left="0"
     fit-margin-right="0"
     fit-margin-bottom="0"
     inkscape:document-rotation="0" />
  <metadata
     id="metadata7846">
    <rdf:RDF>
      <cc:Work
         rdf:about="">
        <dc:format>image/svg+xml</dc:format>
        <dc:type
           rdf:resource="http://purl.org/dc/dcmitype/StillImage" />
        <dc:title />
      </cc:Work>
    </rdf:RDF>
  </metadata>
  <g
     inkscape:label="Layer 1"
     inkscape:groupmode="layer"
     id="layer1"
     transform="translate(-1.1893949,-258.53636)"
     style="display:inline">
    <rect
       transform="scale(1,-1)"
       style="display:inline;fill:none;fill-opacity:1;stroke:#000000;stroke-width:0.6831103;stroke-miterlimit:4;stroke-dasharray:none;stroke-opacity:1;enable-background:new"
       id="rect1065"
       width="26.853565"
       height="35.513"
       x="1.5309501"
       y="-295.33069" />
    <g
       style="display:inline;enable-background:new"
       id="g1107"
       transform="matrix(2.7536675,0,0,-2.7536675,-68.067333,302.4137)">
      <g
         id="g9092">
        <circle
           style="fill:#000000;fill-opacity:1;stroke:#000000;stroke-width:0.21261953;stroke-miterlimit:4;stroke-dasharray:none;stroke-opacity:1"
           id="circle1099"
           cx="26.259581"
           cy="15.492981"
           r="0.33485466" />
        <circle
           r="0.33485466"
           cy="15.467924"
           cx="34.122913"
           id="circle1101"
           style="fill:#000000;fill-opacity:1;stroke:#000000;stroke-width:0.21261953;stroke-miterlimit:4;stroke-dasharray:none;stroke-opacity:1" />
        <circle
           r="0.33485466"
           cy="15.492981"
           cx="27.828033"
           id="circle1103"
           style="fill:#000000;fill-opacity:1;stroke:#000000;stroke-width:0.21261953;stroke-miterlimit:4;stroke-dasharray:none;stroke-opacity:1" />
        <circle
           style="fill:#000000;fill-opacity:1;stroke:#000000;stroke-width:0.21261953;stroke-miterlimit:4;stroke-dasharray:none;stroke-opacity:1"
           id="circle1105"
           cx="32.554459"
           cy="15.467924"
           r="0.33485466" />
        <circle
           style="fill:#000000;fill-opacity:1;stroke:#000000;stroke-width:0.21261953;stroke-miterlimit:4;stroke-dasharray:none;stroke-opacity:1"
           id="circle9085"
           cx="29.396488"
           cy="15.492981"
           r="0.33485466" />
      </g>
    </g>
    <g
       transform="matrix(2.7536675,0,0,-2.7536675,-68.067333,337.9137)"
       id="g9106"
       style="display:inline;enable-background:new">
      <g
         id="g9104">
        <circle
           r="0.33485466"
           cy="15.492981"
           cx="26.259581"
           id="circle9094"
           style="fill:#000000;fill-opacity:1;stroke:#000000;stroke-width:0.21261953;stroke-miterlimit:4;stroke-dasharray:none;stroke-opacity:1" />
        <circle
           style="fill:#000000;fill-opacity:1;stroke:#000000;stroke-width:0.21261953;stroke-miterlimit:4;stroke-dasharray:none;stroke-opacity:1"
           id="circle9096"
           cx="34.122913"
           cy="15.467924"
           r="0.33485466" />
        <circle
           style="fill:#000000;fill-opacity:1;stroke:#000000;stroke-width:0.21261953;stroke-miterlimit:4;stroke-dasharray:none;stroke-opacity:1"
           id="circle9098"
           cx="27.828033"
           cy="15.492981"
           r="0.33485466" />
        <circle
           r="0.33485466"
           cy="15.467924"
           cx="32.554459"
           id="circle9100"
           style="fill:#000000;fill-opacity:1;stroke:#000000;stroke-width:0.21261953;stroke-miterlimit:4;stroke-dasharray:none;stroke-opacity:1" />
        <circle
           r="0.33485466"
           cy="15.492981"
           cx="29.396488"
           id="circle9102"
           style="fill:#000000;fill-opacity:1;stroke:#000000;stroke-width:0.21261953;stroke-miterlimit:4;stroke-dasharray:none;stroke-opacity:1" />
      </g>
    </g>
    <path
       style="fill:none;stroke:#000000;stroke-width:0.26458332px;stroke-linecap:butt;stroke-linejoin:miter;stroke-opacity:1"
       d="m 4.2404204,295.2932 0.00591,-26.84221"
       id="path9125"
       inkscape:connector-curvature="0"
       inkscape:path-effect="#path-effect9127"
       inkscape:original-d="m 4.2404204,295.2932 c 0.00222,-8.94767 0.0042,-17.89507 0.00591,-26.84221"
       transform="matrix(0.99125806,0,0,0.838743,0.03573923,47.619816)" />
    <path
       inkscape:original-d="m 4.2404204,295.2932 c 0.00222,-8.94767 0.0042,-17.89507 0.00591,-26.84221"
       inkscape:path-effect="#path-effect9131"
       inkscape:connector-curvature="0"
       id="path9129"
       d="m 4.2404204,295.2932 0.00591,-26.84221"
       style="fill:none;stroke:#000000;stroke-width:0.26458332px;stroke-linecap:butt;stroke-linejoin:miter;stroke-opacity:1"
       transform="matrix(0.99119103,0,0,0.84478318,4.3364339,45.83621)" />
    <path
       transform="matrix(0.99178899,0,0,0.76807481,8.6344354,68.487411)"
       style="fill:none;stroke:#000000;stroke-width:0.264583px;stroke-linecap:butt;stroke-linejoin:miter;stroke-opacity:1"
       d="m 4.2404204,295.2932 0.00591,-38.30007"
       id="path9133"
       inkscape:connector-curvature="0"
       inkscape:path-effect="#path-effect9135"
       inkscape:original-d="m 4.2404204,295.2932 c 0.00222,-8.94767 0.0042,-29.35293 0.00591,-38.30007"
       sodipodi:nodetypes="cc" />
    <path
       inkscape:original-d="m 4.2404204,295.2932 c 0.00222,-8.94767 0.0042,-17.89507 0.00591,-26.84221"
       inkscape:path-effect="#path-effect9143"
       inkscape:connector-curvature="0"
       id="path9141"
       d="m 4.2404204,295.2932 0.00591,-26.84221"
       style="fill:none;stroke:#000000;stroke-width:0.26458332px;stroke-linecap:butt;stroke-linejoin:miter;stroke-opacity:1"
       transform="matrix(0.99795887,0,0,0.20093278,17.35135,235.95895)" />
    <g
       transform="translate(1.3671717,21.807118)"
       id="g9170">
      <path
         d="m 14.886938,271.88588 a 0.23386084,0.23386084 0 0 1 -0.329771,-0.0223 0.23386084,0.23386084 0 0 1 0.02193,-0.3298 0.23386084,0.23386084 0 0 1 0.329825,0.0215 0.23386084,0.23386084 0 0 1 -0.02112,0.32985"
         sodipodi:open="true"
         sodipodi:end="0.84871696"
         sodipodi:start="0.85362483"
         sodipodi:ry="0.23386084"
         sodipodi:rx="0.23386084"
         sodipodi:cy="271.70963"
         sodipodi:cx="14.733232"
         sodipodi:type="arc"
         id="path9164"
         style="fill:#000000;fill-opacity:1;stroke:#000000;stroke-width:0.14999999;stroke-miterlimit:4;stroke-dasharray:none;stroke-opacity:1" />
      <path
         style="fill:#000000;fill-opacity:1;stroke:#000000;stroke-width:0.14999999;stroke-miterlimit:4;stroke-dasharray:none;stroke-opacity:1"
         id="path9166"
         sodipodi:type="arc"
         sodipodi:cx="15.833404"
         sodipodi:cy="271.70963"
         sodipodi:rx="0.23386084"
         sodipodi:ry="0.23386084"
         sodipodi:start="0.85362483"
         sodipodi:end="0.84871696"
         sodipodi:open="true"
         d="m 15.98711,271.88588 a 0.23386084,0.23386084 0 0 1 -0.329771,-0.0223 0.23386084,0.23386084 0 0 1 0.02193,-0.3298 0.23386084,0.23386084 0 0 1 0.329825,0.0215 0.23386084,0.23386084 0 0 1 -0.02112,0.32985" />
      <path
         d="m 17.087109,271.88588 a 0.23386084,0.23386084 0 0 1 -0.329771,-0.0223 0.23386084,0.23386084 0 0 1 0.02193,-0.3298 0.23386084,0.23386084 0 0 1 0.329824,0.0215 0.23386084,0.23386084 0 0 1 -0.02112,0.32985"
         sodipodi:open="true"
         sodipodi:end="0.84871696"
         sodipodi:start="0.85362483"
         sodipodi:ry="0.23386084"
         sodipodi:rx="0.23386084"
         sodipodi:cy="271.70963"
         sodipodi:cx="16.933403"
         sodipodi:type="arc"
         id="path9168"
         style="fill:#000000;fill-opacity:1;stroke:#000000;stroke-width:0.14999999;stroke-miterlimit:4;stroke-dasharray:none;stroke-opacity:1" />
    </g>
    <g
       id="g1065"
       transform="translate(1.3671717,8.5069711)">
      <path
         style="fill:#000000;fill-opacity:1;stroke:#000000;stroke-width:0.14999999;stroke-miterlimit:4;stroke-dasharray:none;stroke-opacity:1"
         id="path1059"
         sodipodi:type="arc"
         sodipodi:cx="14.733232"
         sodipodi:cy="271.70963"
         sodipodi:rx="0.23386084"
         sodipodi:ry="0.23386084"
         sodipodi:start="0.85362483"
         sodipodi:end="0.84871696"
         sodipodi:open="true"
         d="m 14.886938,271.88588 a 0.23386084,0.23386084 0 0 1 -0.329771,-0.0223 0.23386084,0.23386084 0 0 1 0.02193,-0.3298 0.23386084,0.23386084 0 0 1 0.329825,0.0215 0.23386084,0.23386084 0 0 1 -0.02112,0.32985" />
      <path
         d="m 15.98711,271.88588 a 0.23386084,0.23386084 0 0 1 -0.329771,-0.0223 0.23386084,0.23386084 0 0 1 0.02193,-0.3298 0.23386084,0.23386084 0 0 1 0.329825,0.0215 0.23386084,0.23386084 0 0 1 -0.02112,0.32985"
         sodipodi:open="true"
         sodipodi:end="0.84871696"
         sodipodi:start="0.85362483"
         sodipodi:ry="0.23386084"
         sodipodi:rx="0.23386084"
         sodipodi:cy="271.70963"
         sodipodi:cx="15.833404"
         sodipodi:type="arc"
         id="path1061"
         style="fill:#000000;fill-opacity:1;stroke:#000000;stroke-width:0.14999999;stroke-miterlimit:4;stroke-dasharray:none;stroke-opacity:1" />
      <path
         style="fill:#000000;fill-opacity:1;stroke:#000000;stroke-width:0.14999999;stroke-miterlimit:4;stroke-dasharray:none;stroke-opacity:1"
         id="path1063"
         sodipodi:type="arc"
         sodipodi:cx="16.933403"
         sodipodi:cy="271.70963"
         sodipodi:rx="0.23386084"
         sodipodi:ry="0.23386084"
         sodipodi:start="0.85362483"
         sodipodi:end="0.84871696"
         sodipodi:open="true"
         d="m 17.087109,271.88588 a 0.23386084,0.23386084 0 0 1 -0.329771,-0.0223 0.23386084,0.23386084 0 0 1 0.02193,-0.3298 0.23386084,0.23386084 0 0 1 0.329824,0.0215 0.23386084,0.23386084 0 0 1 -0.02112,0.32985" />
    </g>
    <g
       transform="translate(1.3671717,-10.393031)"
       id="g6427">
      <path
         d="m 14.886938,271.88588 a 0.23386084,0.23386084 0 0 1 -0.329771,-0.0223 0.23386084,0.23386084 0 0 1 0.02193,-0.3298 0.23386084,0.23386084 0 0 1 0.329825,0.0215 0.23386084,0.23386084 0 0 1 -0.02112,0.32985"
         sodipodi:open="true"
         sodipodi:end="0.84871696"
         sodipodi:start="0.85362483"
         sodipodi:ry="0.23386084"
         sodipodi:rx="0.23386084"
         sodipodi:cy="271.70963"
         sodipodi:cx="14.733232"
         sodipodi:type="arc"
         id="path6421"
         style="fill:#000000;fill-opacity:1;stroke:#000000;stroke-width:0.14999999;stroke-miterlimit:4;stroke-dasharray:none;stroke-opacity:1" />
      <path
         style="fill:#000000;fill-opacity:1;stroke:#000000;stroke-width:0.14999999;stroke-miterlimit:4;stroke-dasharray:none;stroke-opacity:1"
         id="path6423"
         sodipodi:type="arc"
         sodipodi:cx="15.833404"
         sodipodi:cy="271.70963"
         sodipodi:rx="0.23386084"
         sodipodi:ry="0.23386084"
         sodipodi:start="0.85362483"
         sodipodi:end="0.84871696"
         sodipodi:open="true"
         d="m 15.98711,271.88588 a 0.23386084,0.23386084 0 0 1 -0.329771,-0.0223 0.23386084,0.23386084 0 0 1 0.02193,-0.3298 0.23386084,0.23386084 0 0 1 0.329825,0.0215 0.23386084,0.23386084 0 0 1 -0.02112,0.32985" />
      <path
         d="m 17.087109,271.88588 a 0.23386084,0.23386084 0 0 1 -0.329771,-0.0223 0.23386084,0.23386084 0 0 1 0.02193,-0.3298 0.23386084,0.23386084 0 0 1 0.329824,0.0215 0.23386084,0.23386084 0 0 1 -0.02112,0.32985"
         sodipodi:open="true"
         sodipodi:end="0.84871696"
         sodipodi:start="0.85362483"
         sodipodi:ry="0.23386084"
         sodipodi:rx="0.23386084"
         sodipodi:cy="271.70963"
         sodipodi:cx="16.933403"
         sodipodi:type="arc"
         id="path6425"
         style="fill:#000000;fill-opacity:1;stroke:#000000;stroke-width:0.14999999;stroke-miterlimit:4;stroke-dasharray:none;stroke-opacity:1" />
    </g>
    <path
       style="fill:none;stroke:#000000;stroke-width:0.264583px;stroke-linecap:butt;stroke-linejoin:miter;stroke-opacity:1"
       d="m 21.505615,260.72175 c -0.0083,0.31306 -0.01652,0.62623 -0.111637,0.87115 -0.09512,0.24492 -0.276676,0.42106 -0.458443,0.5974"
       id="path6429"
       inkscape:connector-curvature="0"
       inkscape:path-effect="#path-effect6431"
       inkscape:original-d="m 21.505615,260.72175 c -0.008,0.31307 -0.01625,0.62624 -0.02478,0.93953 -0.18172,0.17681 -0.5453,0.52902 -0.5453,0.52902"
       sodipodi:nodetypes="ccc" />
    <path
       style="fill:none;stroke:#000000;stroke-width:0.26458332px;stroke-linecap:butt;stroke-linejoin:miter;stroke-opacity:1"
       d="m 25.644556,260.58725 c -0.02224,0.62256 -0.04454,1.24698 -0.400897,1.74824 -0.35636,0.50127 -1.0465,0.87973 -1.737262,1.25854"
       id="path6437"
       inkscape:connector-curvature="0"
       inkscape:path-effect="#path-effect6439"
       inkscape:original-d="m 25.644556,260.58725 c 2.65e-4,0.62336 -0.04428,1.24699 -0.06682,1.87088 -0.690485,0.37854 -1.380628,0.757 -2.071339,1.1359" />
    <path
       style="fill:none;stroke:#000000;stroke-width:0.26458332px;stroke-linecap:butt;stroke-linejoin:miter;stroke-opacity:1"
       d="m 21.769148,264.93038 c -0.289256,0.24475 -0.5788,0.48975 -0.738117,0.85038 -0.159317,0.36062 -0.188085,0.83599 -0.216899,1.31209"
       id="path6441"
       inkscape:connector-curvature="0"
       inkscape:path-effect="#path-effect6443"
       inkscape:original-d="m 21.769148,264.93038 c -0.289277,0.24473 -0.578819,0.48973 -0.868626,0.73499 -0.02856,0.47603 -0.05733,0.95139 -0.08639,1.42748"
       sodipodi:nodetypes="ccc" />
    <path
       style="fill:none;stroke:#000000;stroke-width:0.26458332px;stroke-linecap:butt;stroke-linejoin:miter;stroke-opacity:1"
       d="m 4.2295857,260.4202 c 0.011129,0.37838 0.022265,0.75701 0.9472891,1.19164 0.925024,0.43463 2.7612565,0.92429 6.2021292,1.44209 3.440873,0.5178 8.486082,1.06353 11.153084,1.48668 2.667002,0.42316 2.956557,0.72385 3.079059,2.72827 0.122502,2.00442 0.07796,5.71273 -0.378505,7.68951 -0.456461,1.97678 -1.32448,2.2216 -2.110171,2.18824 -0.785691,-0.0334 -1.486836,-0.34498 -1.848832,-0.74608 -0.361997,-0.40111 -0.384266,-0.89101 -0.406528,-1.38075"
       id="path7218"
       inkscape:connector-curvature="0"
       inkscape:path-effect="#path-effect7220"
       inkscape:original-d="m 4.2295857,260.4202 c 0.011401,0.37837 0.022537,0.757 0.033409,1.1359 1.8389877,0.49006 3.6752206,0.97972 5.5124338,1.46998 5.0444795,0.54536 10.0896885,1.09109 15.1341365,1.63703 0.289793,0.3004 0.579349,0.60109 0.868626,0.90203 -0.04428,3.70816 -0.08882,7.41647 -0.133635,11.1251 -0.868425,0.24475 -1.736445,0.48957 -2.605878,0.73499 -0.701755,-0.31228 -1.4029,-0.6239 -2.104747,-0.93545 -0.02201,-0.49035 -0.04428,-0.98025 -0.06682,-1.46998"
       sodipodi:nodetypes="ccccccccc" />
    <path
       style="fill:none;stroke:#000000;stroke-width:0.26458332px;stroke-linecap:butt;stroke-linejoin:miter;stroke-opacity:1"
       d="m 21.682791,283.83736 c 0,-0.40186 0,-0.80346 0.110261,-1.19315 0.110262,-0.38969 0.330895,-0.76792 0.972272,-0.97839 0.641378,-0.21048 1.705317,-0.25382 2.325247,-0.0709 0.61993,0.18298 0.797151,0.59256 0.850323,2.83735 0.05317,2.24479 -0.01768,6.32253 -0.08855,10.40179"
       id="path7222"
       inkscape:connector-curvature="0"
       inkscape:path-effect="#path-effect7224"
       inkscape:original-d="m 21.682791,283.83736 c 2.65e-4,-0.40186 2.65e-4,-0.80346 0,-1.2048 0.220606,-0.37799 0.441237,-0.75622 0.661459,-1.13393 1.062443,-0.0435 2.12638,-0.0869 3.189173,-0.12993 0.177396,0.40911 0.354618,0.81869 0.53153,1.22843 -0.07063,4.07998 -0.141477,8.15772 -0.212612,12.23698" />
  </g>
  <g
     inkscape:groupmode="layer"
     id="layer6"
     inkscape:label="Layer 2"
     transform="translate(-1.1893949,8.4636383)" />
  <g
     inkscape:groupmode="layer"
     id="layer7"
     inkscape:label="Layer 3"
     transform="translate(-1.1893949,8.4636383)">
    <rect
       style="fill:#ffffff;fill-opacity:1;stroke:#000000;stroke-width:0.1359272;stroke-miterlimit:4;stroke-dasharray:none;stroke-opacity:1"
       id="rect9112"
       width="18.639833"
       height="8.4233484"
       x="3.6693585"
       y="-0.20331202" />
    <rect
       y="16.796688"
       x="3.5689635"
       height="8.4233484"
       width="18.639833"
       id="rect985"
       style="fill:#ffffff;fill-opacity:1;stroke:#000000;stroke-width:0.1359272;stroke-miterlimit:4;stroke-dasharray:none;stroke-opacity:1" />
    <g
       id="g2856"
       ns1:jacobian_sqrt="0.359296"
       inkscapeversion="0.92.4"
       ns1:alignment="middle center"
       ns1:scale="1.01847629518"
       ns1:preamble="C:\\Users\\alexp\\AppData\\Roaming\\inkscape\\extensions\\textext\\default_packages.tex"
       ns1:text="$JW_n$"
       ns1:pdfconverter="pdf2svg"
       ns1:texconverter="pdflatex"
       ns1:version="0.11.0"
       transform="matrix(0.359296,0,0,0.359296,-44.477659,-26.547796)">
      <g
         id="g2854">
        <g
           id="g2844"
           style="fill:#000000;fill-opacity:1">
          <path
             id="path2842"
             transform="translate(148.712,134.765)"
             d="M 5.390625,-6.078125 C 5.46875,-6.40625 5.5,-6.5 6.046875,-6.5 c 0.15625,0 0.265625,0 0.265625,-0.1875 0,-0.09375 -0.0625,-0.125 -0.140625,-0.125 -0.25,0 -0.859375,0.03125 -1.109375,0.03125 -0.328125,0 -1.140625,-0.03125 -1.46875,-0.03125 -0.078125,0 -0.203125,0 -0.203125,0.203125 C 3.390625,-6.5 3.46875,-6.5 3.734375,-6.5 c 0.21875,0 0.328125,0 0.578125,0.015625 0.234375,0.03125 0.296875,0.0625 0.296875,0.203125 0,0.0625 -0.015625,0.125 -0.03125,0.203125 L 3.421875,-1.5 C 3.1875,-0.53125 2.515625,0 2,0 1.734375,0 1.203125,-0.09375 1.046875,-0.625 c 0.03125,0.015625 0.09375,0.015625 0.125,0.015625 0.390625,0 0.640625,-0.34375 0.640625,-0.640625 0,-0.3125 -0.265625,-0.421875 -0.4375,-0.421875 -0.171875,0 -0.671875,0.125 -0.671875,0.796875 0,0.625 0.53125,1.09375 1.328125,1.09375 0.90625,0 1.953125,-0.65625 2.203125,-1.640625 z m 0,0"
             style="stroke:none;stroke-width:0"
             inkscape:connector-curvature="0" />
        </g>
        <g
           id="g2848"
           style="fill:#000000;fill-opacity:1">
          <path
             id="path2846"
             transform="translate(155.19267,134.765)"
             d="m 9.140625,-5.65625 c 0.25,-0.4375 0.484375,-0.796875 1.125,-0.84375 0.07813,-0.015625 0.1875,-0.015625 0.1875,-0.203125 0,-0.03125 -0.04687,-0.109375 -0.125,-0.109375 -0.234375,0 -0.515625,0.03125 -0.765625,0.03125 -0.34375,0 -0.703125,-0.03125 -1.046875,-0.03125 -0.046875,0 -0.1875,0 -0.1875,0.1875 0,0.109375 0.09375,0.125 0.15625,0.125 0.234375,0.015625 0.59375,0.09375 0.59375,0.390625 0,0.109375 -0.0625,0.1875 -0.140625,0.328125 L 6.25,-1.09375 5.875,-6.03125 c 0,-0.203125 -0.015625,-0.453125 0.703125,-0.46875 0.171875,0 0.265625,0 0.265625,-0.203125 0,-0.09375 -0.109375,-0.109375 -0.140625,-0.109375 -0.40625,0 -0.828125,0.03125 -1.21875,0.03125 -0.234375,0 -0.8125,-0.03125 -1.046875,-0.03125 -0.0625,0 -0.1875,0 -0.1875,0.203125 C 4.25,-6.5 4.34375,-6.5 4.484375,-6.5 4.921875,-6.5 5,-6.4375 5.015625,-6.25 l 0.0625,0.765625 -2.53125,4.390625 -0.375,-5.046875 c 0,-0.125 0,-0.34375 0.765625,-0.359375 0.09375,0 0.203125,0 0.203125,-0.203125 C 3.140625,-6.8125 3.015625,-6.8125 3,-6.8125 c -0.390625,0 -0.8125,0.03125 -1.21875,0.03125 -0.359375,0 -0.71875,-0.03125 -1.046875,-0.03125 -0.0625,0 -0.1875,0 -0.1875,0.1875 0,0.125 0.09375,0.125 0.25,0.125 0.5,0 0.515625,0.09375 0.53125,0.375 l 0.453125,6.078125 c 0,0.1875 0.015625,0.265625 0.15625,0.265625 0.109375,0 0.140625,-0.0625 0.234375,-0.203125 l 2.9375,-5.09375 0.359375,5.03125 C 5.5,0.171875 5.515625,0.21875 5.625,0.21875 c 0.140625,0 0.203125,-0.09375 0.25,-0.1875 z m 0,0"
             style="stroke:none;stroke-width:0"
             inkscape:connector-curvature="0" />
        </g>
        <g
           id="g2852"
           style="fill:#000000;fill-opacity:1">
          <path
             id="path2850"
             transform="translate(164.604,136.259)"
             d="m 0.84375,-0.4375 c -0.015625,0.09375 -0.0625,0.265625 -0.0625,0.28125 0,0.15625 0.125,0.21875 0.234375,0.21875 0.125,0 0.234375,-0.078125 0.28125,-0.140625 0.03125,-0.0625 0.078125,-0.296875 0.125,-0.4375 0.03125,-0.125 0.109375,-0.453125 0.140625,-0.625 0.046875,-0.15625 0.09375,-0.3125 0.125,-0.46875 0.078125,-0.28125 0.09375,-0.34375 0.296875,-0.625 C 2.171875,-2.515625 2.5,-2.875 3.03125,-2.875 c 0.390625,0 0.40625,0.359375 0.40625,0.484375 0,0.421875 -0.296875,1.1875 -0.40625,1.484375 -0.078125,0.203125 -0.109375,0.265625 -0.109375,0.375 0,0.375 0.296875,0.59375 0.65625,0.59375 0.703125,0 1,-0.953125 1,-1.0625 0,-0.09375 -0.078125,-0.09375 -0.109375,-0.09375 -0.09375,0 -0.09375,0.046875 -0.125,0.125 C 4.1875,-0.40625 3.875,-0.125 3.609375,-0.125 c -0.15625,0 -0.1875,-0.09375 -0.1875,-0.25 0,-0.15625 0.046875,-0.25 0.171875,-0.5625 0.078125,-0.21875 0.359375,-0.953125 0.359375,-1.34375 0,-0.671875 -0.53125,-0.796875 -0.90625,-0.796875 -0.578125,0 -0.96875,0.359375 -1.171875,0.640625 -0.046875,-0.484375 -0.453125,-0.640625 -0.75,-0.640625 -0.296875,0 -0.453125,0.21875 -0.546875,0.375 -0.15625,0.265625 -0.25,0.65625 -0.25,0.703125 0,0.078125 0.09375,0.078125 0.125,0.078125 0.09375,0 0.09375,-0.015625 0.140625,-0.203125 0.109375,-0.40625 0.25,-0.75 0.515625,-0.75 0.1875,0 0.234375,0.15625 0.234375,0.34375 0,0.125 -0.0625,0.390625 -0.125,0.578125 -0.046875,0.1875 -0.109375,0.46875 -0.140625,0.625 z m 0,0"
             style="stroke:none;stroke-width:0"
             inkscape:connector-curvature="0" />
        </g>
      </g>
    </g>
    <g
       id="g2934"
       ns1:jacobian_sqrt="0.359296"
       inkscapeversion="0.92.4"
       ns1:alignment="middle center"
       ns1:scale="1.01847629518"
       ns1:preamble="C:\\Users\\alexp\\AppData\\Roaming\\inkscape\\extensions\\textext\\default_packages.tex"
       ns1:text="$JW_n$"
       ns1:pdfconverter="pdf2svg"
       ns1:texconverter="pdflatex"
       ns1:version="0.11.0"
       transform="matrix(0.359296,0,0,0.359296,-44.477199,-43.547797)">
      <g
         id="surface1">
        <g
           id="g2923"
           style="fill:#000000;fill-opacity:1">
          <path
             id="path2921"
             transform="translate(148.712,134.765)"
             d="M 5.390625,-6.078125 C 5.46875,-6.40625 5.5,-6.5 6.046875,-6.5 c 0.15625,0 0.265625,0 0.265625,-0.1875 0,-0.09375 -0.0625,-0.125 -0.140625,-0.125 -0.25,0 -0.859375,0.03125 -1.109375,0.03125 -0.328125,0 -1.140625,-0.03125 -1.46875,-0.03125 -0.078125,0 -0.203125,0 -0.203125,0.203125 C 3.390625,-6.5 3.46875,-6.5 3.734375,-6.5 c 0.21875,0 0.328125,0 0.578125,0.015625 0.234375,0.03125 0.296875,0.0625 0.296875,0.203125 0,0.0625 -0.015625,0.125 -0.03125,0.203125 L 3.421875,-1.5 C 3.1875,-0.53125 2.515625,0 2,0 1.734375,0 1.203125,-0.09375 1.046875,-0.625 c 0.03125,0.015625 0.09375,0.015625 0.125,0.015625 0.390625,0 0.640625,-0.34375 0.640625,-0.640625 0,-0.3125 -0.265625,-0.421875 -0.4375,-0.421875 -0.171875,0 -0.671875,0.125 -0.671875,0.796875 0,0.625 0.53125,1.09375 1.328125,1.09375 0.90625,0 1.953125,-0.65625 2.203125,-1.640625 z m 0,0"
             style="stroke:none;stroke-width:0"
             inkscape:connector-curvature="0" />
        </g>
        <g
           id="g2927"
           style="fill:#000000;fill-opacity:1">
          <path
             id="path2925"
             transform="translate(155.19267,134.765)"
             d="m 9.140625,-5.65625 c 0.25,-0.4375 0.484375,-0.796875 1.125,-0.84375 0.07813,-0.015625 0.1875,-0.015625 0.1875,-0.203125 0,-0.03125 -0.04687,-0.109375 -0.125,-0.109375 -0.234375,0 -0.515625,0.03125 -0.765625,0.03125 -0.34375,0 -0.703125,-0.03125 -1.046875,-0.03125 -0.046875,0 -0.1875,0 -0.1875,0.1875 0,0.109375 0.09375,0.125 0.15625,0.125 0.234375,0.015625 0.59375,0.09375 0.59375,0.390625 0,0.109375 -0.0625,0.1875 -0.140625,0.328125 L 6.25,-1.09375 5.875,-6.03125 c 0,-0.203125 -0.015625,-0.453125 0.703125,-0.46875 0.171875,0 0.265625,0 0.265625,-0.203125 0,-0.09375 -0.109375,-0.109375 -0.140625,-0.109375 -0.40625,0 -0.828125,0.03125 -1.21875,0.03125 -0.234375,0 -0.8125,-0.03125 -1.046875,-0.03125 -0.0625,0 -0.1875,0 -0.1875,0.203125 C 4.25,-6.5 4.34375,-6.5 4.484375,-6.5 4.921875,-6.5 5,-6.4375 5.015625,-6.25 l 0.0625,0.765625 -2.53125,4.390625 -0.375,-5.046875 c 0,-0.125 0,-0.34375 0.765625,-0.359375 0.09375,0 0.203125,0 0.203125,-0.203125 C 3.140625,-6.8125 3.015625,-6.8125 3,-6.8125 c -0.390625,0 -0.8125,0.03125 -1.21875,0.03125 -0.359375,0 -0.71875,-0.03125 -1.046875,-0.03125 -0.0625,0 -0.1875,0 -0.1875,0.1875 0,0.125 0.09375,0.125 0.25,0.125 0.5,0 0.515625,0.09375 0.53125,0.375 l 0.453125,6.078125 c 0,0.1875 0.015625,0.265625 0.15625,0.265625 0.109375,0 0.140625,-0.0625 0.234375,-0.203125 l 2.9375,-5.09375 0.359375,5.03125 C 5.5,0.171875 5.515625,0.21875 5.625,0.21875 c 0.140625,0 0.203125,-0.09375 0.25,-0.1875 z m 0,0"
             style="stroke:none;stroke-width:0"
             inkscape:connector-curvature="0" />
        </g>
        <g
           id="g2931"
           style="fill:#000000;fill-opacity:1">
          <path
             id="path2929"
             transform="translate(164.604,136.259)"
             d="m 0.84375,-0.4375 c -0.015625,0.09375 -0.0625,0.265625 -0.0625,0.28125 0,0.15625 0.125,0.21875 0.234375,0.21875 0.125,0 0.234375,-0.078125 0.28125,-0.140625 0.03125,-0.0625 0.078125,-0.296875 0.125,-0.4375 0.03125,-0.125 0.109375,-0.453125 0.140625,-0.625 0.046875,-0.15625 0.09375,-0.3125 0.125,-0.46875 0.078125,-0.28125 0.09375,-0.34375 0.296875,-0.625 C 2.171875,-2.515625 2.5,-2.875 3.03125,-2.875 c 0.390625,0 0.40625,0.359375 0.40625,0.484375 0,0.421875 -0.296875,1.1875 -0.40625,1.484375 -0.078125,0.203125 -0.109375,0.265625 -0.109375,0.375 0,0.375 0.296875,0.59375 0.65625,0.59375 0.703125,0 1,-0.953125 1,-1.0625 0,-0.09375 -0.078125,-0.09375 -0.109375,-0.09375 -0.09375,0 -0.09375,0.046875 -0.125,0.125 C 4.1875,-0.40625 3.875,-0.125 3.609375,-0.125 c -0.15625,0 -0.1875,-0.09375 -0.1875,-0.25 0,-0.15625 0.046875,-0.25 0.171875,-0.5625 0.078125,-0.21875 0.359375,-0.953125 0.359375,-1.34375 0,-0.671875 -0.53125,-0.796875 -0.90625,-0.796875 -0.578125,0 -0.96875,0.359375 -1.171875,0.640625 -0.046875,-0.484375 -0.453125,-0.640625 -0.75,-0.640625 -0.296875,0 -0.453125,0.21875 -0.546875,0.375 -0.15625,0.265625 -0.25,0.65625 -0.25,0.703125 0,0.078125 0.09375,0.078125 0.125,0.078125 0.09375,0 0.09375,-0.015625 0.140625,-0.203125 0.109375,-0.40625 0.25,-0.75 0.515625,-0.75 0.1875,0 0.234375,0.15625 0.234375,0.34375 0,0.125 -0.0625,0.390625 -0.125,0.578125 -0.046875,0.1875 -0.109375,0.46875 -0.140625,0.625 z m 0,0"
             style="stroke:none;stroke-width:0"
             inkscape:connector-curvature="0" />
        </g>
      </g>
    </g>
    <path
       style="fill:none;stroke:#000000;stroke-width:0.26458332px;stroke-linecap:butt;stroke-linejoin:miter;stroke-opacity:1"
       d="m 8.6544246,-6.4672328 c 0,0.3777116 0,0.7556879 -0.047187,1.0234529 -0.047187,0.2677649 -0.1416146,0.4251445 -0.2362954,0.5829458"
       id="path6361"
       inkscape:connector-curvature="0"
       inkscape:path-effect="#path-effect6363"
       inkscape:original-d="m 8.6544246,-6.4672328 c 2.646e-4,0.3777116 2.646e-4,0.7556879 0,1.1339286 -0.094296,0.1573358 -0.1887235,0.3147155 -0.2834822,0.4724701" />
    <path
       style="fill:none;stroke:#000000;stroke-width:0.26458332px;stroke-linecap:butt;stroke-linejoin:miter;stroke-opacity:1"
       d="m 7.61499,-3.8686466 c -0.2044429,0.1572639 -0.4091801,0.3147541 -0.9215984,0.5670326 -0.5124184,0.2522785 -1.3301904,0.598259 -1.7791508,0.8738144 -0.4489603,0.2755555 -0.5276746,0.4802129 -0.574991,0.8349817 -0.047316,0.3547688 -0.063041,0.85795123 -0.078798,1.36219209"
       id="path6369"
       inkscape:connector-curvature="0"
       inkscape:path-effect="#path-effect6371"
       inkscape:original-d="m 7.61499,-3.8686466 c -0.2044724,0.1572255 -0.4092096,0.3147158 -0.6142112,0.4724704 -0.8198604,0.3467111 -1.6376324,0.6926916 -2.4568454,1.0394344 -0.078511,0.2045523 -0.1572254,0.4092096 -0.236235,0.6142114 -0.01551,0.5044893 -0.031233,1.00767174 -0.047247,1.51190459" />
    <path
       style="fill:none;stroke:#000000;stroke-width:0.26458332px;stroke-linecap:butt;stroke-linejoin:miter;stroke-opacity:1"
       d="m 12.953903,-6.6089738 c 0,0.5037036 0,1.0076718 -0.08654,1.3620681 -0.08655,0.3543963 -0.259693,0.5590259 -0.433173,0.764048"
       id="path6373"
       inkscape:connector-curvature="0"
       inkscape:path-effect="#path-effect6375"
       inkscape:original-d="m 12.953903,-6.6089738 c 2.65e-4,0.5037036 2.65e-4,1.0076718 0,1.5119046 -0.173065,0.2045801 -0.346213,0.4092096 -0.519717,0.6142115" />
    <path
       style="fill:none;stroke:#000000;stroke-width:0.26458332px;stroke-linecap:butt;stroke-linejoin:miter;stroke-opacity:1"
       d="m 11.58374,-3.4434233 c -0.283218,0.2832177 -0.5667,0.5666996 -1.063099,0.8188698 -0.496398,0.2521701 -1.2044418,0.4724504 -1.5977914,0.7303299 -0.3933496,0.2578795 -0.4730799,0.5608548 -0.5203681,0.8444935 -0.047288,0.28363872 -0.063021,0.55109222 -0.078786,0.81910429"
       id="path6377"
       inkscape:connector-curvature="0"
       inkscape:path-effect="#path-effect6379"
       inkscape:original-d="m 11.58374,-3.4434233 c -0.283218,0.2832176 -0.5667,0.5666996 -0.850447,0.8504464 -0.709102,0.2204273 -1.4171454,0.4407078 -2.1261155,0.6614584 -0.06276,0.2991 -0.1572255,0.5981977 -0.2362351,0.8976934 -0.015502,0.26774825 -0.031234,0.53520178 -0.047247,0.80319929" />
  </g>
  <g
     id="ltx-render-layer"
     inkscape:groupmode="layer"
     inkscape:label="Rendered Latex"
     ns0:preamble=""
     ns0:packages=""
     ns0:scale="1.0"
     ns0:depth="0.0"
     ns0:fontsize="10.0"
     ns0:newline="False"
     ns0:math="False"
     style="display:inline"
     transform="translate(-1.1893949,8.4636383)" />
</svg>
