<?xml version="1.0" encoding="UTF-8" standalone="no"?>
<svg
   xmlns:dc="http://purl.org/dc/elements/1.1/"
   xmlns:cc="http://creativecommons.org/ns#"
   xmlns:rdf="http://www.w3.org/1999/02/22-rdf-syntax-ns#"
   xmlns:svg="http://www.w3.org/2000/svg"
   xmlns="http://www.w3.org/2000/svg"
   xmlns:sodipodi="http://sodipodi.sourceforge.net/DTD/sodipodi-0.dtd"
   xmlns:inkscape="http://www.inkscape.org/namespaces/inkscape"
   version="1.1"
   id="svg927"
   xml:space="preserve"
   width="32"
   height="90.666664"
   viewBox="0 0 32 90.666664"
   sodipodi:docname="modifiedr1b.svg"
   inkscape:version="1.0.2-2 (e86c870879, 2021-01-15)"><metadata
     id="metadata933"><rdf:RDF><cc:Work
         rdf:about=""><dc:format>image/svg+xml</dc:format><dc:type
           rdf:resource="http://purl.org/dc/dcmitype/StillImage" /><dc:title></dc:title></cc:Work></rdf:RDF></metadata><defs
     id="defs931" /><sodipodi:namedview
     pagecolor="#ffffff"
     bordercolor="#666666"
     borderopacity="1"
     objecttolerance="10"
     gridtolerance="10"
     guidetolerance="10"
     inkscape:pageopacity="0"
     inkscape:pageshadow="2"
     inkscape:window-width="1920"
     inkscape:window-height="986"
     id="namedview929"
     showgrid="false"
     inkscape:zoom="8.457676"
     inkscape:cx="16"
     inkscape:cy="45.333332"
     inkscape:window-x="-11"
     inkscape:window-y="-11"
     inkscape:window-maximized="1"
     inkscape:current-layer="g935" /><g
     id="g935"
     inkscape:groupmode="layer"
     inkscape:label="ink_ext_XXXXXX"
     transform="matrix(1.3333333,0,0,-1.3333333,0,90.666667)"><g
       id="g937"
       transform="matrix(-0.1,0,0,0.1,23.679214,0)"><path
         d="m 29.6914,11.7188 c 0.6172,39.7617 1.25,79.5312 16.25,123.2422 15,43.711 44.3281,91.41 76.3986,105.629 32.039,14.18 66.762,-5.078 77.5,-26.531 10.711,-21.481 -2.539,-45.149 -20.231,-58.707 -17.66,-13.59 -39.769,-17.071 -57.418,-14.372 -17.703,2.692 -30.941,11.52 -44.2222,20.348"
         style="fill:none;stroke:#000000;stroke-width:13.1811;stroke-linecap:round;stroke-linejoin:bevel;stroke-miterlimit:4;stroke-dasharray:none;stroke-opacity:1"
         id="path939" /><path
         d="m 48.6289,186.91 c -12.9687,32.5 -25.8984,65 -32.0703,110.16 -6.1289,45.16 -5.5078,102.27 0,137.461 5.5508,35.239 15.9805,48.168 26.3711,61.09"
         style="fill:none;stroke:#000000;stroke-width:13.1811;stroke-linecap:round;stroke-linejoin:bevel;stroke-miterlimit:4;stroke-dasharray:none;stroke-opacity:1"
         id="path941" /><path
         d="m 71.3281,516.449 c 19.3008,14.211 38.5509,28.43 64.4099,29.84 25.864,1.441 58.403,-9.961 75.282,-28.559 16.91,-18.628 18.16,-44.531 3.468,-60.308 -14.687,-15.781 -45.269,-21.442 -72.258,-16.402 -27,5.031 -50.3511,20.82 -67.2691,40.07 -16.8711,19.262 -27.3007,42 -34.7304,57.621 -7.4219,15.629 -11.8321,24.141 -14.1797,44.527 -2.3789,20.352 -2.6914,52.543 -3,84.731"
         style="fill:none;stroke:#000000;stroke-width:13.1811;stroke-linecap:round;stroke-linejoin:bevel;stroke-miterlimit:4;stroke-dasharray:none;stroke-opacity:1"
         id="path943" /></g></g></svg>
