<?xml version="1.0" encoding="UTF-8" standalone="no"?>
<!-- Created with Inkscape (http://www.inkscape.org/) -->

<svg
   xmlns:dc="http://purl.org/dc/elements/1.1/"
   xmlns:cc="http://creativecommons.org/ns#"
   xmlns:rdf="http://www.w3.org/1999/02/22-rdf-syntax-ns#"
   xmlns:svg="http://www.w3.org/2000/svg"
   xmlns="http://www.w3.org/2000/svg"
   xmlns:sodipodi="http://sodipodi.sourceforge.net/DTD/sodipodi-0.dtd"
   xmlns:inkscape="http://www.inkscape.org/namespaces/inkscape"
   version="1.1"
   id="svg929"
   xml:space="preserve"
   width="253.33333"
   height="78.666664"
   viewBox="0 0 253.33333 78.666664"
   sodipodi:docname="Ntangles.svg"
   inkscape:version="0.92.4 (5da689c313, 2019-01-14)"><metadata
     id="metadata935"><rdf:RDF><cc:Work
         rdf:about=""><dc:format>image/svg+xml</dc:format><dc:type
           rdf:resource="http://purl.org/dc/dcmitype/StillImage" /><dc:title></dc:title></cc:Work></rdf:RDF></metadata><defs
     id="defs933" /><sodipodi:namedview
     pagecolor="#ffffff"
     bordercolor="#666666"
     borderopacity="1"
     objecttolerance="10"
     gridtolerance="10"
     guidetolerance="10"
     inkscape:pageopacity="0"
     inkscape:pageshadow="2"
     inkscape:window-width="958"
     inkscape:window-height="1008"
     id="namedview931"
     showgrid="false"
     inkscape:zoom="1.7881579"
     inkscape:cx="138.43582"
     inkscape:cy="25.162704"
     inkscape:window-x="-7"
     inkscape:window-y="0"
     inkscape:window-maximized="0"
     inkscape:current-layer="g937" /><g
     id="g937"
     inkscape:groupmode="layer"
     inkscape:label="ink_ext_XXXXXX"
     transform="matrix(1.3333333,0,0,-1.3333333,0,78.666667)"><g
       id="g939"
       transform="scale(0.1)"><path
         d="m 6.51953,19.2188 h 439.41 v 553.051 h -439.41 z"
         style="fill:none;stroke:#000000;stroke-width:7.5;stroke-linecap:round;stroke-linejoin:bevel;stroke-miterlimit:4;stroke-dasharray:none;stroke-opacity:1"
         id="path941"
         inkscape:connector-curvature="0" /><path
         d="m 102.148,572.73 c 0,-4.96 -4.0191,-8.98 -8.9878,-8.98 -4.961,0 -8.9805,4.02 -8.9805,8.98 0,5 4.0195,9.032 8.9805,9.032 4.9687,0 8.9878,-4.032 8.9878,-9.032 z"
         style="fill:none;stroke:#000000;stroke-width:1.84251972;stroke-linecap:round;stroke-linejoin:bevel;stroke-miterlimit:4;stroke-dasharray:none;stroke-opacity:1"
         id="path943"
         inkscape:connector-curvature="0" /><path
         d="m 102.148,572.73 c 0,-4.96 -4.0191,-8.98 -8.9878,-8.98 -4.961,0 -8.9805,4.02 -8.9805,8.98 0,5 4.0195,9.032 8.9805,9.032 4.9687,0 8.9878,-4.032 8.9878,-9.032 z"
         style="fill:#000000;fill-opacity:1;fill-rule:nonzero;stroke:none"
         id="path945"
         inkscape:connector-curvature="0" /><path
         d="m 368.629,572.73 c 0,-4.96 -4.02,-8.98 -8.981,-8.98 -5,0 -9.019,4.02 -9.019,8.98 0,5 4.019,9.032 9.019,9.032 4.961,0 8.981,-4.032 8.981,-9.032 z"
         style="fill:none;stroke:#000000;stroke-width:1.84251972;stroke-linecap:round;stroke-linejoin:bevel;stroke-miterlimit:4;stroke-dasharray:none;stroke-opacity:1"
         id="path947"
         inkscape:connector-curvature="0" /><path
         d="m 368.629,572.73 c 0,-4.96 -4.02,-8.98 -8.981,-8.98 -5,0 -9.019,4.02 -9.019,8.98 0,5 4.019,9.032 9.019,9.032 4.961,0 8.981,-4.032 8.981,-9.032 z"
         style="fill:#000000;fill-opacity:1;fill-rule:nonzero;stroke:none"
         id="path949"
         inkscape:connector-curvature="0" /><path
         d="m 235.23,572.73 c 0,-4.96 -4.019,-8.98 -9.019,-8.98 -4.961,0 -8.981,4.02 -8.981,8.98 0,5 4.02,9.032 8.981,9.032 5,0 9.019,-4.032 9.019,-9.032 z"
         style="fill:none;stroke:#000000;stroke-width:1.84251972;stroke-linecap:round;stroke-linejoin:bevel;stroke-miterlimit:4;stroke-dasharray:none;stroke-opacity:1"
         id="path951"
         inkscape:connector-curvature="0" /><path
         d="m 235.23,572.73 c 0,-4.96 -4.019,-8.98 -9.019,-8.98 -4.961,0 -8.981,4.02 -8.981,8.98 0,5 4.02,9.032 8.981,9.032 5,0 9.019,-4.032 9.019,-9.032 z"
         style="fill:#000000;fill-opacity:1;fill-rule:nonzero;stroke:none"
         id="path953"
         inkscape:connector-curvature="0" /><path
         d="m 102.148,20 c 0,-4.9609 -4.0191,-8.9805 -8.9878,-8.9805 -4.961,0 -8.9805,4.0196 -8.9805,8.9805 0,4.9609 4.0195,8.9805 8.9805,8.9805 4.9687,0 8.9878,-4.0196 8.9878,-8.9805 z"
         style="fill:none;stroke:#000000;stroke-width:1.84251972;stroke-linecap:round;stroke-linejoin:bevel;stroke-miterlimit:4;stroke-dasharray:none;stroke-opacity:1"
         id="path955"
         inkscape:connector-curvature="0" /><path
         d="m 102.148,20 c 0,-4.9609 -4.0191,-8.9805 -8.9878,-8.9805 -4.961,0 -8.9805,4.0196 -8.9805,8.9805 0,4.9609 4.0195,8.9805 8.9805,8.9805 4.9687,0 8.9878,-4.0196 8.9878,-8.9805 z"
         style="fill:#000000;fill-opacity:1;fill-rule:nonzero;stroke:none"
         id="path957"
         inkscape:connector-curvature="0" /><path
         d="m 368.629,20 c 0,-4.9609 -4.02,-8.9805 -8.981,-8.9805 -5,0 -9.019,4.0196 -9.019,8.9805 0,4.9609 4.019,8.9805 9.019,8.9805 4.961,0 8.981,-4.0196 8.981,-8.9805 z"
         style="fill:none;stroke:#000000;stroke-width:1.84251972;stroke-linecap:round;stroke-linejoin:bevel;stroke-miterlimit:4;stroke-dasharray:none;stroke-opacity:1"
         id="path959"
         inkscape:connector-curvature="0" /><path
         d="m 368.629,20 c 0,-4.9609 -4.02,-8.9805 -8.981,-8.9805 -5,0 -9.019,4.0196 -9.019,8.9805 0,4.9609 4.019,8.9805 9.019,8.9805 4.961,0 8.981,-4.0196 8.981,-8.9805 z"
         style="fill:#000000;fill-opacity:1;fill-rule:nonzero;stroke:none"
         id="path961"
         inkscape:connector-curvature="0" /><path
         d="m 235.23,20 c 0,-4.9609 -4.019,-8.9805 -9.019,-8.9805 -4.961,0 -8.981,4.0196 -8.981,8.9805 0,4.9609 4.02,8.9805 8.981,8.9805 5,0 9.019,-4.0196 9.019,-8.9805 z"
         style="fill:none;stroke:#000000;stroke-width:1.84251972;stroke-linecap:round;stroke-linejoin:bevel;stroke-miterlimit:4;stroke-dasharray:none;stroke-opacity:1"
         id="path963"
         inkscape:connector-curvature="0" /><path
         d="m 235.23,20 c 0,-4.9609 -4.019,-8.9805 -9.019,-8.9805 -4.961,0 -8.981,4.0196 -8.981,8.9805 0,4.9609 4.02,8.9805 8.981,8.9805 5,0 9.019,-4.0196 9.019,-8.9805 z"
         style="fill:#000000;fill-opacity:1;fill-rule:nonzero;stroke:none"
         id="path965"
         inkscape:connector-curvature="0" /><path
         d="m 125.941,386.988 c -6.293,1.25 -13.089,-0.859 -17.582,-5.429 -4.488,-4.528 -6.519,-11.36 -5.23,-17.61 0.891,-4.539 3.43,-8.558 6.519,-11.961 3.122,-3.398 6.801,-6.168 10.512,-8.898 3.238,-2.391 6.559,-4.731 10.11,-6.61 3.558,-1.871 7.429,-3.281 11.449,-3.628 4.019,-0.352 8.203,0.347 11.64,2.457 1.719,1.062 3.2,2.461 4.371,4.101 1.141,1.68 1.918,3.602 2.192,5.59 0.308,2.109 0,4.301 -0.66,6.328 -0.672,2.031 -1.684,3.942 -2.891,5.742 -1.883,2.852 -4.223,5.391 -6.84,7.578"
         style="fill:none;stroke:#000000;stroke-width:4.6771698;stroke-linecap:round;stroke-linejoin:miter;stroke-miterlimit:4;stroke-dasharray:none;stroke-opacity:1"
         id="path967"
         inkscape:connector-curvature="0" /><path
         d="m 93.8281,564.801 c -1.4062,-18.551 1.1328,-37.379 7.3829,-54.922 10.738,-30.078 32.66,-56.008 60.551,-71.559 27.886,-15.59 61.476,-20.66 92.687,-14.019 31.25,6.64 59.891,24.918 79.031,50.469 19.141,25.582 28.629,58.199 26.211,90.031"
         style="fill:none;stroke:#000000;stroke-width:4.6771698;stroke-linecap:butt;stroke-linejoin:miter;stroke-miterlimit:4;stroke-dasharray:none;stroke-opacity:1"
         id="path969"
         inkscape:connector-curvature="0" /><path
         d="m 225.078,566.801 c 6.481,-20.281 6.953,-42.391 1.371,-62.93 -5.98,-21.84 -18.789,-41.762 -36.179,-56.25"
         style="fill:none;stroke:#000000;stroke-width:4.6771698;stroke-linecap:round;stroke-linejoin:miter;stroke-miterlimit:4;stroke-dasharray:none;stroke-opacity:1"
         id="path971"
         inkscape:connector-curvature="0" /><path
         d="m 158.129,416.801 c -2.188,-0.473 -4.219,-1.531 -5.859,-3.051 -1.641,-1.52 -2.891,-3.52 -3.52,-5.629 -0.98,-3.242 -0.621,-6.711 -0.27,-10.07 0.348,-3.36 0.661,-6.84 -0.39,-10.039 -0.86,-2.66 -2.621,-4.961 -4.61,-6.961 -1.96,-1.992 -4.14,-3.75 -6.101,-5.742 -4.918,-4.957 -8.43,-11.289 -10.078,-18.079"
         style="fill:none;stroke:#000000;stroke-width:4.6771698;stroke-linecap:round;stroke-linejoin:miter;stroke-miterlimit:4;stroke-dasharray:none;stroke-opacity:1"
         id="path973"
         inkscape:connector-curvature="0" /><path
         d="m 112.578,331.09 c -9.527,-11.789 -13.1288,-28.16 -9.379,-42.852 3.012,-11.789 10.512,-22.258 20.321,-29.488 9.761,-7.23 21.75,-11.25 33.902,-12.148 12.109,-0.903 24.379,1.289 35.738,5.668 11.371,4.371 21.84,10.851 31.25,18.55 8.36,6.84 15.942,14.61 24.649,21.02 8.671,6.398 18.832,11.48 29.613,11.789 7.187,0.242 14.418,-1.68 20.629,-5.348 6.211,-3.633 11.359,-8.98 14.961,-15.23 7.187,-12.461 7.726,-28.25 2.578,-41.68 -3.949,-10.281 -11.141,-19.262 -20.238,-25.43 -9.102,-6.171 -20.122,-9.492 -31.133,-9.339 -11.02,0.16 -21.918,3.75 -30.86,10.16 -8.949,6.398 -15.898,15.578 -19.57,25.937"
         style="fill:none;stroke:#000000;stroke-width:4.6771698;stroke-linecap:round;stroke-linejoin:miter;stroke-miterlimit:4;stroke-dasharray:none;stroke-opacity:1"
         id="path975"
         inkscape:connector-curvature="0" /><path
         d="m 205,275.512 c -2.07,9.41 -1.68,19.328 1.129,28.547 2.781,9.222 8.012,17.703 14.922,24.382 7.23,6.911 16.289,11.829 25.859,14.68 9.61,2.82 19.77,3.559 29.731,2.699 17.769,-1.519 35,-8.242 49.379,-18.75 14.41,-10.511 25.968,-24.769 33.671,-40.82 11.438,-23.828 14.289,-50.98 13.2,-77.34 -1.09,-26.41 -5.942,-52.5 -9.18,-78.711 -4.262,-34.1795 -5.82,-68.6795 -4.691,-103.1287"
         style="fill:none;stroke:#000000;stroke-width:4.6771698;stroke-linecap:round;stroke-linejoin:miter;stroke-miterlimit:4;stroke-dasharray:none;stroke-opacity:1"
         id="path977"
         inkscape:connector-curvature="0" /><path
         d="M 93.1602,22.3789 C 88.1289,42.5 92.8086,64.8008 105.469,81.2109 118.16,97.5781 138.551,107.73 159.301,107.93 180,108.16 200.629,98.4414 213.59,82.2695 226.602,66.1289 231.719,43.9492 227.109,23.75 c -0.23,-0.8984 -0.429,-1.8008 -0.66,-2.6992"
         style="fill:none;stroke:#000000;stroke-width:4.6771698;stroke-linecap:round;stroke-linejoin:miter;stroke-miterlimit:4;stroke-dasharray:none;stroke-opacity:1"
         id="path979"
         inkscape:connector-curvature="0" /><path
         d="m 60.5117,201.051 c -5.8633,-4.211 -10.6719,-10 -13.3633,-16.711 -2.6601,-6.68 -3.1289,-14.34 -0.8593,-21.18 2.9297,-8.859 10.3515,-15.93 19.1015,-19.101 8.7891,-3.118 18.711,-2.5 27.3086,1.101 8.7108,3.668 16.1718,10.43 20.1098,19.02 3.91,8.59 4.031,18.98 -0.231,27.379 -2.269,4.492 -5.699,8.363 -9.808,11.211 -4.0981,2.851 -8.8989,4.73 -13.8598,5.511 -9.8907,1.52 -20.2813,-1.371 -28.3985,-7.23 z"
         style="fill:none;stroke:#000000;stroke-width:4.6771698;stroke-linecap:round;stroke-linejoin:miter;stroke-miterlimit:4;stroke-dasharray:none;stroke-opacity:1"
         id="path981"
         inkscape:connector-curvature="0" /><path
         d="m 1885.51,294.449 c 0,-150.621 -122.11,-272.7302 -272.74,-272.7302 -150.62,0 -272.73,122.1092 -272.73,272.7302 0,150.629 122.11,272.742 272.73,272.742 150.63,0 272.74,-122.113 272.74,-272.742 z"
         style="fill:none;stroke:#000000;stroke-width:7.51180983;stroke-linecap:round;stroke-linejoin:bevel;stroke-miterlimit:4;stroke-dasharray:none;stroke-opacity:1"
         id="path983"
         inkscape:connector-curvature="0" /><path
         d="m 1627.93,294.449 c 0,-8.359 -6.8,-15.148 -15.16,-15.148 -8.39,0 -15.15,6.789 -15.15,15.148 0,8.36 6.76,15.16 15.15,15.16 8.36,0 15.16,-6.8 15.16,-15.16 z"
         style="fill:none;stroke:#000000;stroke-width:7.51180983;stroke-linecap:round;stroke-linejoin:bevel;stroke-miterlimit:4;stroke-dasharray:none;stroke-opacity:1"
         id="path985"
         inkscape:connector-curvature="0" /><path
         d="m 1638.91,296.211 c 0,-4.961 -4.03,-8.981 -9.03,-8.981 -4.96,0 -8.98,4.02 -8.98,8.981 0,4.961 4.02,9.019 8.98,9.019 5,0 9.03,-4.058 9.03,-9.019 z"
         style="fill:none;stroke:#000000;stroke-width:7.5;stroke-linecap:round;stroke-linejoin:bevel;stroke-miterlimit:4;stroke-dasharray:none;stroke-opacity:1"
         id="path987"
         inkscape:connector-curvature="0" /><path
         d="m 1638.91,296.211 c 0,-4.961 -4.03,-8.981 -9.03,-8.981 -4.96,0 -8.98,4.02 -8.98,8.981 0,4.961 4.02,9.019 8.98,9.019 5,0 9.03,-4.058 9.03,-9.019 z"
         style="fill:#000000;fill-opacity:1;fill-rule:nonzero;stroke:none"
         id="path989"
         inkscape:connector-curvature="0" /><path
         d="m 1894.02,296.211 c 0,-4.961 -4.02,-8.981 -9.02,-8.981 -4.96,0 -8.98,4.02 -8.98,8.981 0,4.961 4.02,9.019 8.98,9.019 5,0 9.02,-4.058 9.02,-9.019 z"
         style="fill:none;stroke:#000000;stroke-width:7.5;stroke-linecap:round;stroke-linejoin:bevel;stroke-miterlimit:4;stroke-dasharray:none;stroke-opacity:1"
         id="path991"
         inkscape:connector-curvature="0" /><path
         d="m 1894.02,296.211 c 0,-4.961 -4.02,-8.981 -9.02,-8.981 -4.96,0 -8.98,4.02 -8.98,8.981 0,4.961 4.02,9.019 8.98,9.019 5,0 9.02,-4.058 9.02,-9.019 z"
         style="fill:#000000;fill-opacity:1;fill-rule:nonzero;stroke:none"
         id="path993"
         inkscape:connector-curvature="0" /><path
         d="m 1692.23,227.578 h 138.238 V 365.82 H 1692.23 Z"
         style="fill:none;stroke:#000000;stroke-width:7.51180983;stroke-linecap:round;stroke-linejoin:bevel;stroke-miterlimit:4;stroke-dasharray:none;stroke-opacity:1"
         id="path995"
         inkscape:connector-curvature="0" /><path
         d="m 1729.34,366.289 c 0,-4.961 -4.03,-8.988 -8.99,-8.988 -5,0 -9.02,4.027 -9.02,8.988 0,4.961 4.02,9.02 9.02,9.02 4.96,0 8.99,-4.059 8.99,-9.02 z"
         style="fill:none;stroke:#000000;stroke-width:1.84251972;stroke-linecap:round;stroke-linejoin:bevel;stroke-miterlimit:4;stroke-dasharray:none;stroke-opacity:1"
         id="path997"
         inkscape:connector-curvature="0" /><path
         d="m 1729.34,366.289 c 0,-4.961 -4.03,-8.988 -8.99,-8.988 -5,0 -9.02,4.027 -9.02,8.988 0,4.961 4.02,9.02 9.02,9.02 4.96,0 8.99,-4.059 8.99,-9.02 z"
         style="fill:#000000;fill-opacity:1;fill-rule:nonzero;stroke:none"
         id="path999"
         inkscape:connector-curvature="0" /><path
         d="m 1771.48,366.289 c 0,-4.961 -4.02,-8.988 -9.02,-8.988 -4.96,0 -8.98,4.027 -8.98,8.988 0,4.961 4.02,9.02 8.98,9.02 5,0 9.02,-4.059 9.02,-9.02 z"
         style="fill:none;stroke:#000000;stroke-width:1.84251972;stroke-linecap:round;stroke-linejoin:bevel;stroke-miterlimit:4;stroke-dasharray:none;stroke-opacity:1"
         id="path1001"
         inkscape:connector-curvature="0" /><path
         d="m 1771.48,366.289 c 0,-4.961 -4.02,-8.988 -9.02,-8.988 -4.96,0 -8.98,4.027 -8.98,8.988 0,4.961 4.02,9.02 8.98,9.02 5,0 9.02,-4.059 9.02,-9.02 z"
         style="fill:#000000;fill-opacity:1;fill-rule:nonzero;stroke:none"
         id="path1003"
         inkscape:connector-curvature="0" /><path
         d="m 1812.0888,365.352 c 0,-4.961 -4.02,-8.981 -9.02,-8.981 -4.96,0 -8.98,4.02 -8.98,8.981 0,4.957 4.02,8.988 8.98,8.988 5,0 9.02,-4.031 9.02,-8.988 z"
         style="fill:none;stroke:#000000;stroke-width:1.84251976;stroke-linecap:round;stroke-linejoin:bevel;stroke-miterlimit:4;stroke-dasharray:none;stroke-opacity:1"
         id="path1005"
         inkscape:connector-curvature="0" /><path
         d="m 1812.09,365.352 c 0,-4.961 -4.02,-8.981 -9.02,-8.981 -4.96,0 -8.98,4.02 -8.98,8.981 0,4.957 4.02,8.988 8.98,8.988 5,0 9.02,-4.031 9.02,-8.988 z"
         style="fill:#000000;fill-opacity:1;fill-rule:nonzero;stroke:none"
         id="path1007"
         inkscape:connector-curvature="0" /><path
         d="m 1727.0863,227.379 c 0,-4.957 -4.03,-8.981 -8.99,-8.981 -5,0 -9.02,4.024 -9.02,8.981 0,4.961 4.02,9.031 9.02,9.031 4.96,0 8.99,-4.07 8.99,-9.031 z"
         style="fill:none;stroke:#000000;stroke-width:1.84251976;stroke-linecap:round;stroke-linejoin:bevel;stroke-miterlimit:4;stroke-dasharray:none;stroke-opacity:1"
         id="path1009"
         inkscape:connector-curvature="0" /><path
         d="m 1727.0875,227.379 c 0,-4.957 -4.03,-8.981 -8.99,-8.981 -5,0 -9.02,4.024 -9.02,8.981 0,4.961 4.02,9.031 9.02,9.031 4.96,0 8.99,-4.07 8.99,-9.031 z"
         style="fill:#000000;fill-opacity:1;fill-rule:nonzero;stroke:none"
         id="path1011"
         inkscape:connector-curvature="0" /><path
         d="m 1771.48,227.379 c 0,-4.957 -4.02,-8.981 -9.02,-8.981 -4.96,0 -8.98,4.024 -8.98,8.981 0,4.961 4.02,9.031 8.98,9.031 5,0 9.02,-4.07 9.02,-9.031 z"
         style="fill:none;stroke:#000000;stroke-width:1.84251972;stroke-linecap:round;stroke-linejoin:bevel;stroke-miterlimit:4;stroke-dasharray:none;stroke-opacity:1"
         id="path1013"
         inkscape:connector-curvature="0" /><path
         d="m 1771.48,227.379 c 0,-4.957 -4.02,-8.981 -9.02,-8.981 -4.96,0 -8.98,4.024 -8.98,8.981 0,4.961 4.02,9.031 8.98,9.031 5,0 9.02,-4.07 9.02,-9.031 z"
         style="fill:#000000;fill-opacity:1;fill-rule:nonzero;stroke:none"
         id="path1015"
         inkscape:connector-curvature="0" /><path
         d="m 1809.84,226.449 c 0,-4.969 -4.02,-8.988 -9.02,-8.988 -4.96,0 -8.98,4.019 -8.98,8.988 0,4.961 4.02,8.981 8.98,8.981 5,0 9.02,-4.02 9.02,-8.981 z"
         style="fill:none;stroke:#000000;stroke-width:1.84251972;stroke-linecap:round;stroke-linejoin:bevel;stroke-miterlimit:4;stroke-dasharray:none;stroke-opacity:1"
         id="path1017"
         inkscape:connector-curvature="0" /><path
         d="m 1809.84,226.449 c 0,-4.969 -4.02,-8.988 -9.02,-8.988 -4.96,0 -8.98,4.019 -8.98,8.988 0,4.961 4.02,8.981 8.98,8.981 5,0 9.02,-4.02 9.02,-8.981 z"
         style="fill:#000000;fill-opacity:1;fill-rule:nonzero;stroke:none"
         id="path1019"
         inkscape:connector-curvature="0" /><path
         d="m 1633.98,296.211 c 12.62,-12.5 21.33,-28.91 24.61,-46.41 2.15,-11.563 2,-23.43 4.46,-34.961 1.25,-5.738 3.16,-11.36 6.21,-16.399 3.04,-5 7.3,-9.382 12.54,-12.07 4.88,-2.5 10.54,-3.48 15.97,-2.699 5.47,0.738 10.63,3.199 14.65,6.988 4.03,3.75 6.84,8.75 7.97,14.141 1.09,5.359 0.51,11.097 -1.68,16.14"
         style="fill:none;stroke:#000000;stroke-width:4.6771698;stroke-linecap:round;stroke-linejoin:miter;stroke-miterlimit:4;stroke-dasharray:none;stroke-opacity:1"
         id="path1021"
         inkscape:connector-curvature="0" /><path
         d="m 1886.84,296.211 c -6.53,0.391 -12.89,2.418 -18.44,5.898 -5.51,3.442 -10.12,8.321 -13.32,13.981 -4.57,8.25 -6.02,17.859 -6.64,27.269 -0.67,9.371 -0.55,18.911 -2.35,28.161 -1.44,7.5 -4.29,14.96 -9.57,20.55 -2.61,2.77 -5.86,5.078 -9.41,6.41 -3.59,1.36 -7.58,1.75 -11.33,0.969 -5.15,-1.09 -9.8,-4.57 -12.3,-9.25 -2.54,-4.648 -2.89,-10.429 -0.94,-15.398"
         style="fill:none;stroke:#000000;stroke-width:4.6771698;stroke-linecap:round;stroke-linejoin:miter;stroke-miterlimit:4;stroke-dasharray:none;stroke-opacity:1"
         id="path1023"
         inkscape:connector-curvature="0" /><path
         d="m 1722.42,367.93 c -17.97,15.511 -40.08,26.172 -63.4,30.59 -23.32,4.449 -47.81,2.609 -70.19,-5.2 -22.42,-7.851 -42.7,-21.679 -58.2,-39.648 -15.47,-18.012 -26.14,-40.121 -30.55,-63.442 -6.33,-33.429 0.51,-69.21 18.75,-98 18.2,-28.75 47.62,-50.242 80.58,-58.789 32.97,-8.601 69.11,-4.179 99.07,12.071 29.92,16.207 53.32,44.136 64.1,76.437"
         style="fill:none;stroke:#000000;stroke-width:4.6771698;stroke-linecap:round;stroke-linejoin:miter;stroke-miterlimit:4;stroke-dasharray:none;stroke-opacity:1"
         id="path1025"
         inkscape:connector-curvature="0" /><path
         d="m 1763.95,367.93 c -20.67,24.41 -48.56,42.621 -79.22,51.718 -30.67,9.102 -63.99,9.063 -94.61,-0.117 -30.63,-9.179 -58.48,-27.461 -79.07,-51.91 -20.62,-24.461 -33.9,-55 -37.73,-86.762 -4.45,-36.679 3.83,-74.769 23.09,-106.289 19.29,-31.519 49.37,-56.289 84.02,-69.14 44.06,-16.3284 95.04,-12.8089 136.41,9.41 41.4,22.191 72.5,62.738 83.24,108.441"
         style="fill:none;stroke:#000000;stroke-width:4.6771698;stroke-linecap:round;stroke-linejoin:miter;stroke-miterlimit:4;stroke-dasharray:none;stroke-opacity:1"
         id="path1027"
         inkscape:connector-curvature="0" /><path
         d="m 1275.63,287.301 c 0,-147.531 -169.15,-267.1408 -377.778,-267.1408 -208.633,0 -377.774,119.6098 -377.774,267.1408 0,147.578 169.141,267.187 377.774,267.187 208.628,0 377.778,-119.609 377.778,-267.187 z"
         style="fill:#ffffff;fill-opacity:1;fill-rule:nonzero;stroke:none"
         id="path1029"
         inkscape:connector-curvature="0" /><path
         d="m 1275.63,287.301 c 0,-147.531 -169.15,-267.1408 -377.778,-267.1408 -208.633,0 -377.774,119.6098 -377.774,267.1408 0,147.578 169.141,267.187 377.774,267.187 208.628,0 377.778,-119.609 377.778,-267.187 z"
         style="fill:none;stroke:#000000;stroke-width:10.31169987;stroke-linecap:butt;stroke-linejoin:miter;stroke-miterlimit:4;stroke-dasharray:none;stroke-opacity:1"
         id="path1031"
         inkscape:connector-curvature="0" /><g
         id="g1033"
         transform="scale(0.847507,-1.15249)"><path
           d="m 886.419,-261.495 c 34.024,23.221 67.994,46.475 117.081,54.603 49.08,8.142 113.29,1.156 157.03,-10.029 43.69,-11.185 66.93,-26.569 90.15,-41.961"
           style="fill:none;stroke:#000000;stroke-width:10.43369961;stroke-linecap:butt;stroke-linejoin:miter;stroke-miterlimit:4;stroke-dasharray:none;stroke-opacity:1"
           id="path1035"
           inkscape:connector-curvature="0" /></g><g
         id="g1037"
         transform="scale(0.847507,-1.15249)"><path
           d="m 919.563,-241.46 c 30.789,-15.391 61.582,-30.81 99.927,-37.483 38.3,-6.681 84.21,-4.651 119.1,2.775 34.84,7.386 58.67,20.201 82.45,32.983"
           style="fill:none;stroke:#000000;stroke-width:10.43369961;stroke-linecap:butt;stroke-linejoin:miter;stroke-miterlimit:4;stroke-dasharray:none;stroke-opacity:1"
           id="path1039"
           inkscape:connector-curvature="0" /></g><g
         id="g1041"
         transform="scale(0.847507,-1.15249)"><path
           d="m 936.99,-228.374 c -42.5,13.083 -79.24,43.991 -99.377,83.644 -13.961,27.525 -20.095,59.0123 -17.422,89.7541"
           style="fill:none;stroke:#000000;stroke-width:6.91234016;stroke-linecap:butt;stroke-linejoin:miter;stroke-miterlimit:4;stroke-dasharray:none;stroke-opacity:1"
           id="path1043"
           inkscape:connector-curvature="0" /></g><path
         d="m 730.66,201.762 c 4.418,6.988 3.75,6.949 8.91,0.937 5.121,-5.98 5.078,-5.078 0.66,-12.078 -4.371,-6.992 -3.71,-6.91 -8.859,-0.93 -5.16,5.969 -5.082,5.079 -0.711,12.071 z"
         style="fill:#ffffff;fill-opacity:1;fill-rule:nonzero;stroke:none"
         id="path1045"
         inkscape:connector-curvature="0" /><path
         d="m 1076.56,201.762 c -4.41,6.988 -3.75,6.949 -8.9,0.937 -5.16,-5.98 -5.08,-5.078 -0.71,-12.078 4.42,-6.992 3.75,-6.91 8.91,-0.93 5.16,5.969 5.08,5.079 0.7,12.071 z"
         style="fill:#ffffff;fill-opacity:1;fill-rule:nonzero;stroke:none"
         id="path1047"
         inkscape:connector-curvature="0" /><path
         d="m 898.398,226.91 c -178.628,-2.609 -166.839,1.25 -157.968,-51.48 8.871,-52.77 -4.18,-49.258 174.449,-46.641 178.641,2.621 166.841,-1.25 157.971,51.481 -8.87,52.781 4.18,49.261 -174.452,46.64 z"
         style="fill:#ffffff;fill-opacity:1;fill-rule:nonzero;stroke:none"
         id="path1049"
         inkscape:connector-curvature="0" /><path
         d="m 899.531,190.699 c -199.453,-2.609 -186.25,1.25 -176.371,-51.519 9.93,-52.7308 -4.64,-49.2191 194.77,-46.6019 199.45,2.6211 186.25,-1.25 176.37,51.4809 -9.89,52.742 4.68,49.261 -194.769,46.64 z"
         style="fill:#ffffff;fill-opacity:1;fill-rule:nonzero;stroke:none"
         id="path1051"
         inkscape:connector-curvature="0" /><g
         id="g1053"
         transform="scale(0.847507,-1.15249)"><path
           d="m 1060.51,-202.143 c 10.51,58.67 13.08,118.7335 7.56,178.0817 -0.14,1.7625 -0.32,3.5216 -0.51,5.2841"
           style="fill:none;stroke:#000000;stroke-width:6.90147018;stroke-linecap:butt;stroke-linejoin:miter;stroke-miterlimit:4;stroke-dasharray:none;stroke-opacity:1"
           id="path1055"
           inkscape:connector-curvature="0" /></g><g
         id="g1057"
         transform="scale(-0.847507,-1.15249)" /><g
         id="g1061"
         transform="scale(0.847507,-1.15249)"><path
           d="m 1138.22,-210.681 c -3.32,28.501 -3.37,57.447 -0.19,85.985 3.78,33.962 12.17,67.4119 24.85,99.1773"
           style="fill:none;stroke:#000000;stroke-width:1.82589996;stroke-linecap:round;stroke-linejoin:miter;stroke-miterlimit:4;stroke-dasharray:1.8259, 3.6518;stroke-dashoffset:0;stroke-opacity:1"
           id="path1063"
           inkscape:connector-curvature="0" /></g><g
         id="g1065"
         transform="scale(0.847507,-1.15249)" /><path
         d="m 743.398,219.262 c 0,-3.832 -2.308,-6.922 -5.117,-6.922 -2.812,0 -5.082,3.09 -5.082,6.922 0,3.859 2.27,6.949 5.082,6.949 2.809,0 5.117,-3.09 5.117,-6.949 z"
         style="fill:#000000;fill-opacity:1;fill-rule:nonzero;stroke:none"
         id="path1069"
         inkscape:connector-curvature="0" /><path
         d="m 743.398,219.262 c 0,-3.832 -2.308,-6.922 -5.117,-6.922 -2.812,0 -5.082,3.09 -5.082,6.922 0,3.859 2.27,6.949 5.082,6.949 2.809,0 5.117,-3.09 5.117,-6.949 z"
         style="fill:none;stroke:#000000;stroke-width:2.1826772;stroke-linecap:butt;stroke-linejoin:miter;stroke-miterlimit:4;stroke-dasharray:none;stroke-opacity:1"
         id="path1071"
         inkscape:connector-curvature="0" /><path
         d="m 717.539,174.57 c 0,-3.832 -2.309,-6.91 -5.117,-6.91 -2.813,0 -5.082,3.078 -5.082,6.91 0,3.828 2.269,6.95 5.082,6.95 2.808,0 5.117,-3.122 5.117,-6.95 z"
         style="fill:#000000;fill-opacity:1;fill-rule:nonzero;stroke:none"
         id="path1073"
         inkscape:connector-curvature="0" /><path
         d="m 717.539,174.57 c 0,-3.832 -2.309,-6.91 -5.117,-6.91 -2.813,0 -5.082,3.078 -5.082,6.91 0,3.828 2.269,6.95 5.082,6.95 2.808,0 5.117,-3.122 5.117,-6.95 z"
         style="fill:none;stroke:#000000;stroke-width:2.1826772;stroke-linecap:butt;stroke-linejoin:miter;stroke-miterlimit:4;stroke-dasharray:none;stroke-opacity:1"
         id="path1075"
         inkscape:connector-curvature="0" /><path
         d="m 901.879,122.852 c 0,-3.832 2.301,-6.911 5.109,-6.911 2.813,0 5.082,3.079 5.082,6.911 0,3.828 -2.269,6.949 -5.082,6.949 -2.808,0 -5.109,-3.121 -5.109,-6.949 z"
         style="fill:#000000;fill-opacity:1;fill-rule:nonzero;stroke:none"
         id="path1077"
         inkscape:connector-curvature="0" /><path
         d="m 901.879,122.852 c 0,-3.832 2.301,-6.911 5.109,-6.911 2.813,0 5.082,3.079 5.082,6.911 0,3.828 -2.269,6.949 -5.082,6.949 -2.808,0 -5.109,-3.121 -5.109,-6.949 z"
         style="fill:none;stroke:#000000;stroke-width:2.1826772;stroke-linecap:butt;stroke-linejoin:miter;stroke-miterlimit:4;stroke-dasharray:none;stroke-opacity:1"
         id="path1079"
         inkscape:connector-curvature="0" /><path
         d="m 897.461,185.621 c 0,-3.82 2.269,-6.91 5.078,-6.91 2.813,0 5.121,3.09 5.121,6.91 0,3.828 -2.308,6.957 -5.121,6.957 -2.809,0 -5.078,-3.129 -5.078,-6.957 z"
         style="fill:#000000;fill-opacity:1;fill-rule:nonzero;stroke:none"
         id="path1081"
         inkscape:connector-curvature="0" /><path
         d="m 897.461,185.621 c 0,-3.82 2.269,-6.91 5.078,-6.91 2.813,0 5.121,3.09 5.121,6.91 0,3.828 -2.308,6.957 -5.121,6.957 -2.809,0 -5.078,-3.129 -5.078,-6.957 z"
         style="fill:none;stroke:#000000;stroke-width:2.1826772;stroke-linecap:butt;stroke-linejoin:miter;stroke-miterlimit:4;stroke-dasharray:none;stroke-opacity:1"
         id="path1083"
         inkscape:connector-curvature="0" /><g
         id="g1085"
         transform="scale(0.847507,-1.15249)"><path
           d="m 1070.1,-160.966 c 13.78,0.617 27.6,-1.013 40.87,-4.711 4.89,-1.386 9.78,-3.077 13.7,-6.263 2.95,-2.376 5.21,-5.491 6.91,-8.85 1.7,-3.325 2.86,-6.952 3.83,-10.578 1.62,-6.335 2.53,-12.806 2.81,-19.313"
           style="fill:none;stroke:#000000;stroke-width:3.91265011;stroke-linecap:butt;stroke-linejoin:miter;stroke-miterlimit:4;stroke-dasharray:none;stroke-opacity:1"
           id="path1087"
           inkscape:connector-curvature="0" /></g><g
         id="g1089"
         transform="scale(0.847507,-1.15249)"><path
           d="m 1076.87,-106.735 c 10.23,-1.18 20.79,0.549 30.1,4.887 8.95,4.1997 16.64,10.6734 23,18.2283 7.19,8.5481 12.68,18.3705 17.74,28.3048 5.12,9.9615 9.87,20.1296 14.3,30.4368"
           style="fill:none;stroke:#000000;stroke-width:3.91265011;stroke-linecap:butt;stroke-linejoin:miter;stroke-miterlimit:4;stroke-dasharray:none;stroke-opacity:1"
           id="path1091"
           inkscape:connector-curvature="0" /></g><g
         id="g1093"
         transform="scale(0.847507,-1.15249)"><path
           d="m 872.043,-192.653 c -2.212,-4.979 -5.807,-9.351 -10.273,-12.476 -4.481,-3.149 -9.781,-5.017 -15.266,-5.389 -5.439,-0.339 -10.965,0.816 -15.809,3.325 -4.83,2.542 -8.937,6.368 -11.799,11.052 -5.112,8.365 -5.711,19.316 -1.614,28.227 4.103,8.921 12.818,15.53 22.544,17.086"
           style="fill:none;stroke:#000000;stroke-width:4.30390978;stroke-linecap:round;stroke-linejoin:miter;stroke-miterlimit:4;stroke-dasharray:none;stroke-opacity:1"
           id="path1095"
           inkscape:connector-curvature="0" /></g></g><path
       sodipodi:type="star"
       style="opacity:1;fill:#ffffff;fill-opacity:0;stroke:#ffffff;stroke-width:1.31811023;stroke-linecap:butt;stroke-linejoin:miter;stroke-miterlimit:4;stroke-dasharray:none;stroke-dashoffset:0;stroke-opacity:1;paint-order:normal"
       id="path1103"
       sodipodi:sides="4"
       sodipodi:cx="80.576813"
       sodipodi:cy="-25.802376"
       sodipodi:r1="0.59777409"
       sodipodi:r2="0.42269012"
       sodipodi:arg1="0.51914611"
       sodipodi:arg2="1.3045443"
       inkscape:flatsided="true"
       inkscape:rounded="0.76"
       inkscape:randomized="0"
       d="m 81.095826,-25.505797 c -0.318764,0.557837 -0.257756,0.541198 -0.815592,0.222434 -0.557837,-0.318763 -0.541198,-0.257755 -0.222435,-0.815592 0.318764,-0.557836 0.257756,-0.541198 0.815593,-0.222434 0.557836,0.318764 0.541198,0.257756 0.222434,0.815592 z"
       transform="matrix(2.0309865,-0.17576805,-0.07963775,-0.9202082,-83.886527,15.776779)" /><path
       transform="matrix(2.8326853,0,0,-1.2604546,-143.1909,-8.509091)"
       d="m 81.095826,-25.505797 c -0.318764,0.557837 -0.257756,0.541198 -0.815592,0.222434 -0.557837,-0.318763 -0.541198,-0.257755 -0.222435,-0.815592 0.318764,-0.557836 0.257756,-0.541198 0.815593,-0.222434 0.557836,0.318764 0.541198,0.257756 0.222434,0.815592 z"
       inkscape:randomized="0"
       inkscape:rounded="0.76"
       inkscape:flatsided="true"
       sodipodi:arg2="1.3045443"
       sodipodi:arg1="0.51914611"
       sodipodi:r2="0.42269012"
       sodipodi:r1="0.59777409"
       sodipodi:cy="-25.802376"
       sodipodi:cx="80.576813"
       sodipodi:sides="4"
       id="path1105"
       style="opacity:1;fill:#ffffff;fill-opacity:0;stroke:#ffffff;stroke-width:1.31811023;stroke-linecap:butt;stroke-linejoin:miter;stroke-miterlimit:4;stroke-dasharray:none;stroke-dashoffset:0;stroke-opacity:1;paint-order:normal"
       sodipodi:type="star" /><path
       transform="matrix(-0.70480685,1.3731095,0.99509763,0.51077618,170.59728,-73.818637)"
       d="m 81.095826,-25.505797 c -0.318764,0.557837 -0.257756,0.541198 -0.815592,0.222434 -0.557837,-0.318763 -0.541198,-0.257755 -0.222435,-0.815592 0.318764,-0.557836 0.257756,-0.541198 0.815593,-0.222434 0.557836,0.318764 0.541198,0.257756 0.222434,0.815592 z"
       inkscape:randomized="0"
       inkscape:rounded="0.76"
       inkscape:flatsided="true"
       sodipodi:arg2="1.3045443"
       sodipodi:arg1="0.51914611"
       sodipodi:r2="0.42269012"
       sodipodi:r1="0.59777409"
       sodipodi:cy="-25.802376"
       sodipodi:cx="80.576813"
       sodipodi:sides="4"
       id="path1107"
       style="opacity:1;fill:#ffffff;fill-opacity:0;stroke:#ffffff;stroke-width:1.31811023;stroke-linecap:butt;stroke-linejoin:miter;stroke-miterlimit:4;stroke-dasharray:none;stroke-dashoffset:0;stroke-opacity:1;paint-order:normal"
       sodipodi:type="star" /><path
       sodipodi:type="star"
       style="opacity:1;fill:#ffffff;fill-opacity:0;stroke:#ffffff;stroke-width:1.31811023;stroke-linecap:butt;stroke-linejoin:miter;stroke-miterlimit:4;stroke-dasharray:none;stroke-dashoffset:0;stroke-opacity:1;paint-order:normal"
       id="path1109"
       sodipodi:sides="4"
       sodipodi:cx="80.576813"
       sodipodi:cy="-25.802376"
       sodipodi:r1="0.59777409"
       sodipodi:r2="0.42269012"
       sodipodi:arg1="0.51914611"
       sodipodi:arg2="1.3045443"
       inkscape:flatsided="true"
       inkscape:rounded="0.76"
       inkscape:randomized="0"
       d="m 81.095826,-25.505797 c -0.318764,0.557837 -0.257756,0.541198 -0.815592,0.222434 -0.557837,-0.318763 -0.541198,-0.257755 -0.222435,-0.815592 0.318764,-0.557836 0.257756,-0.541198 0.815593,-0.222434 0.557836,0.318764 0.541198,0.257756 0.222434,0.815592 z"
       transform="matrix(8.7733708,0,0,-2.3689534,-629.39585,-57.269659)" /><path
       transform="matrix(0.65845235,-1.8615745,-1.2298182,-0.53859587,3.6954578,138.9226)"
       d="m 81.095826,-25.505797 c -0.318764,0.557837 -0.257756,0.541198 -0.815592,0.222434 -0.557837,-0.318763 -0.541198,-0.257755 -0.222435,-0.815592 0.318764,-0.557836 0.257756,-0.541198 0.815593,-0.222434 0.557836,0.318764 0.541198,0.257756 0.222434,0.815592 z"
       inkscape:randomized="0"
       inkscape:rounded="0.76"
       inkscape:flatsided="true"
       sodipodi:arg2="1.3045443"
       sodipodi:arg1="0.51914611"
       sodipodi:r2="0.42269012"
       sodipodi:r1="0.59777409"
       sodipodi:cy="-25.802376"
       sodipodi:cx="80.576813"
       sodipodi:sides="4"
       id="path1111"
       style="opacity:1;fill:#ffffff;fill-opacity:0;stroke:#ffffff;stroke-width:1.31811023;stroke-linecap:butt;stroke-linejoin:miter;stroke-miterlimit:4;stroke-dasharray:none;stroke-dashoffset:0;stroke-opacity:1;paint-order:normal"
       sodipodi:type="star" /><path
       sodipodi:type="star"
       style="opacity:1;fill:#ffffff;fill-opacity:0;stroke:#ffffff;stroke-width:1.31811023;stroke-linecap:butt;stroke-linejoin:miter;stroke-miterlimit:4;stroke-dasharray:none;stroke-dashoffset:0;stroke-opacity:1;paint-order:normal"
       id="path1113"
       sodipodi:sides="4"
       sodipodi:cx="80.576813"
       sodipodi:cy="-25.802376"
       sodipodi:r1="0.59777409"
       sodipodi:r2="0.42269012"
       sodipodi:arg1="0.51914611"
       sodipodi:arg2="1.3045443"
       inkscape:flatsided="true"
       inkscape:rounded="0.76"
       inkscape:randomized="0"
       d="m 81.095826,-25.505797 c -0.318764,0.557837 -0.257756,0.541198 -0.815592,0.222434 -0.557837,-0.318763 -0.541198,-0.257755 -0.222435,-0.815592 0.318764,-0.557836 0.257756,-0.541198 0.815593,-0.222434 0.557836,0.318764 0.541198,0.257756 0.222434,0.815592 z"
       transform="matrix(0.65845235,-1.8615745,-1.2298182,-0.53859587,1.9522183,139.09299)" /><g
       transform="matrix(-0.0847507,0,0,0.115249,148.92232,32.655793)"
       id="g1117"
       style="opacity:0.99999999"><path
         inkscape:connector-curvature="0"
         id="path1115"
         style="fill:none;stroke:#000000;stroke-width:6.91234016;stroke-linecap:butt;stroke-linejoin:miter;stroke-miterlimit:4;stroke-dasharray:none;stroke-opacity:1"
         d="m 934.97949,-226.44062 c -42.5,13.083 -77.22949,42.05762 -97.36649,81.71062 -13.961,27.525 -26.89979,60.377039 -24.22679,91.118839"
         sodipodi:nodetypes="ccc" /></g><path
       transform="matrix(8.7733708,0,0,-2.3689534,-629.44219,-57.232587)"
       d="m 81.095826,-25.505797 c -0.318764,0.557837 -0.257756,0.541198 -0.815592,0.222434 -0.557837,-0.318763 -0.541198,-0.257755 -0.222435,-0.815592 0.318764,-0.557836 0.257756,-0.541198 0.815593,-0.222434 0.557836,0.318764 0.541198,0.257756 0.222434,0.815592 z"
       inkscape:randomized="0"
       inkscape:rounded="0.76"
       inkscape:flatsided="true"
       sodipodi:arg2="1.3045443"
       sodipodi:arg1="0.51914611"
       sodipodi:r2="0.42269012"
       sodipodi:r1="0.59777409"
       sodipodi:cy="-25.802376"
       sodipodi:cx="80.576813"
       sodipodi:sides="4"
       id="path1121"
       style="opacity:1;fill:#ffffff;fill-opacity:0;stroke:#ffffff;stroke-width:1.31811023;stroke-linecap:butt;stroke-linejoin:miter;stroke-miterlimit:4;stroke-dasharray:none;stroke-dashoffset:0;stroke-opacity:1;paint-order:normal"
       sodipodi:type="star" /><g
       transform="matrix(-0.0847507,0,0,0.115249,180.31626,24.855054)"
       id="g1125"><path
         inkscape:connector-curvature="0"
         id="path1123"
         style="fill:none;stroke:#000000;stroke-width:6.90147018;stroke-linecap:butt;stroke-linejoin:miter;stroke-miterlimit:4;stroke-dasharray:none;stroke-opacity:1"
         d="m 1060.51,-202.143 c 10.51,58.67 21.8285,93.96476 16.3085,153.312956 -0.14,1.7625 -9.6959,41.3113596 -9.6959,41.3113596"
         sodipodi:nodetypes="ccc" /></g></g></svg>